<svg width="1080" height="241" viewBox="0 0 1080 241" fill="none" xmlns="http://www.w3.org/2000/svg">
<path d="M129.27 13.2899C128.412 13.2894 127.564 13.4605 126.778 13.7923C125.992 14.1242 125.285 14.6098 124.701 15.2187C124.117 15.8277 123.668 16.547 123.383 17.3319C123.098 18.1167 122.982 18.9501 123.043 19.7802L118.816 21.1551C118.147 19.9245 117.193 18.8609 116.03 18.0472C114.867 17.2335 113.526 16.6918 112.112 16.4643V12.097C113.447 11.7509 114.628 10.9869 115.471 9.92321C116.315 8.85952 116.773 7.55553 116.776 6.2132C116.776 2.85682 113.986 0.147461 110.529 0.147461C107.072 0.147461 104.282 2.85682 104.282 6.2132C104.282 9.04388 106.281 11.4095 108.967 12.097V16.4643C106.052 16.9293 103.595 18.7086 102.262 21.1551L98.0144 19.7802C98.0353 19.6387 98.0353 19.4972 98.0353 19.3556C98.0353 15.9993 95.245 13.2899 91.7884 13.2899C88.3318 13.2899 85.5416 15.9993 85.5416 19.3556C85.5416 22.712 88.3318 25.4214 91.7884 25.4214C93.9956 25.4214 95.9113 24.3093 97.0358 22.6514L101.263 24.0263C100.846 26.6345 101.617 29.4045 103.532 31.4871L100.596 35.0659C99.8052 34.702 98.9515 34.52 98.0353 34.52C94.5787 34.52 91.7884 37.2293 91.7884 40.5857C91.7884 43.9421 94.5787 46.6515 98.0353 46.6515C101.492 46.6515 104.282 43.9421 104.282 40.5857C104.282 39.2108 103.824 37.9572 103.033 36.9463L105.969 33.3675C108.801 34.9041 112.257 34.8839 115.068 33.3675L118.004 36.9463C117.234 37.9572 116.776 39.2108 116.776 40.5857C116.776 43.9421 119.566 46.6515 123.023 46.6515C126.479 46.6515 129.27 43.9421 129.27 40.5857C129.27 37.2293 126.479 34.52 123.023 34.52C122.106 34.52 121.253 34.702 120.461 35.0457L117.525 31.4669C118.449 30.4643 119.132 29.2748 119.525 27.9845C119.918 26.6942 120.01 25.3352 119.795 24.006L124.022 22.6311C125.126 24.2891 127.062 25.4012 129.27 25.4012C132.726 25.4012 135.516 22.6918 135.516 19.3354C135.516 15.979 132.726 13.2899 129.27 13.2899ZM91.7884 21.3775C90.6432 21.3775 89.7061 20.4677 89.7061 19.3556C89.7061 18.2436 90.6432 17.3337 91.7884 17.3337C92.9337 17.3337 93.8707 18.2436 93.8707 19.3556C93.8707 20.4677 92.9337 21.3775 91.7884 21.3775ZM98.0353 42.6076C96.89 42.6076 95.953 41.6978 95.953 40.5857C95.953 39.4737 96.89 38.5638 98.0353 38.5638C99.1805 38.5638 100.118 39.4737 100.118 40.5857C100.118 41.6978 99.1805 42.6076 98.0353 42.6076ZM108.447 6.2132C108.447 5.10115 109.384 4.19129 110.529 4.19129C111.674 4.19129 112.611 5.10115 112.611 6.2132C112.611 7.32525 111.674 8.23511 110.529 8.23511C109.384 8.23511 108.447 7.32525 108.447 6.2132ZM110.529 30.4762C109.148 30.4762 107.824 29.9436 106.848 28.9956C105.872 28.0477 105.323 26.762 105.323 25.4214C105.323 24.0808 105.872 22.7951 106.848 21.8471C107.824 20.8991 109.148 20.3666 110.529 20.3666C111.91 20.3666 113.234 20.8991 114.21 21.8471C115.186 22.7951 115.735 24.0808 115.735 25.4214C115.735 26.762 115.186 28.0477 114.21 28.9956C113.234 29.9436 111.91 30.4762 110.529 30.4762ZM123.023 38.5638C124.168 38.5638 125.105 39.4737 125.105 40.5857C125.105 41.6978 124.168 42.6076 123.023 42.6076C121.877 42.6076 120.94 41.6978 120.94 40.5857C120.94 39.4737 121.877 38.5638 123.023 38.5638ZM129.27 21.3775C128.124 21.3775 127.187 20.4677 127.187 19.3556C127.187 18.2436 128.124 17.3337 129.27 17.3337C130.415 17.3337 131.352 18.2436 131.352 19.3556C131.352 20.4677 130.415 21.3775 129.27 21.3775Z" fill="#00A79D"/>
<path d="M1073.59 124.495C1072.73 124.495 1071.88 124.666 1071.09 124.997C1070.31 125.329 1069.6 125.815 1069.02 126.424C1068.43 127.033 1067.98 127.752 1067.7 128.537C1067.41 129.322 1067.3 130.155 1067.36 130.985L1063.13 132.36C1062.46 131.13 1061.51 130.066 1060.35 129.252C1059.18 128.439 1057.84 127.897 1056.43 127.669V123.302C1057.76 122.956 1058.94 122.192 1059.79 121.128C1060.63 120.065 1061.09 118.761 1061.09 117.418C1061.09 114.062 1058.3 111.353 1054.84 111.353C1051.39 111.353 1048.6 114.062 1048.6 117.418C1048.6 120.249 1050.6 122.615 1053.28 123.302V127.669C1050.37 128.134 1047.91 129.914 1046.58 132.36L1042.33 130.985C1042.35 130.844 1042.35 130.702 1042.35 130.561C1042.35 127.204 1039.56 124.495 1036.1 124.495C1032.65 124.495 1029.86 127.204 1029.86 130.561C1029.86 133.917 1032.65 136.626 1036.1 136.626C1038.31 136.626 1040.23 135.514 1041.35 133.856L1045.58 135.231C1045.16 137.84 1045.93 140.61 1047.85 142.692L1044.91 146.271C1044.12 145.907 1043.27 145.725 1042.35 145.725C1038.89 145.725 1036.1 148.434 1036.1 151.791C1036.1 155.147 1038.89 157.857 1042.35 157.857C1045.81 157.857 1048.6 155.147 1048.6 151.791C1048.6 150.416 1048.14 149.162 1047.35 148.151L1050.28 144.573C1053.12 146.109 1056.57 146.089 1059.38 144.573L1062.32 148.151C1061.55 149.162 1061.09 150.416 1061.09 151.791C1061.09 155.147 1063.88 157.857 1067.34 157.857C1070.79 157.857 1073.59 155.147 1073.59 151.791C1073.59 148.434 1070.79 145.725 1067.34 145.725C1066.42 145.725 1065.57 145.907 1064.78 146.251L1061.84 142.672C1062.77 141.669 1063.45 140.48 1063.84 139.19C1064.23 137.899 1064.33 136.54 1064.11 135.211L1068.34 133.836C1069.44 135.494 1071.38 136.606 1073.59 136.606C1077.04 136.606 1079.83 133.897 1079.83 130.54C1079.83 127.184 1077.04 124.495 1073.59 124.495ZM1036.1 132.583C1034.96 132.583 1034.02 131.673 1034.02 130.561C1034.02 129.449 1034.96 128.539 1036.1 128.539C1037.25 128.539 1038.19 129.449 1038.19 130.561C1038.19 131.673 1037.25 132.583 1036.1 132.583ZM1042.35 153.813C1041.21 153.813 1040.27 152.903 1040.27 151.791C1040.27 150.679 1041.21 149.769 1042.35 149.769C1043.5 149.769 1044.43 150.679 1044.43 151.791C1044.43 152.903 1043.5 153.813 1042.35 153.813ZM1052.76 117.418C1052.76 116.306 1053.7 115.396 1054.84 115.396C1055.99 115.396 1056.93 116.306 1056.93 117.418C1056.93 118.53 1055.99 119.44 1054.84 119.44C1053.7 119.44 1052.76 118.53 1052.76 117.418ZM1054.84 141.681C1053.46 141.681 1052.14 141.149 1051.16 140.201C1050.19 139.253 1049.64 137.967 1049.64 136.626C1049.64 135.286 1050.19 134 1051.16 133.052C1052.14 132.104 1053.46 131.572 1054.84 131.572C1056.23 131.572 1057.55 132.104 1058.53 133.052C1059.5 134 1060.05 135.286 1060.05 136.626C1060.05 137.967 1059.5 139.253 1058.53 140.201C1057.55 141.149 1056.23 141.681 1054.84 141.681ZM1067.34 149.769C1068.48 149.769 1069.42 150.679 1069.42 151.791C1069.42 152.903 1068.48 153.813 1067.34 153.813C1066.19 153.813 1065.26 152.903 1065.26 151.791C1065.26 150.679 1066.19 149.769 1067.34 149.769ZM1073.59 132.583C1072.44 132.583 1071.5 131.673 1071.5 130.561C1071.5 129.449 1072.44 128.539 1073.59 128.539C1074.73 128.539 1075.67 129.449 1075.67 130.561C1075.67 131.673 1074.73 132.583 1073.59 132.583Z" fill="#00A79D"/>
<path d="M43.8959 207.393C43.0388 207.393 42.1908 207.564 41.4048 207.896C40.6188 208.228 39.9116 208.713 39.3275 209.322C38.7433 209.931 38.2946 210.651 38.0094 211.435C37.7242 212.22 37.6086 213.054 37.6698 213.884L33.4428 215.259C32.7729 214.028 31.8192 212.964 30.6561 212.151C29.4931 211.337 28.1521 210.795 26.7378 210.568V206.2C28.0735 205.854 29.2544 205.09 30.0977 204.027C30.9409 202.963 31.3994 201.659 31.4022 200.317C31.4022 196.96 28.6119 194.251 25.1553 194.251C21.6987 194.251 18.9085 196.96 18.9085 200.317C18.9085 203.147 20.9075 205.513 23.5936 206.2V210.568C20.6784 211.033 18.2213 212.812 16.8886 215.259L12.6408 213.884C12.6616 213.742 12.6616 213.601 12.6616 213.459C12.6616 210.103 9.87135 207.393 6.41476 207.393C2.95817 207.393 0.167908 210.103 0.167908 213.459C0.167908 216.816 2.95817 219.525 6.41476 219.525C8.62198 219.525 10.5377 218.413 11.6621 216.755L15.8892 218.13C15.4727 220.738 16.2431 223.508 18.1588 225.591L15.2228 229.169C14.4316 228.805 13.5778 228.623 12.6616 228.623C9.20502 228.623 6.41476 231.333 6.41476 234.689C6.41476 238.046 9.20502 240.755 12.6616 240.755C16.1182 240.755 18.9085 238.046 18.9085 234.689C18.9085 233.314 18.4504 232.061 17.6591 231.05L20.5951 227.471C23.427 229.008 26.8836 228.987 29.6947 227.471L32.6307 231.05C31.8603 232.061 31.4022 233.314 31.4022 234.689C31.4022 238.046 34.1924 240.755 37.649 240.755C41.1056 240.755 43.8959 238.046 43.8959 234.689C43.8959 231.333 41.1056 228.623 37.649 228.623C36.7328 228.623 35.8791 228.805 35.0878 229.149L32.1518 225.57C33.0758 224.568 33.7588 223.378 34.1514 222.088C34.5439 220.798 34.6362 219.439 34.4215 218.11L38.6485 216.735C39.7521 218.393 41.6886 219.505 43.8959 219.505C47.3525 219.505 50.1427 216.795 50.1427 213.439C50.1427 210.083 47.3525 207.393 43.8959 207.393ZM6.41476 215.481C5.2695 215.481 4.33248 214.571 4.33248 213.459C4.33248 212.347 5.2695 211.437 6.41476 211.437C7.56002 211.437 8.49704 212.347 8.49704 213.459C8.49704 214.571 7.56002 215.481 6.41476 215.481ZM12.6616 236.711C11.5164 236.711 10.5793 235.801 10.5793 234.689C10.5793 233.577 11.5164 232.667 12.6616 232.667C13.8069 232.667 14.7439 233.577 14.7439 234.689C14.7439 235.801 13.8069 236.711 12.6616 236.711ZM23.073 200.317C23.073 199.205 24.0101 198.295 25.1553 198.295C26.3006 198.295 27.2376 199.205 27.2376 200.317C27.2376 201.429 26.3006 202.339 25.1553 202.339C24.0101 202.339 23.073 201.429 23.073 200.317ZM25.1553 224.58C23.7747 224.58 22.4506 224.047 21.4743 223.099C20.4981 222.151 19.9496 220.866 19.9496 219.525C19.9496 218.184 20.4981 216.899 21.4743 215.951C22.4506 215.003 23.7747 214.47 25.1553 214.47C26.536 214.47 27.86 215.003 28.8363 215.951C29.8126 216.899 30.361 218.184 30.361 219.525C30.361 220.866 29.8126 222.151 28.8363 223.099C27.86 224.047 26.536 224.58 25.1553 224.58ZM37.649 232.667C38.7943 232.667 39.7313 233.577 39.7313 234.689C39.7313 235.801 38.7943 236.711 37.649 236.711C36.5038 236.711 35.5667 235.801 35.5667 234.689C35.5667 233.577 36.5038 232.667 37.649 232.667ZM43.8959 215.481C42.7506 215.481 41.8136 214.571 41.8136 213.459C41.8136 212.347 42.7506 211.437 43.8959 211.437C45.0411 211.437 45.9781 212.347 45.9781 213.459C45.9781 214.571 45.0411 215.481 43.8959 215.481Z" fill="#FF6F61"/>
<path d="M1035.06 209.635C1034.63 209.635 1034.21 209.717 1033.82 209.875C1033.42 210.034 1033.07 210.266 1032.78 210.558C1032.49 210.849 1032.26 211.193 1032.12 211.568C1031.98 211.944 1031.92 212.342 1031.95 212.739L1029.84 213.397C1029.5 212.808 1029.02 212.299 1028.44 211.91C1027.86 211.521 1027.19 211.262 1026.48 211.153V209.065C1027.15 208.899 1027.74 208.534 1028.16 208.025C1028.59 207.516 1028.81 206.893 1028.82 206.251C1028.82 204.645 1027.42 203.35 1025.69 203.35C1023.96 203.35 1022.57 204.645 1022.57 206.251C1022.57 207.604 1023.57 208.736 1024.91 209.065V211.153C1023.45 211.376 1022.23 212.227 1021.56 213.397L1019.44 212.739C1019.45 212.672 1019.45 212.604 1019.45 212.536C1019.45 210.931 1018.05 209.635 1016.32 209.635C1014.59 209.635 1013.2 210.931 1013.2 212.536C1013.2 214.141 1014.59 215.437 1016.32 215.437C1017.43 215.437 1018.38 214.905 1018.95 214.112L1021.06 214.77C1020.85 216.017 1021.24 217.342 1022.19 218.338L1020.73 220.05C1020.33 219.876 1019.9 219.789 1019.45 219.789C1017.72 219.789 1016.32 221.084 1016.32 222.69C1016.32 224.295 1017.72 225.591 1019.45 225.591C1021.17 225.591 1022.57 224.295 1022.57 222.69C1022.57 222.032 1022.34 221.433 1021.94 220.949L1023.41 219.237C1024.83 219.972 1026.56 219.963 1027.96 219.237L1029.43 220.949C1029.05 221.433 1028.82 222.032 1028.82 222.69C1028.82 224.295 1030.21 225.591 1031.94 225.591C1033.67 225.591 1035.06 224.295 1035.06 222.69C1035.06 221.084 1033.67 219.789 1031.94 219.789C1031.48 219.789 1031.05 219.876 1030.66 220.04L1029.19 218.328C1029.65 217.849 1029.99 217.28 1030.19 216.663C1030.39 216.046 1030.43 215.396 1030.33 214.76L1032.44 214.103C1032.99 214.896 1033.96 215.427 1035.06 215.427C1036.79 215.427 1038.19 214.132 1038.19 212.526C1038.19 210.921 1036.79 209.635 1035.06 209.635ZM1016.32 213.503C1015.75 213.503 1015.28 213.068 1015.28 212.536C1015.28 212.004 1015.75 211.569 1016.32 211.569C1016.9 211.569 1017.36 212.004 1017.36 212.536C1017.36 213.068 1016.9 213.503 1016.32 213.503ZM1019.45 223.657C1018.87 223.657 1018.4 223.222 1018.4 222.69C1018.4 222.158 1018.87 221.723 1019.45 221.723C1020.02 221.723 1020.49 222.158 1020.49 222.69C1020.49 223.222 1020.02 223.657 1019.45 223.657ZM1024.65 206.251C1024.65 205.719 1025.12 205.284 1025.69 205.284C1026.27 205.284 1026.73 205.719 1026.73 206.251C1026.73 206.782 1026.27 207.218 1025.69 207.218C1025.12 207.218 1024.65 206.782 1024.65 206.251ZM1025.69 217.855C1025 217.855 1024.34 217.6 1023.85 217.147C1023.36 216.693 1023.09 216.078 1023.09 215.437C1023.09 214.796 1023.36 214.181 1023.85 213.728C1024.34 213.274 1025 213.02 1025.69 213.02C1026.38 213.02 1027.05 213.274 1027.53 213.728C1028.02 214.181 1028.3 214.796 1028.3 215.437C1028.3 216.078 1028.02 216.693 1027.53 217.147C1027.05 217.6 1026.38 217.855 1025.69 217.855ZM1031.94 221.723C1032.51 221.723 1032.98 222.158 1032.98 222.69C1032.98 223.222 1032.51 223.657 1031.94 223.657C1031.37 223.657 1030.9 223.222 1030.9 222.69C1030.9 222.158 1031.37 221.723 1031.94 221.723ZM1035.06 213.503C1034.49 213.503 1034.02 213.068 1034.02 212.536C1034.02 212.004 1034.49 211.569 1035.06 211.569C1035.64 211.569 1036.1 212.004 1036.1 212.536C1036.1 213.068 1035.64 213.503 1035.06 213.503Z" fill="#FF6F61"/>
<path d="M882.015 18.5643C881.587 18.5641 881.163 18.6459 880.77 18.8046C880.377 18.9633 880.023 19.1956 879.731 19.4868C879.439 19.7781 879.215 20.1221 879.072 20.4974C878.929 20.8728 878.872 21.2714 878.902 21.6684L876.789 22.326C876.454 21.7374 875.977 21.2287 875.395 20.8395C874.814 20.4504 874.143 20.1913 873.436 20.0825V17.9938C874.104 17.8283 874.694 17.4629 875.116 16.9542C875.538 16.4454 875.767 15.8218 875.768 15.1798C875.768 13.5746 874.373 12.2788 872.645 12.2788C870.917 12.2788 869.521 13.5746 869.521 15.1798C869.521 16.5336 870.521 17.665 871.864 17.9938V20.0825C870.406 20.3049 869.178 21.1559 868.512 22.326L866.388 21.6684C866.398 21.6007 866.398 21.533 866.398 21.4653C866.398 19.8601 865.003 18.5643 863.275 18.5643C861.546 18.5643 860.151 19.8601 860.151 21.4653C860.151 23.0706 861.546 24.3663 863.275 24.3663C864.378 24.3663 865.336 23.8345 865.898 23.0415L868.012 23.6991C867.804 24.9465 868.189 26.2713 869.147 27.2673L867.679 28.9789C867.283 28.8049 866.856 28.7178 866.398 28.7178C864.67 28.7178 863.275 30.0136 863.275 31.6188C863.275 33.2241 864.67 34.5199 866.398 34.5199C868.126 34.5199 869.521 33.2241 869.521 31.6188C869.521 30.9613 869.292 30.3617 868.897 29.8782L870.365 28.1667C871.781 28.9016 873.509 28.8919 874.915 28.1667L876.383 29.8782C875.997 30.3617 875.768 30.9613 875.768 31.6188C875.768 33.2241 877.163 34.5199 878.892 34.5199C880.62 34.5199 882.015 33.2241 882.015 31.6188C882.015 30.0136 880.62 28.7178 878.892 28.7178C878.434 28.7178 878.007 28.8049 877.611 28.9693L876.143 27.2577C876.605 26.7782 876.947 26.2093 877.143 25.5922C877.339 24.9751 877.385 24.3251 877.278 23.6894L879.391 23.0319C879.943 23.8248 880.912 24.3567 882.015 24.3567C883.743 24.3567 885.139 23.0609 885.139 21.4557C885.139 19.8504 883.743 18.5643 882.015 18.5643ZM863.275 22.4323C862.702 22.4323 862.233 21.9972 862.233 21.4653C862.233 20.9335 862.702 20.4983 863.275 20.4983C863.847 20.4983 864.316 20.9335 864.316 21.4653C864.316 21.9972 863.847 22.4323 863.275 22.4323ZM866.398 32.5858C865.825 32.5858 865.357 32.1507 865.357 31.6188C865.357 31.087 865.825 30.6518 866.398 30.6518C866.971 30.6518 867.439 31.087 867.439 31.6188C867.439 32.1507 866.971 32.5858 866.398 32.5858ZM871.604 15.1798C871.604 14.648 872.072 14.2128 872.645 14.2128C873.218 14.2128 873.686 14.648 873.686 15.1798C873.686 15.7117 873.218 16.1468 872.645 16.1468C872.072 16.1468 871.604 15.7117 871.604 15.1798ZM872.645 26.7838C871.955 26.7838 871.293 26.5291 870.804 26.0758C870.316 25.6224 870.042 25.0075 870.042 24.3663C870.042 23.7252 870.316 23.1103 870.804 22.6569C871.293 22.2035 871.955 21.9488 872.645 21.9488C873.335 21.9488 873.997 22.2035 874.485 22.6569C874.974 23.1103 875.248 23.7252 875.248 24.3663C875.248 25.0075 874.974 25.6224 874.485 26.0758C873.997 26.5291 873.335 26.7838 872.645 26.7838ZM878.892 30.6518C879.464 30.6518 879.933 31.087 879.933 31.6188C879.933 32.1507 879.464 32.5858 878.892 32.5858C878.319 32.5858 877.851 32.1507 877.851 31.6188C877.851 31.087 878.319 30.6518 878.892 30.6518ZM882.015 22.4323C881.443 22.4323 880.974 21.9972 880.974 21.4653C880.974 20.9335 881.443 20.4983 882.015 20.4983C882.588 20.4983 883.056 20.9335 883.056 21.4653C883.056 21.9972 882.588 22.4323 882.015 22.4323Z" fill="#FF6F61"/>
<path d="M40.7725 52.9369C40.3439 52.9367 39.9199 53.0185 39.5269 53.1772C39.1339 53.3359 38.7804 53.5681 38.4883 53.8594C38.1962 54.1506 37.9719 54.4946 37.8293 54.87C37.6867 55.2453 37.6289 55.6439 37.6595 56.041L35.546 56.6985C35.211 56.11 34.7342 55.6013 34.1526 55.2121C33.5711 54.8229 32.9006 54.5639 32.1935 54.4551V52.3663C32.8613 52.2009 33.4518 51.8354 33.8734 51.3267C34.295 50.818 34.5243 50.1944 34.5256 49.5524C34.5256 47.9471 33.1305 46.6514 31.4022 46.6514C29.6739 46.6514 28.2788 47.9471 28.2788 49.5524C28.2788 50.9062 29.2783 52.0376 30.6214 52.3663V54.4551C29.1638 54.6775 27.9352 55.5284 27.2689 56.6985L25.1449 56.041C25.1554 55.9733 25.1554 55.9056 25.1554 55.8379C25.1554 54.2327 23.7602 52.9369 22.0319 52.9369C20.3036 52.9369 18.9085 54.2327 18.9085 55.8379C18.9085 57.4431 20.3036 58.7389 22.0319 58.7389C23.1355 58.7389 24.0934 58.207 24.6556 57.4141L26.7691 58.0717C26.5609 59.3191 26.9461 60.6439 27.904 61.6399L26.436 63.3515C26.0403 63.1774 25.6135 63.0904 25.1554 63.0904C23.4271 63.0904 22.0319 64.3862 22.0319 65.9914C22.0319 67.5966 23.4271 68.8924 25.1554 68.8924C26.8837 68.8924 28.2788 67.5966 28.2788 65.9914C28.2788 65.3338 28.0497 64.7343 27.6541 64.2508L29.1221 62.5392C30.5381 63.2741 32.2664 63.2645 33.6719 62.5392L35.1399 64.2508C34.7547 64.7343 34.5256 65.3338 34.5256 65.9914C34.5256 67.5966 35.9208 68.8924 37.6491 68.8924C39.3774 68.8924 40.7725 67.5966 40.7725 65.9914C40.7725 64.3862 39.3774 63.0904 37.6491 63.0904C37.191 63.0904 36.7641 63.1774 36.3685 63.3418L34.9004 61.6302C35.3625 61.1507 35.704 60.5819 35.9002 59.9647C36.0965 59.3476 36.1426 58.6977 36.0353 58.062L38.1488 57.4044C38.7006 58.1974 39.6689 58.7292 40.7725 58.7292C42.5008 58.7292 43.8959 57.4334 43.8959 55.8282C43.8959 54.223 42.5008 52.9369 40.7725 52.9369ZM22.0319 56.8049C21.4593 56.8049 20.9908 56.3697 20.9908 55.8379C20.9908 55.306 21.4593 54.8709 22.0319 54.8709C22.6046 54.8709 23.0731 55.306 23.0731 55.8379C23.0731 56.3697 22.6046 56.8049 22.0319 56.8049ZM25.1554 66.9584C24.5827 66.9584 24.1142 66.5233 24.1142 65.9914C24.1142 65.4596 24.5827 65.0244 25.1554 65.0244C25.728 65.0244 26.1965 65.4596 26.1965 65.9914C26.1965 66.5233 25.728 66.9584 25.1554 66.9584ZM30.3611 49.5524C30.3611 49.0205 30.8296 48.5854 31.4022 48.5854C31.9748 48.5854 32.4434 49.0205 32.4434 49.5524C32.4434 50.0842 31.9748 50.5194 31.4022 50.5194C30.8296 50.5194 30.3611 50.0842 30.3611 49.5524ZM31.4022 61.1564C30.7119 61.1564 30.0498 60.9017 29.5617 60.4483C29.0736 59.995 28.7994 59.3801 28.7994 58.7389C28.7994 58.0977 29.0736 57.4828 29.5617 57.0295C30.0498 56.5761 30.7119 56.3214 31.4022 56.3214C32.0925 56.3214 32.7546 56.5761 33.2427 57.0295C33.7308 57.4828 34.0051 58.0977 34.0051 58.7389C34.0051 59.3801 33.7308 59.995 33.2427 60.4483C32.7546 60.9017 32.0925 61.1564 31.4022 61.1564ZM37.6491 65.0244C38.2217 65.0244 38.6902 65.4596 38.6902 65.9914C38.6902 66.5233 38.2217 66.9584 37.6491 66.9584C37.0764 66.9584 36.6079 66.5233 36.6079 65.9914C36.6079 65.4596 37.0764 65.0244 37.6491 65.0244ZM40.7725 56.8049C40.1999 56.8049 39.7313 56.3697 39.7313 55.8379C39.7313 55.306 40.1999 54.8709 40.7725 54.8709C41.3451 54.8709 41.8136 55.306 41.8136 55.8379C41.8136 56.3697 41.3451 56.8049 40.7725 56.8049Z" fill="#00A79D"/>
</svg>
