<svg width="321" height="92" viewBox="0 0 321 92" fill="none" xmlns="http://www.w3.org/2000/svg">
<path d="M61.253 3.82476C60.9871 3.82482 60.724 3.87152 60.4802 3.96194C60.2365 4.05237 60.0172 4.18458 59.8362 4.35033C59.6552 4.51608 59.5162 4.71181 59.428 4.92532C59.3398 5.13882 59.3042 5.36553 59.3235 5.59128L58.0124 5.96612C57.8041 5.63157 57.5078 5.34249 57.1467 5.12144C56.7855 4.90039 56.3692 4.75334 55.9303 4.69178L55.9288 3.50399C56.3431 3.4096 56.7092 3.20155 56.9705 2.91208C57.2317 2.6226 57.3735 2.26786 57.3739 1.90278C57.3727 0.989945 56.506 0.253675 55.4335 0.254415C54.3609 0.255155 53.4961 0.992621 53.4973 1.90546C53.4984 2.67532 54.1195 3.31828 54.9532 3.50467L54.9547 4.69245C54.0504 4.81956 53.2886 5.304 52.876 5.96966L51.5574 5.59664C51.5639 5.55814 51.5638 5.51965 51.5638 5.48115C51.5626 4.56832 50.6958 3.83205 49.6233 3.83279C48.5508 3.83353 47.686 4.57099 47.6872 5.48383C47.6884 6.39667 48.5551 7.13294 49.6276 7.1322C50.3125 7.13172 50.9065 6.82887 51.2548 6.37771L52.5669 6.75074C52.4386 7.4602 52.6786 8.2134 53.2738 8.77939L52.3641 9.75334C52.1184 9.65453 51.8535 9.60522 51.5692 9.60542C50.4967 9.60616 49.6319 10.3436 49.6331 11.2565C49.6343 12.1693 50.501 12.9056 51.5735 12.9048C52.646 12.9041 53.5108 12.1666 53.5096 11.2538C53.5091 10.8798 53.3665 10.539 53.1207 10.2642L54.0304 9.29027C54.9096 9.70759 55.9821 9.70135 56.8538 9.28832L57.7661 10.261C57.5274 10.5361 57.3857 10.8772 57.3862 11.2511C57.3874 12.1639 58.2541 12.9002 59.3266 12.8995C60.3992 12.8987 61.264 12.1613 61.2628 11.2484C61.2616 10.3356 60.3948 9.59932 59.3223 9.60007C59.038 9.60026 58.7732 9.64993 58.5278 9.74359L57.6155 8.77089C57.9019 8.49802 58.1134 8.17437 58.2347 7.82335C58.3561 7.47233 58.3842 7.10273 58.3171 6.74127L59.6282 6.36643C59.9712 6.81711 60.5725 7.11914 61.2573 7.11867C62.3298 7.11793 63.1946 6.38047 63.1934 5.46763C63.1922 4.55479 62.3255 3.82402 61.253 3.82476ZM49.6262 6.03239C49.2708 6.03264 48.9798 5.78538 48.9794 5.48294C48.979 5.18049 49.2694 4.93284 49.6248 4.93259C49.9801 4.93235 50.2712 5.1796 50.2716 5.48205C50.272 5.78449 49.9815 6.03215 49.6262 6.03239ZM51.5721 11.805C51.2167 11.8053 50.9256 11.558 50.9252 11.2556C50.9248 10.9531 51.2153 10.7055 51.5706 10.7052C51.926 10.705 52.217 10.9522 52.2174 11.2547C52.2178 11.5571 51.9274 11.8048 51.5721 11.805ZM54.7895 1.90457C54.7891 1.60212 55.0796 1.35446 55.4349 1.35422C55.7903 1.35397 56.0813 1.60123 56.0817 1.90367C56.0821 2.20612 55.7917 2.45378 55.4363 2.45402C55.081 2.45427 54.7899 2.20701 54.7895 1.90457ZM55.4443 8.50294C55.0159 8.50323 54.6049 8.35868 54.3016 8.10107C53.9984 7.84346 53.8277 7.49391 53.8273 7.1293C53.8268 6.76469 53.9965 6.4149 54.2991 6.15687C54.6016 5.89885 55.0123 5.75373 55.4407 5.75343C55.8691 5.75313 56.2801 5.89769 56.5834 6.1553C56.8866 6.4129 57.0572 6.76246 57.0577 7.12707C57.0582 7.49168 56.8885 7.84147 56.5859 8.09949C56.2833 8.35752 55.8727 8.50264 55.4443 8.50294ZM59.3237 10.6999C59.6791 10.6996 59.9702 10.9469 59.9706 11.2493C59.971 11.5518 59.6805 11.7994 59.3252 11.7997C58.9698 11.7999 58.6788 11.5527 58.6784 11.2502C58.678 10.9478 58.9684 10.7001 59.3237 10.6999ZM61.2559 6.02437C60.9005 6.02461 60.6095 5.77736 60.6091 5.47491C60.6087 5.17247 60.8991 4.92481 61.2544 4.92456C61.6098 4.92432 61.9009 5.17157 61.9013 5.47402C61.9017 5.77647 61.6112 6.02412 61.2559 6.02437Z" fill="#FF6F61"/>
<path d="M318.298 24.8873C318.032 24.8873 317.769 24.934 317.525 25.0244C317.281 25.1149 317.062 25.2471 316.881 25.4128C316.7 25.5786 316.561 25.7743 316.473 25.9878C316.384 26.2013 316.349 26.428 316.368 26.6538L315.057 27.0286C314.849 26.6941 314.552 26.405 314.191 26.1839C313.83 25.9629 313.414 25.8158 312.975 25.7543L312.973 24.5665C313.388 24.4721 313.754 24.2641 314.015 23.9746C314.276 23.6851 314.418 23.3304 314.419 22.9653C314.417 22.0524 313.551 21.3162 312.478 21.3169C311.406 21.3177 310.541 22.0551 310.542 22.968C310.543 23.7378 311.164 24.3808 311.998 24.5672L311.999 25.755C311.095 25.8821 310.333 26.3665 309.921 27.0322L308.602 26.6591C308.608 26.6206 308.608 26.5821 308.608 26.5437C308.607 25.6308 307.74 24.8945 306.668 24.8953C305.595 24.896 304.731 25.6335 304.732 26.5463C304.733 27.4592 305.6 28.1954 306.672 28.1947C307.357 28.1942 307.951 27.8914 308.299 27.4402L309.612 27.8132C309.483 28.5227 309.723 29.2759 310.318 29.8419L309.409 30.8158C309.163 30.717 308.898 30.6677 308.614 30.6679C307.541 30.6687 306.676 31.4061 306.678 32.319C306.679 33.2318 307.546 33.9681 308.618 33.9673C309.691 33.9666 310.555 33.2291 310.554 32.3163C310.554 31.9423 310.411 31.6015 310.165 31.3267L311.075 30.3528C311.954 30.7701 313.027 30.7639 313.898 30.3508L314.811 31.3235C314.572 31.5986 314.43 31.9397 314.431 32.3136C314.432 33.2264 315.299 33.9627 316.371 33.962C317.444 33.9612 318.309 33.2238 318.307 32.3109C318.306 31.3981 317.439 30.6618 316.367 30.6626C316.083 30.6628 315.818 30.7124 315.572 30.8061L314.66 29.8334C314.947 29.5605 315.158 29.2369 315.279 28.8859C315.401 28.5348 315.429 28.1652 315.362 27.8038L316.673 27.4289C317.016 27.8796 317.617 28.1816 318.302 28.1812C319.374 28.1804 320.239 27.443 320.238 26.5301C320.237 25.6173 319.37 24.8865 318.298 24.8873ZM306.671 27.0949C306.315 27.0951 306.024 26.8479 306.024 26.5454C306.024 26.243 306.314 25.9953 306.669 25.9951C307.025 25.9948 307.316 26.2421 307.316 26.5445C307.317 26.847 307.026 27.0946 306.671 27.0949ZM308.617 32.8675C308.261 32.8678 307.97 32.6205 307.97 32.3181C307.969 32.0156 308.26 31.768 308.615 31.7677C308.971 31.7675 309.262 32.0147 309.262 32.3172C309.262 32.6196 308.972 32.8673 308.617 32.8675ZM311.834 22.9671C311.834 22.6646 312.124 22.417 312.48 22.4167C312.835 22.4165 313.126 22.6637 313.126 22.9662C313.127 23.2686 312.836 23.5163 312.481 23.5165C312.126 23.5168 311.835 23.2695 311.834 22.9671ZM312.489 29.5654C312.061 29.5657 311.65 29.4212 311.346 29.1636C311.043 28.906 310.872 28.5564 310.872 28.1918C310.871 27.8272 311.041 27.4774 311.344 27.2194C311.646 26.9613 312.057 26.8162 312.485 26.8159C312.914 26.8156 313.325 26.9602 313.628 27.2178C313.931 27.4754 314.102 27.825 314.102 28.1896C314.103 28.5542 313.933 28.904 313.631 29.162C313.328 29.42 312.917 29.5651 312.489 29.5654ZM316.368 31.7624C316.724 31.7621 317.015 32.0094 317.015 32.3118C317.016 32.6143 316.725 32.8619 316.37 32.8622C316.014 32.8624 315.723 32.6152 315.723 32.3127C315.723 32.0103 316.013 31.7626 316.368 31.7624ZM318.301 27.0869C317.945 27.0871 317.654 26.8399 317.654 26.5374C317.653 26.235 317.944 25.9873 318.299 25.9871C318.654 25.9868 318.945 26.2341 318.946 26.5365C318.946 26.839 318.656 27.0866 318.301 27.0869Z" fill="#00A79D"/>
<path d="M20.8287 82.2955C20.5627 82.2955 20.2997 82.3422 20.0559 82.4326C19.8122 82.5231 19.5929 82.6553 19.4119 82.821C19.2308 82.9868 19.0919 83.1825 19.0037 83.396C18.9155 83.6095 18.8799 83.8362 18.8992 84.062L17.5881 84.4368C17.3798 84.1023 17.0835 83.8132 16.7223 83.5921C16.3612 83.3711 15.9449 83.224 15.506 83.1625L15.5044 81.9747C15.9188 81.8803 16.2849 81.6723 16.5462 81.3828C16.8074 81.0933 16.9492 80.7386 16.9496 80.3735C16.9484 79.4606 16.0817 78.7244 15.0091 78.7251C13.9366 78.7259 13.0718 79.4633 13.073 80.3762C13.074 81.146 13.6951 81.789 14.5288 81.9754L14.5304 83.1632C13.626 83.2903 12.8643 83.7747 12.4517 84.4404L11.1331 84.0673C11.1395 84.0288 11.1395 83.9904 11.1394 83.9519C11.1382 83.039 10.2715 82.3028 9.19899 82.3035C8.12647 82.3042 7.26167 83.0417 7.26287 83.9545C7.26407 84.8674 8.13081 85.6036 9.20332 85.6029C9.88818 85.6024 10.4822 85.2996 10.8305 84.8484L12.1426 85.2214C12.0143 85.9309 12.2543 86.6841 12.8495 87.2501L11.9397 88.224C11.6941 88.1252 11.4291 88.0759 11.1449 88.0761C10.0723 88.0769 9.20754 88.8143 9.20874 89.7272C9.20994 90.64 10.0767 91.3763 11.1492 91.3755C12.2217 91.3748 13.0865 90.6373 13.0853 89.7245C13.0848 89.3506 12.9422 89.0097 12.6963 88.7349L13.6061 87.761C14.4853 88.1783 15.5578 88.1721 16.4295 87.759L17.3418 88.7317C17.1031 89.0068 16.9614 89.3479 16.9619 89.7218C16.9631 90.6346 17.8298 91.3709 18.9023 91.3702C19.9748 91.3694 20.8396 90.632 20.8384 89.7191C20.8372 88.8063 19.9705 88.07 18.898 88.0708C18.6137 88.071 18.3489 88.1206 18.1035 88.2143L17.1912 87.2416C17.4776 86.9687 17.6891 86.6451 17.8104 86.2941C17.9317 85.943 17.9599 85.5734 17.8928 85.212L19.2039 84.8371C19.5469 85.2878 20.1482 85.5898 20.833 85.5894C21.9055 85.5886 22.7703 84.8512 22.7691 83.9383C22.7679 83.0255 21.9012 82.2947 20.8287 82.2955ZM9.20188 84.5031C8.84653 84.5033 8.55546 84.2561 8.55506 83.9536C8.55467 83.6512 8.84508 83.4035 9.20043 83.4033C9.55579 83.403 9.84685 83.6503 9.84725 83.9527C9.84765 84.2552 9.55723 84.5029 9.20188 84.5031ZM11.1477 90.2757C10.7924 90.276 10.5013 90.0287 10.5009 89.7263C10.5005 89.4238 10.7909 89.1762 11.1463 89.1759C11.5017 89.1757 11.7927 89.4229 11.7931 89.7254C11.7935 90.0278 11.5031 90.2755 11.1477 90.2757ZM14.3652 80.3753C14.3648 80.0728 14.6552 79.8252 15.0106 79.8249C15.3659 79.8247 15.657 80.0719 15.6574 80.3744C15.6578 80.6768 15.3674 80.9245 15.012 80.9247C14.6567 80.925 14.3656 80.6777 14.3652 80.3753ZM15.02 86.9736C14.5916 86.9739 14.1806 86.8294 13.8773 86.5718C13.5741 86.3142 13.4034 85.9646 13.4029 85.6C13.4025 85.2354 13.5722 84.8856 13.8748 84.6276C14.1773 84.3696 14.588 84.2244 15.0164 84.2241C15.4448 84.2238 15.8558 84.3684 16.159 84.626C16.4623 84.8836 16.6329 85.2332 16.6334 85.5978C16.6339 85.9624 16.4642 86.3122 16.1616 86.5702C15.859 86.8282 15.4484 86.9733 15.02 86.9736ZM18.8994 89.1706C19.2548 89.1703 19.5459 89.4176 19.5462 89.72C19.5466 90.0225 19.2562 90.2701 18.9009 90.2704C18.5455 90.2706 18.2545 90.0234 18.2541 89.7209C18.2537 89.4185 18.5441 89.1708 18.8994 89.1706ZM20.8316 84.4951C20.4762 84.4953 20.1852 84.2481 20.1848 83.9456C20.1844 83.6432 20.4748 83.3955 20.8301 83.3953C21.1855 83.395 21.4765 83.6423 21.4769 83.9447C21.4773 84.2472 21.1869 84.4948 20.8316 84.4951Z" fill="#FF6F61"/>
<path d="M315.37 79.486C315.237 79.4861 315.105 79.5084 314.983 79.5517C314.861 79.5949 314.752 79.6581 314.661 79.7374C314.571 79.8167 314.501 79.9103 314.457 80.0124C314.413 80.1145 314.395 80.223 314.405 80.3309L313.749 80.5102C313.645 80.3502 313.497 80.212 313.317 80.1063C313.136 80.0005 312.928 79.9302 312.708 79.9008L312.708 79.3327C312.915 79.2876 313.098 79.1881 313.229 79.0496C313.359 78.9112 313.43 78.7415 313.43 78.5669C313.43 78.1303 312.996 77.7782 312.46 77.7786C311.924 77.7789 311.491 78.1317 311.492 78.5682C311.492 78.9364 311.803 79.2439 312.22 79.3331L312.221 79.9011C311.768 79.9619 311.388 80.1936 311.181 80.512L310.522 80.3336C310.525 80.3152 310.525 80.2968 310.525 80.2784C310.525 79.8418 310.091 79.4897 309.555 79.4901C309.019 79.4904 308.586 79.8431 308.587 80.2797C308.587 80.7163 309.021 81.0684 309.557 81.068C309.899 81.0678 310.196 80.9229 310.371 80.7072L311.027 80.8856C310.962 81.2249 311.082 81.5851 311.38 81.8558L310.925 82.3216C310.802 82.2743 310.67 82.2508 310.528 82.2509C309.991 82.2512 309.559 82.6039 309.56 83.0405C309.56 83.4771 309.993 83.8292 310.53 83.8288C311.066 83.8285 311.498 83.4757 311.498 83.0392C311.498 82.8603 311.426 82.6973 311.303 82.5659L311.758 82.1001C312.198 82.2997 312.734 82.2967 313.17 82.0991L313.626 82.5643C313.507 82.6959 313.436 82.859 313.436 83.0378C313.437 83.4744 313.87 83.8265 314.406 83.8262C314.943 83.8258 315.375 83.4731 315.374 83.0365C315.374 82.5999 314.941 82.2478 314.404 82.2482C314.262 82.2483 314.13 82.272 314.007 82.3168L313.551 81.8516C313.694 81.7211 313.8 81.5663 313.861 81.3985C313.921 81.2306 313.935 81.0538 313.902 80.8809L314.557 80.7017C314.729 80.9172 315.029 81.0616 315.372 81.0614C315.908 81.061 316.341 80.7083 316.34 80.2717C316.339 79.8352 315.906 79.4857 315.37 79.486ZM309.556 80.542C309.379 80.5422 309.233 80.4239 309.233 80.2793C309.233 80.1346 309.378 80.0162 309.556 80.0161C309.733 80.0159 309.879 80.1342 309.879 80.2788C309.879 80.4235 309.734 80.5419 309.556 80.542ZM310.529 83.3028C310.351 83.303 310.206 83.1847 310.206 83.0401C310.205 82.8954 310.351 82.777 310.528 82.7768C310.706 82.7767 310.852 82.895 310.852 83.0396C310.852 83.1843 310.707 83.3027 310.529 83.3028ZM312.138 78.5678C312.138 78.4231 312.283 78.3047 312.461 78.3046C312.638 78.3044 312.784 78.4227 312.784 78.5673C312.784 78.712 312.639 78.8304 312.461 78.8306C312.284 78.8307 312.138 78.7124 312.138 78.5678ZM312.465 81.7235C312.251 81.7237 312.046 81.6545 311.894 81.5313C311.742 81.4081 311.657 81.241 311.657 81.0666C311.657 80.8922 311.741 80.7249 311.893 80.6015C312.044 80.4781 312.249 80.4087 312.464 80.4085C312.678 80.4084 312.883 80.4775 313.035 80.6007C313.186 80.7239 313.272 80.8911 313.272 81.0655C313.272 81.2398 313.187 81.4071 313.036 81.5306C312.885 81.654 312.679 81.7234 312.465 81.7235ZM314.405 82.7742C314.583 82.774 314.728 82.8923 314.728 83.0369C314.729 83.1816 314.583 83.3 314.406 83.3002C314.228 83.3003 314.082 83.182 314.082 83.0374C314.082 82.8927 314.227 82.7743 314.405 82.7742ZM315.371 80.538C315.193 80.5382 315.048 80.4199 315.048 80.2753C315.048 80.1306 315.193 80.0122 315.37 80.012C315.548 80.0119 315.694 80.1302 315.694 80.2748C315.694 80.4195 315.549 80.5379 315.371 80.538Z" fill="#FF6F61"/>
<path d="M267.816 13.4392C267.683 13.4392 267.551 13.4615 267.429 13.5048C267.308 13.548 267.198 13.6113 267.107 13.6905C267.017 13.7698 266.947 13.8634 266.903 13.9655C266.859 14.0677 266.841 14.1761 266.851 14.2841L266.195 14.4633C266.091 14.3033 265.943 14.1651 265.763 14.0594C265.582 13.9537 265.374 13.8833 265.154 13.8539L265.154 13.2858C265.361 13.2407 265.544 13.1412 265.675 13.0027C265.805 12.8643 265.876 12.6946 265.876 12.52C265.876 12.0834 265.442 11.7313 264.906 11.7317C264.37 11.7321 263.937 12.0848 263.938 12.5214C263.939 12.8896 264.249 13.197 264.666 13.2862L264.667 13.8542C264.214 13.915 263.834 14.1467 263.627 14.4651L262.968 14.2867C262.971 14.2683 262.971 14.2499 262.971 14.2315C262.971 13.7949 262.537 13.4428 262.001 13.4432C261.465 13.4436 261.032 13.7963 261.033 14.2328C261.033 14.6694 261.467 15.0215 262.003 15.0212C262.345 15.0209 262.643 14.8761 262.817 14.6603L263.473 14.8387C263.409 15.178 263.529 15.5382 263.826 15.8089L263.371 16.2747C263.248 16.2275 263.116 16.2039 262.974 16.204C262.437 16.2043 262.005 16.5571 262.006 16.9936C262.006 17.4302 262.44 17.7823 262.976 17.782C263.512 17.7816 263.945 17.4289 263.944 16.9923C263.944 16.8135 263.872 16.6505 263.749 16.519L264.204 16.0532C264.644 16.2528 265.18 16.2498 265.616 16.0522L266.072 16.5174C265.953 16.649 265.882 16.8121 265.882 16.991C265.883 17.4275 266.316 17.7796 266.852 17.7793C267.389 17.7789 267.821 17.4262 267.821 16.9896C267.82 16.553 267.387 16.2009 266.85 16.2013C266.708 16.2014 266.576 16.2252 266.453 16.27L265.997 15.8048C266.14 15.6743 266.246 15.5195 266.307 15.3516C266.367 15.1837 266.381 15.0069 266.348 14.8341L267.003 14.6548C267.175 14.8703 267.475 15.0148 267.818 15.0145C268.354 15.0141 268.787 14.6614 268.786 14.2249C268.785 13.7883 268.352 13.4388 267.816 13.4392ZM262.002 14.4952C261.825 14.4953 261.679 14.377 261.679 14.2324C261.679 14.0877 261.824 13.9693 262.002 13.9692C262.179 13.9691 262.325 14.0873 262.325 14.2319C262.325 14.3766 262.18 14.495 262.002 14.4952ZM262.975 17.256C262.797 17.2561 262.652 17.1378 262.652 16.9932C262.652 16.8485 262.797 16.7301 262.974 16.73C263.152 16.7298 263.298 16.8481 263.298 16.9927C263.298 17.1374 263.153 17.2558 262.975 17.256ZM264.584 12.5209C264.584 12.3763 264.729 12.2578 264.907 12.2577C265.085 12.2576 265.23 12.3758 265.23 12.5205C265.23 12.6651 265.085 12.7836 264.908 12.7837C264.73 12.7838 264.584 12.6656 264.584 12.5209ZM264.911 15.6766C264.697 15.6768 264.492 15.6077 264.34 15.4845C264.188 15.3613 264.103 15.1941 264.103 15.0197C264.103 14.8453 264.188 14.678 264.339 14.5546C264.49 14.4312 264.695 14.3618 264.91 14.3617C265.124 14.3615 265.329 14.4306 265.481 14.5538C265.633 14.677 265.718 14.8442 265.718 15.0186C265.718 15.193 265.633 15.3603 265.482 15.4837C265.331 15.6071 265.126 15.6765 264.911 15.6766ZM266.851 16.7273C267.029 16.7272 267.174 16.8454 267.174 16.9901C267.175 17.1347 267.029 17.2532 266.852 17.2533C266.674 17.2534 266.529 17.1352 266.528 16.9905C266.528 16.8459 266.673 16.7274 266.851 16.7273ZM267.817 14.4912C267.64 14.4913 267.494 14.373 267.494 14.2284C267.494 14.0837 267.639 13.9653 267.817 13.9652C267.994 13.965 268.14 14.0833 268.14 14.2279C268.14 14.3726 267.995 14.491 267.817 14.4912Z" fill="#00A79D"/>
<path d="M6.80619 22.9675C6.67322 22.9675 6.5417 22.9899 6.41981 23.0331C6.29793 23.0764 6.1883 23.1396 6.09778 23.2189C6.00725 23.2981 5.93777 23.3918 5.89365 23.4939C5.84954 23.596 5.83175 23.7044 5.84139 23.8124L5.18584 23.9917C5.0817 23.8317 4.93356 23.6934 4.75299 23.5877C4.57241 23.482 4.36427 23.4117 4.14483 23.3822L4.14408 22.8142C4.35124 22.769 4.53432 22.6695 4.66496 22.5311C4.7956 22.3926 4.8665 22.2229 4.8667 22.0483C4.86613 21.6118 4.43278 21.2596 3.89652 21.26C3.36027 21.2604 2.92785 21.6131 2.92842 22.0497C2.9289 22.4179 3.23943 22.7254 3.65628 22.8145L3.65703 23.3826C3.20484 23.4434 2.82395 23.6751 2.61762 23.9934L1.95837 23.8151C1.96157 23.7966 1.96155 23.7782 1.96152 23.7598C1.96095 23.3232 1.5276 22.9711 0.991345 22.9715C0.455087 22.9719 0.0226669 23.3246 0.0232403 23.7612C0.0238138 24.1977 0.45716 24.5499 0.993418 24.5495C1.33585 24.5492 1.63286 24.4044 1.80702 24.1886L2.46304 24.367C2.39888 24.7063 2.51888 25.0665 2.81644 25.3372L2.36156 25.803C2.23874 25.7558 2.10625 25.7322 1.96411 25.7323C1.42786 25.7327 0.995436 26.0854 0.996009 26.522C0.996582 26.9585 1.42993 27.3106 1.96619 27.3103C2.50244 27.3099 2.93487 26.9572 2.93429 26.5206C2.93406 26.3418 2.86277 26.1788 2.73984 26.0474L3.19473 25.5815C3.63433 25.7811 4.17059 25.7781 4.60644 25.5806L5.06255 26.0458C4.9432 26.1773 4.87234 26.3404 4.87257 26.5193C4.87315 26.9559 5.30649 27.308 5.84275 27.3076C6.37901 27.3072 6.81143 26.9545 6.81086 26.5179C6.81028 26.0814 6.37694 25.7293 5.84068 25.7296C5.69854 25.7297 5.56612 25.7535 5.44342 25.7983L4.98731 25.3331C5.1305 25.2026 5.23626 25.0478 5.29694 24.8799C5.35761 24.712 5.37169 24.5353 5.33816 24.3624L5.99371 24.1831C6.16521 24.3986 6.46583 24.5431 6.80826 24.5428C7.34452 24.5425 7.77694 24.1898 7.77637 23.7532C7.77579 23.3166 7.34245 22.9671 6.80619 22.9675ZM0.992727 24.0235C0.815051 24.0236 0.669525 23.9054 0.669335 23.7607C0.669145 23.6161 0.81436 23.4976 0.992036 23.4975C1.16971 23.4974 1.31524 23.6156 1.31543 23.7603C1.31562 23.9049 1.1704 24.0234 0.992727 24.0235ZM1.9655 26.7843C1.78782 26.7844 1.64229 26.6662 1.6421 26.5215C1.64191 26.3769 1.78713 26.2584 1.9648 26.2583C2.14248 26.2582 2.28801 26.3764 2.2882 26.5211C2.28839 26.6657 2.14317 26.7842 1.9655 26.7843ZM3.57451 22.0492C3.57432 21.9046 3.71954 21.7861 3.89721 21.786C4.07489 21.7859 4.22042 21.9041 4.22061 22.0488C4.2208 22.1934 4.07558 22.3119 3.89791 22.312C3.72023 22.3121 3.5747 22.1939 3.57451 22.0492ZM3.90171 25.205C3.68751 25.2051 3.482 25.136 3.33038 25.0128C3.17876 24.8896 3.09345 24.7224 3.09322 24.548C3.093 24.3737 3.17786 24.2064 3.32916 24.083C3.48046 23.9595 3.68578 23.8901 3.89998 23.89C4.11417 23.8898 4.31968 23.959 4.4713 24.0822C4.62292 24.2054 4.70823 24.3725 4.70846 24.5469C4.70869 24.7213 4.62382 24.8886 4.47252 25.012C4.32123 25.1354 4.1159 25.2048 3.90171 25.205ZM5.84137 26.2556C6.01905 26.2555 6.16457 26.3737 6.16476 26.5184C6.16495 26.663 6.01974 26.7815 5.84206 26.7816C5.66439 26.7817 5.51886 26.6635 5.51867 26.5188C5.51848 26.3742 5.66369 26.2557 5.84137 26.2556ZM6.80758 24.0195C6.6299 24.0196 6.48437 23.9014 6.48418 23.7567C6.48399 23.6121 6.62921 23.4936 6.80688 23.4935C6.98456 23.4934 7.13009 23.6116 7.13028 23.7563C7.13047 23.9009 6.98525 24.0194 6.80758 24.0195Z" fill="#00A79D"/>
</svg>
