<svg xmlns="http://www.w3.org/2000/svg" width="32" height="32"><path d="M14.668 4.176c0-.766.598-1.395 1.332-1.395.734 0 1.332.63 1.332 1.395 0 .761-.598 1.39-1.332 1.39-.734 0-1.332-.628-1.332-1.39Zm0 0" style="stroke:none;fill-rule:nonzero;fill:#fffaeb;fill-opacity:1"/><path d="M28 9.043c-.547 0-1.094.117-1.594.348a3.998 3.998 0 0 0-1.332.98 4.2 4.2 0 0 0-.844 1.453 4.316 4.316 0 0 0-.218 1.684l-2.703.949a6.171 6.171 0 0 0-1.786-2.14 5.854 5.854 0 0 0-2.511-1.09V8.223a4.026 4.026 0 0 0 2.152-1.496c.54-.73.836-1.63.836-2.551C20 1.863 18.215 0 16 0s-4 1.863-4 4.176c0 1.945 1.281 3.574 3 4.047v3.004c-1.867.32-3.441 1.546-4.293 3.23l-2.719-.95C8 13.415 8 13.318 8 13.22c0-2.313-1.785-4.176-4-4.176s-4 1.863-4 4.176c0 2.308 1.785 4.172 4 4.172 1.414 0 2.64-.766 3.36-1.907l2.706.946c-.265 1.797.227 3.703 1.454 5.136l-1.88 2.461A3.664 3.664 0 0 0 8 23.652c-2.215 0-4 1.864-4 4.172C4 30.137 5.785 32 8 32s4-1.863 4-4.176c0-.945-.293-1.808-.8-2.504l1.878-2.46a5.782 5.782 0 0 0 5.828 0l1.88 2.46A4.315 4.315 0 0 0 20 27.824C20 30.137 21.785 32 24 32s4-1.863 4-4.176c0-2.308-1.785-4.172-4-4.172-.586 0-1.133.125-1.64.364l-1.88-2.465a6.374 6.374 0 0 0 1.282-2.395 6.55 6.55 0 0 0 .172-2.738l2.707-.945c.707 1.14 1.945 1.906 3.359 1.906 2.215 0 4-1.867 4-4.176 0-2.308-1.785-4.16-4-4.16ZM2.668 13.219c0 .765.598 1.39 1.332 1.39.734 0 1.332-.625 1.332-1.39 0-.766-.598-1.395-1.332-1.395-.734 0-1.332.63-1.332 1.395Zm4 14.605c0 .766.598 1.395 1.332 1.395.734 0 1.332-.63 1.332-1.395 0-.762-.598-1.39-1.332-1.39-.734 0-1.332.628-1.332 1.39ZM16 2.781c-.734 0-1.332.63-1.332 1.395 0 .761.598 1.39 1.332 1.39.734 0 1.332-.628 1.332-1.39 0-.766-.598-1.395-1.332-1.395Zm-2.355 17.07A3.263 3.263 0 0 0 16 20.872a3.26 3.26 0 0 0 2.355-1.02 3.56 3.56 0 0 0 .977-2.46c0-.922-.352-1.805-.977-2.457A3.263 3.263 0 0 0 16 13.914a3.26 3.26 0 0 0-2.355 1.02 3.552 3.552 0 0 0-.977 2.457c0 .922.352 1.808.977 2.46Zm11.687 7.973c0-.762-.598-1.39-1.332-1.39-.734 0-1.332.628-1.332 1.39 0 .766.598 1.395 1.332 1.395.734 0 1.332-.63 1.332-1.395Zm1.336-14.605c0 .765.598 1.39 1.332 1.39.734 0 1.332-.625 1.332-1.39 0-.766-.598-1.395-1.332-1.395-.734 0-1.332.63-1.332 1.395Zm0 0" style="stroke:none;fill-rule:evenodd;fill:#fffaeb;fill-opacity:1"/><path d="M4 14.61c-.734 0-1.332-.626-1.332-1.391 0-.766.598-1.395 1.332-1.395.734 0 1.332.63 1.332 1.395s-.598 1.39-1.332 1.39Zm4 14.609c-.734 0-1.332-.63-1.332-1.395 0-.762.598-1.39 1.332-1.39.734 0 1.332.628 1.332 1.39 0 .766-.598 1.395-1.332 1.395Zm16-2.785c.734 0 1.332.628 1.332 1.39 0 .766-.598 1.395-1.332 1.395-.734 0-1.332-.63-1.332-1.395 0-.762.598-1.39 1.332-1.39Zm4-11.824c-.734 0-1.332-.626-1.332-1.391 0-.766.598-1.395 1.332-1.395.734 0 1.332.63 1.332 1.395s-.598 1.39-1.332 1.39Zm-11.262 3.288-.097.098s-.223.23-.836-.402c-.61-.637-.387-.867-.387-.867l.059-.063a.453.453 0 0 0 .035-.574l-.262-.363c-.16-.223-.465-.25-.645-.063l-.328.34a.454.454 0 0 0-.14.348c.02.34.168 1.078.996 1.941.879.91 1.707.95 2.043.914a.449.449 0 0 0 .273-.145l.297-.304a.458.458 0 0 0-.113-.703l-.395-.227a.407.407 0 0 0-.5.07Zm0 0" style="stroke:none;fill-rule:nonzero;fill:#fffaeb;fill-opacity:1"/></svg>