<svg width="695" height="865" viewBox="0 0 695 865" fill="none" xmlns="http://www.w3.org/2000/svg">
<path d="M604.637 438.691C602.404 444.708 601.093 451.064 600.753 457.519H585V457.055C585 456.628 585.095 456.214 585.13 455.8C585.323 453.583 585.671 451.384 586.173 449.222C586.983 445.672 588.155 442.225 589.667 438.942C589.693 438.86 589.745 438.791 589.814 438.745C589.883 438.7 589.965 438.68 590.046 438.691H604.637Z" fill="#EBEBEB"/>
<path d="M604.164 480.766H589.702C589.626 480.776 589.549 480.758 589.484 480.714C589.419 480.671 589.371 480.605 589.347 480.527C587.689 476.843 586.495 472.943 585.794 468.929C585.432 466.994 585.195 465.036 585.083 463.067C585.083 462.992 585.083 462.929 585.083 462.866V462.402H585.32H600.563C600.835 462.402 600.824 462.402 600.847 462.703C600.942 464.046 601.025 465.389 601.143 466.732C601.349 468.843 601.673 470.939 602.115 473.009C602.632 475.568 603.321 478.084 604.175 480.54C604.116 480.666 604.128 480.666 604.164 480.766Z" fill="#EBEBEB"/>
<path d="M664.995 485.687L664.876 485.925C663.649 487.909 662.279 489.789 660.778 491.549C658.966 493.714 656.955 495.682 654.773 497.423C648.874 502.115 641.945 505.138 634.638 506.21L634.046 506.31H633.703L633.371 506.084L633.75 505.796C638.162 502.615 642.022 498.648 645.156 494.072C646.929 491.486 648.491 488.743 649.822 485.875C649.847 485.798 649.895 485.732 649.96 485.688C650.025 485.645 650.102 485.627 650.178 485.636H664.971L664.995 485.687Z" fill="#EBEBEB"/>
<path d="M650.521 457.519H630.209V438.69H646.068C646.138 438.681 646.208 438.699 646.267 438.741C646.326 438.782 646.368 438.844 646.388 438.916C647.847 442.456 648.931 446.157 649.621 449.95C649.983 451.921 650.244 453.911 650.403 455.912C650.438 456.427 650.486 456.966 650.521 457.519Z" fill="#EBEBEB"/>
<path d="M650.403 462.54C650.403 462.979 650.403 463.419 650.344 463.795C650.261 464.85 650.19 465.904 650.047 466.946C649.858 468.389 649.645 469.82 649.372 471.251C648.77 474.395 647.89 477.471 646.743 480.44C646.726 480.526 646.678 480.603 646.61 480.654C646.542 480.705 646.459 480.727 646.376 480.716H630.09V462.54H650.403Z" fill="#EBEBEB"/>
<path d="M625.625 438.803V457.632H605.786C605.786 457.155 605.786 456.678 605.869 456.214C605.976 455.159 606.059 454.105 606.213 453.063C606.45 451.469 606.71 449.862 607.042 448.28C607.701 445.094 608.661 441.987 609.908 439.004C609.927 438.93 609.972 438.866 610.033 438.824C610.094 438.783 610.168 438.766 610.24 438.778H625.637L625.625 438.803Z" fill="#EBEBEB"/>
<path d="M625.649 462.791C625.649 468.649 625.649 474.553 625.649 480.503V480.766H609.79C609.713 480.778 609.635 480.758 609.572 480.712C609.508 480.665 609.463 480.595 609.446 480.515C608.231 477.461 607.322 474.281 606.734 471.026C606.438 469.344 606.213 467.662 606.011 466.005C605.881 464.9 605.857 463.783 605.786 462.678C605.786 462.678 605.786 462.616 605.786 462.553H625.4C625.601 462.515 625.649 462.578 625.649 462.791Z" fill="#EBEBEB"/>
<path d="M672.077 457.645H655.425C655.087 451.148 653.775 444.75 651.54 438.691H667.067C667.143 438.683 667.219 438.702 667.283 438.745C667.348 438.789 667.397 438.853 667.423 438.929C669.206 442.657 670.497 446.628 671.26 450.728C671.668 452.912 671.941 455.122 672.077 457.343V457.645Z" fill="#EBEBEB"/>
<path d="M672.089 462.389C672.089 462.816 672.089 463.23 672.03 463.644C671.704 468.939 670.502 474.131 668.477 478.983C668.252 479.536 668.003 480.076 667.766 480.615C667.75 480.67 667.716 480.718 667.671 480.75C667.626 480.782 667.572 480.796 667.517 480.791H652.12C652.298 480.226 652.487 479.686 652.665 479.134C654.212 474.265 655.144 469.2 655.436 464.071C655.436 463.569 655.496 463.067 655.519 462.552C655.519 462.427 655.519 462.352 655.697 462.364C655.748 462.37 655.8 462.37 655.851 462.364L672.089 462.389Z" fill="#EBEBEB"/>
<path d="M664.545 433.883V433.958H649.74C649.667 433.968 649.593 433.952 649.529 433.914C649.465 433.875 649.414 433.816 649.384 433.745C647.449 429.643 645.021 425.825 642.159 422.385C640.471 420.402 638.611 418.591 636.605 416.975C635.621 416.159 634.591 415.406 633.572 414.615L633.407 414.49L633.608 414.339C633.608 414.238 633.549 414.138 633.513 414C639.729 414.762 645.716 416.932 651.071 420.362C656.425 423.793 661.02 428.404 664.545 433.883Z" fill="#EBEBEB"/>
<path d="M622.806 506.084C622.668 506.129 622.524 506.154 622.38 506.159C620.782 505.941 619.2 505.614 617.642 505.18C611.358 503.493 605.521 500.308 600.575 495.866C598.69 494.212 596.953 492.375 595.387 490.381C594.218 488.872 593.138 487.287 592.154 485.636L592.095 485.498H605.893C605.967 485.493 606.04 485.514 606.102 485.557C606.164 485.6 606.211 485.663 606.236 485.737C607.649 488.759 609.313 491.64 611.211 494.348C612.974 496.804 614.931 499.097 617.062 501.201C618.812 502.95 620.689 504.549 622.676 505.984L622.806 506.084Z" fill="#EBEBEB"/>
<path d="M622.629 414.465C622.013 414.942 621.278 415.494 620.568 416.059C618.207 418.017 616.012 420.188 614.006 422.548C611.286 425.688 608.965 429.19 607.101 432.967C606.998 433.211 606.884 433.45 606.758 433.682C606.735 433.722 606.704 433.755 606.667 433.779C606.63 433.803 606.588 433.817 606.544 433.82C606.296 433.82 606.047 433.82 605.798 433.82H592.545C595.954 428.5 600.38 423.999 605.536 420.608C610.692 417.218 616.463 415.013 622.475 414.138C622.442 414.198 622.414 414.261 622.392 414.326L622.629 414.465Z" fill="#EBEBEB"/>
<path d="M644.469 485.687C642.597 489.162 640.343 492.389 637.753 495.302C635.466 497.912 632.893 500.226 630.09 502.193V485.687H644.469Z" fill="#EBEBEB"/>
<path d="M625.625 485.687V501.879C619.888 497.707 615.16 492.159 611.827 485.687H625.625Z" fill="#EBEBEB"/>
<path d="M644.043 433.82H630.209V418.381C633.042 420.335 635.643 422.645 637.955 425.26C640.258 427.882 642.298 430.751 644.043 433.82Z" fill="#EBEBEB"/>
<path d="M625.625 418.87V433.933H612.383C615.621 427.88 620.157 422.72 625.625 418.87Z" fill="#EBEBEB"/>
<path d="M195.759 196.865C194.178 181.899 183.236 167 163.992 167C144.747 167 133.862 181.899 132.238 196.865C129.81 219.985 146.357 240.91 163.992 260C181.655 240.91 198.202 219.985 195.759 196.865ZM163.992 213.493C160.553 213.488 157.192 212.522 154.335 210.718C151.479 208.914 149.253 206.353 147.941 203.358C146.629 200.363 146.289 197.068 146.963 193.891C147.637 190.713 149.296 187.795 151.73 185.506C154.164 183.217 157.263 181.658 160.637 181.028C164.01 180.398 167.506 180.724 170.683 181.965C173.86 183.207 176.575 185.307 178.485 188.002C180.395 190.696 181.414 193.864 181.414 197.104C181.414 199.259 180.964 201.392 180.088 203.382C179.212 205.372 177.928 207.18 176.31 208.703C174.692 210.225 172.771 211.431 170.657 212.253C168.543 213.076 166.278 213.497 163.992 213.493Z" fill="#EBEBEB"/>
<path d="M398 785.178C498.655 785.178 580.252 771.887 580.252 755.491C580.252 739.095 498.655 725.804 398 725.804C297.345 725.804 215.748 739.095 215.748 755.491C215.748 771.887 297.345 785.178 398 785.178Z" fill="#EBEBEB"/>
<path d="M550.832 199.279V732.655C550.887 740.13 548.211 747.322 543.39 752.655C538.57 757.987 531.999 761.023 525.121 761.096H271.133C264.259 761.018 257.695 757.98 252.88 752.648C248.066 747.315 245.395 740.125 245.454 732.655V199.279C245.391 191.807 248.06 184.614 252.875 179.281C257.691 173.948 264.258 170.91 271.133 170.837H525.042C528.455 170.86 531.83 171.614 534.975 173.057C538.119 174.499 540.971 176.601 543.367 179.243C545.763 181.885 547.655 185.015 548.936 188.453C550.217 191.891 550.861 195.57 550.832 199.279Z" fill="#FFFAEB"/>
<path d="M534.689 226.059V715.095C534.689 730.042 524.389 742.152 511.685 742.152H284.538C271.802 742.152 261.502 730.042 261.502 715.095V226.059C261.502 195.593 271.802 188.864 284.538 188.864H330.022C332.664 188.864 334.798 192.116 334.798 196.164V197.894C334.798 207.375 339.574 207.409 345.448 207.409H450.679C456.586 207.409 461.33 207.409 461.33 197.894V196.164C461.33 192.116 463.463 188.864 466.106 188.864H511.621C524.389 188.864 534.689 198.154 534.689 226.059Z" fill="#2B2828"/>
<path d="M412.439 195.594H383.783C383.311 195.594 382.857 195.39 382.523 195.026C382.188 194.663 382 194.17 382 193.656C382.005 193.145 382.194 192.657 382.528 192.297C382.862 191.938 383.313 191.736 383.783 191.736H412.439C412.91 191.736 413.361 191.938 413.695 192.297C414.029 192.657 414.218 193.145 414.222 193.656C414.222 194.17 414.035 194.663 413.7 195.026C413.366 195.39 412.912 195.594 412.439 195.594Z" fill="white"/>
<path d="M160.152 617.144C163.438 611.925 165.214 605.78 165.257 599.483C165.257 577.109 142.356 559 114.129 559C85.9011 559 63 577.109 63 599.483C63 621.856 85.9011 639.991 114.129 639.991C126.679 640.21 138.989 636.296 149.401 628.778L167 633.569L160.152 617.144Z" fill="#EBEBEB"/>
<path d="M97.6666 599.5C97.6666 600.663 97.2854 601.8 96.5712 602.766C95.857 603.733 94.8418 604.487 93.6541 604.932C92.4663 605.377 91.1594 605.493 89.8985 605.266C88.6377 605.039 87.4795 604.479 86.5704 603.657C85.6614 602.835 85.0423 601.787 84.7915 600.647C84.5407 599.507 84.6694 598.325 85.1614 597.25C85.6534 596.176 86.4865 595.258 87.5554 594.612C88.6243 593.966 89.881 593.621 91.1666 593.621C92.8905 593.621 94.5438 594.241 95.7628 595.343C96.9818 596.446 97.6666 597.941 97.6666 599.5Z" fill="#2B2828"/>
<path d="M145.333 599.5C145.333 600.663 144.952 601.8 144.238 602.766C143.524 603.733 142.509 604.487 141.321 604.932C140.133 605.377 138.826 605.493 137.565 605.266C136.304 605.039 135.146 604.479 134.237 603.657C133.328 602.835 132.709 601.787 132.458 600.647C132.207 599.507 132.336 598.325 132.828 597.25C133.32 596.176 134.153 595.258 135.222 594.612C136.291 593.966 137.548 593.621 138.833 593.621C140.557 593.621 142.211 594.241 143.43 595.343C144.649 596.446 145.333 597.941 145.333 599.5Z" fill="#2B2828"/>
<path d="M121.5 599.5C121.5 600.663 121.119 601.8 120.405 602.766C119.69 603.733 118.675 604.487 117.487 604.932C116.3 605.377 114.993 605.493 113.732 605.266C112.471 605.039 111.313 604.479 110.404 603.657C109.495 602.835 108.876 601.787 108.625 600.647C108.374 599.507 108.503 598.325 108.995 597.25C109.487 596.176 110.32 595.258 111.389 594.612C112.458 593.966 113.714 593.621 115 593.621C116.724 593.621 118.377 594.241 119.596 595.343C120.815 596.446 121.5 597.941 121.5 599.5Z" fill="#2B2828"/>
<path d="M394.667 415.435C394.667 413.522 396.167 411.957 398 411.957C399.833 411.957 401.333 413.522 401.333 415.435C401.333 417.348 399.833 418.913 398 418.913C396.167 418.913 394.667 417.348 394.667 415.435Z" fill="#FFFAEB"/>
<path fill-rule="evenodd" clip-rule="evenodd" d="M428 427.609C426.628 427.608 425.27 427.902 424.012 428.473C422.754 429.044 421.622 429.879 420.687 430.927C419.752 431.974 419.033 433.212 418.577 434.562C418.12 435.912 417.935 437.346 418.033 438.774L411.267 441.139C410.194 439.022 408.668 437.192 406.806 435.793C404.944 434.393 402.797 433.461 400.533 433.07V425.557C402.672 424.961 404.562 423.647 405.912 421.817C407.262 419.987 407.996 417.744 408 415.435C408 409.661 403.533 405 398 405C392.467 405 388 409.661 388 415.435C388 420.304 391.2 424.374 395.5 425.557V433.07C390.833 433.87 386.9 436.93 384.767 441.139L377.967 438.774C378 438.53 378 438.287 378 438.043C378 432.27 373.533 427.609 368 427.609C362.467 427.609 358 432.27 358 438.043C358 443.817 362.467 448.478 368 448.478C371.533 448.478 374.6 446.565 376.4 443.713L383.167 446.078C382.5 450.565 383.733 455.33 386.8 458.913L382.1 465.07C380.833 464.443 379.467 464.13 378 464.13C372.467 464.13 368 468.791 368 474.565C368 480.339 372.467 485 378 485C383.533 485 388 480.339 388 474.565C388 472.2 387.267 470.043 386 468.304L390.7 462.148C395.233 464.791 400.767 464.757 405.267 462.148L409.967 468.304C408.733 470.043 408 472.2 408 474.565C408 480.339 412.467 485 418 485C423.533 485 428 480.339 428 474.565C428 468.791 423.533 464.13 418 464.13C416.533 464.13 415.167 464.443 413.9 465.035L409.2 458.878C410.679 457.154 411.773 455.107 412.401 452.888C413.029 450.668 413.177 448.33 412.833 446.043L419.6 443.678C421.367 446.53 424.467 448.443 428 448.443C433.533 448.443 438 443.783 438 438.009C438 432.235 433.533 427.609 428 427.609ZM364.667 438.043C364.667 439.957 366.167 441.522 368 441.522C369.833 441.522 371.333 439.957 371.333 438.043C371.333 436.13 369.833 434.565 368 434.565C366.167 434.565 364.667 436.13 364.667 438.043ZM374.667 474.565C374.667 476.478 376.167 478.043 378 478.043C379.833 478.043 381.333 476.478 381.333 474.565C381.333 472.652 379.833 471.087 378 471.087C376.167 471.087 374.667 472.652 374.667 474.565ZM398 411.957C396.167 411.957 394.667 413.522 394.667 415.435C394.667 417.348 396.167 418.913 398 418.913C399.833 418.913 401.333 417.348 401.333 415.435C401.333 413.522 399.833 411.957 398 411.957ZM392.107 454.627C393.67 456.258 395.79 457.174 398 457.174C400.21 457.174 402.33 456.258 403.893 454.627C405.455 452.996 406.333 450.784 406.333 448.478C406.333 446.172 405.455 443.96 403.893 442.33C402.33 440.699 400.21 439.783 398 439.783C395.79 439.783 393.67 440.699 392.107 442.33C390.545 443.96 389.667 446.172 389.667 448.478C389.667 450.784 390.545 452.996 392.107 454.627ZM421.333 474.565C421.333 472.652 419.833 471.087 418 471.087C416.167 471.087 414.667 472.652 414.667 474.565C414.667 476.478 416.167 478.043 418 478.043C419.833 478.043 421.333 476.478 421.333 474.565ZM424.667 438.043C424.667 439.957 426.167 441.522 428 441.522C429.833 441.522 431.333 439.957 431.333 438.043C431.333 436.13 429.833 434.565 428 434.565C426.167 434.565 424.667 436.13 424.667 438.043Z" fill="#FFFAEB"/>
<path d="M368 441.522C366.167 441.522 364.667 439.957 364.667 438.043C364.667 436.13 366.167 434.565 368 434.565C369.833 434.565 371.333 436.13 371.333 438.043C371.333 439.957 369.833 441.522 368 441.522Z" fill="#FFFAEB"/>
<path d="M378 478.043C376.167 478.043 374.667 476.478 374.667 474.565C374.667 472.652 376.167 471.087 378 471.087C379.833 471.087 381.333 472.652 381.333 474.565C381.333 476.478 379.833 478.043 378 478.043Z" fill="#FFFAEB"/>
<path d="M418 471.087C419.833 471.087 421.333 472.652 421.333 474.565C421.333 476.478 419.833 478.043 418 478.043C416.167 478.043 414.667 476.478 414.667 474.565C414.667 472.652 416.167 471.087 418 471.087Z" fill="#FFFAEB"/>
<path d="M428 441.522C426.167 441.522 424.667 439.957 424.667 438.043C424.667 436.13 426.167 434.565 428 434.565C429.833 434.565 431.333 436.13 431.333 438.043C431.333 439.957 429.833 441.522 428 441.522Z" fill="#FFFAEB"/>
<path d="M399.841 449.745L399.606 449.989C399.606 449.989 399.045 450.571 397.515 448.983C395.985 447.395 396.545 446.814 396.545 446.814L396.694 446.66C397.06 446.28 397.094 445.671 396.775 445.226L396.122 444.315C395.727 443.765 394.964 443.692 394.511 444.162L393.698 445.005C393.474 445.238 393.323 445.54 393.341 445.875C393.388 446.732 393.76 448.577 395.833 450.728C398.032 453.01 400.095 453.101 400.939 453.019C401.206 452.993 401.438 452.851 401.625 452.657L402.361 451.894C402.857 451.378 402.717 450.495 402.082 450.135L401.093 449.573C400.676 449.337 400.167 449.406 399.841 449.745Z" fill="#FFFAEB"/>
<path d="M328.744 515.36C328.744 514.32 328.928 513.304 329.296 512.312C329.68 511.304 330.232 510.392 330.952 509.576C331.672 508.744 332.552 508.088 333.592 507.608C334.632 507.112 335.816 506.864 337.144 506.864C338.712 506.864 340.064 507.208 341.2 507.896C342.352 508.584 343.208 509.48 343.768 510.584L341.224 512.336C340.936 511.696 340.56 511.192 340.096 510.824C339.632 510.44 339.136 510.176 338.608 510.032C338.08 509.872 337.56 509.792 337.048 509.792C336.216 509.792 335.488 509.96 334.864 510.296C334.256 510.632 333.744 511.072 333.328 511.616C332.912 512.16 332.6 512.768 332.392 513.44C332.2 514.112 332.104 514.784 332.104 515.456C332.104 516.208 332.224 516.936 332.464 517.64C332.704 518.328 333.04 518.944 333.472 519.488C333.92 520.016 334.448 520.44 335.056 520.76C335.68 521.064 336.36 521.216 337.096 521.216C337.624 521.216 338.16 521.128 338.704 520.952C339.248 520.776 339.752 520.496 340.216 520.112C340.68 519.728 341.04 519.232 341.296 518.624L344.008 520.184C343.672 521.032 343.12 521.752 342.352 522.344C341.6 522.936 340.752 523.384 339.808 523.688C338.864 523.992 337.928 524.144 337 524.144C335.784 524.144 334.672 523.896 333.664 523.4C332.656 522.888 331.784 522.216 331.048 521.384C330.328 520.536 329.76 519.592 329.344 518.552C328.944 517.496 328.744 516.432 328.744 515.36ZM351.678 524.24C350.654 524.24 349.734 524.072 348.918 523.736C348.102 523.384 347.406 522.904 346.83 522.296C346.27 521.688 345.838 520.992 345.534 520.208C345.23 519.424 345.078 518.6 345.078 517.736C345.078 516.856 345.23 516.024 345.534 515.24C345.838 514.456 346.27 513.76 346.83 513.152C347.406 512.544 348.102 512.072 348.918 511.736C349.734 511.384 350.654 511.208 351.678 511.208C352.702 511.208 353.614 511.384 354.414 511.736C355.23 512.072 355.926 512.544 356.502 513.152C357.078 513.76 357.51 514.456 357.798 515.24C358.102 516.024 358.254 516.856 358.254 517.736C358.254 518.6 358.102 519.424 357.798 520.208C357.51 520.992 357.078 521.688 356.502 522.296C355.942 522.904 355.254 523.384 354.438 523.736C353.622 524.072 352.702 524.24 351.678 524.24ZM348.39 517.736C348.39 518.472 348.534 519.128 348.822 519.704C349.11 520.264 349.502 520.704 349.998 521.024C350.494 521.344 351.054 521.504 351.678 521.504C352.286 521.504 352.838 521.344 353.334 521.024C353.83 520.688 354.222 520.24 354.51 519.68C354.814 519.104 354.966 518.448 354.966 517.712C354.966 516.992 354.814 516.344 354.51 515.768C354.222 515.192 353.83 514.744 353.334 514.424C352.838 514.104 352.286 513.944 351.678 513.944C351.054 513.944 350.494 514.112 349.998 514.448C349.502 514.768 349.11 515.216 348.822 515.792C348.534 516.352 348.39 517 348.39 517.736ZM372.113 524H368.897V516.944C368.897 515.936 368.721 515.2 368.369 514.736C368.017 514.272 367.529 514.04 366.905 514.04C366.473 514.04 366.033 514.152 365.585 514.376C365.153 514.6 364.761 514.912 364.409 515.312C364.057 515.696 363.801 516.144 363.641 516.656V524H360.425V511.424H363.329V513.752C363.649 513.208 364.057 512.752 364.553 512.384C365.049 512 365.617 511.712 366.257 511.52C366.913 511.312 367.601 511.208 368.321 511.208C369.105 511.208 369.745 511.352 370.241 511.64C370.753 511.912 371.137 512.288 371.393 512.768C371.665 513.232 371.849 513.76 371.945 514.352C372.057 514.944 372.113 515.544 372.113 516.152V524ZM382.375 523.352C382.103 523.464 381.775 523.592 381.391 523.736C381.007 523.88 380.591 523.992 380.143 524.072C379.711 524.168 379.271 524.216 378.823 524.216C378.231 524.216 377.687 524.112 377.191 523.904C376.695 523.696 376.295 523.368 375.991 522.92C375.703 522.456 375.559 521.856 375.559 521.12V513.896H373.903V511.424H375.559V507.344H378.775V511.424H381.415V513.896H378.775V520.04C378.791 520.472 378.911 520.784 379.135 520.976C379.359 521.168 379.639 521.264 379.975 521.264C380.311 521.264 380.639 521.208 380.959 521.096C381.279 520.984 381.535 520.888 381.727 520.808L382.375 523.352ZM383.186 520.28C383.186 519.464 383.41 518.752 383.858 518.144C384.322 517.52 384.962 517.04 385.778 516.704C386.594 516.368 387.53 516.2 388.586 516.2C389.114 516.2 389.65 516.24 390.194 516.32C390.738 516.4 391.21 516.528 391.61 516.704V516.032C391.61 515.232 391.37 514.616 390.89 514.184C390.426 513.752 389.73 513.536 388.802 513.536C388.114 513.536 387.458 513.656 386.834 513.896C386.21 514.136 385.554 514.488 384.866 514.952L383.834 512.84C384.666 512.296 385.514 511.888 386.378 511.616C387.258 511.344 388.178 511.208 389.138 511.208C390.93 511.208 392.322 511.656 393.314 512.552C394.322 513.448 394.826 514.728 394.826 516.392V520.4C394.826 520.736 394.882 520.976 394.994 521.12C395.122 521.264 395.322 521.352 395.594 521.384V524C395.306 524.048 395.042 524.088 394.802 524.12C394.578 524.152 394.386 524.168 394.226 524.168C393.586 524.168 393.098 524.024 392.762 523.736C392.442 523.448 392.242 523.096 392.162 522.68L392.09 522.032C391.546 522.736 390.866 523.28 390.05 523.664C389.234 524.048 388.402 524.24 387.554 524.24C386.722 524.24 385.97 524.072 385.298 523.736C384.642 523.384 384.122 522.912 383.738 522.32C383.37 521.712 383.186 521.032 383.186 520.28ZM391.01 520.928C391.186 520.736 391.33 520.544 391.442 520.352C391.554 520.16 391.61 519.984 391.61 519.824V518.552C391.226 518.392 390.81 518.272 390.362 518.192C389.914 518.096 389.49 518.048 389.09 518.048C388.258 518.048 387.57 518.232 387.026 518.6C386.498 518.952 386.234 519.424 386.234 520.016C386.234 520.336 386.322 520.64 386.498 520.928C386.674 521.216 386.93 521.448 387.266 521.624C387.602 521.8 388.002 521.888 388.466 521.888C388.946 521.888 389.418 521.8 389.882 521.624C390.346 521.432 390.722 521.2 391.01 520.928ZM403.687 524.24C402.663 524.24 401.743 524.072 400.927 523.736C400.111 523.384 399.415 522.904 398.839 522.296C398.263 521.672 397.815 520.968 397.495 520.184C397.191 519.4 397.039 518.576 397.039 517.712C397.039 516.528 397.303 515.448 397.831 514.472C398.375 513.48 399.143 512.688 400.135 512.096C401.127 511.504 402.303 511.208 403.663 511.208C405.023 511.208 406.191 511.504 407.167 512.096C408.143 512.688 408.871 513.464 409.351 514.424L406.207 515.384C405.935 514.92 405.575 514.568 405.127 514.328C404.679 514.072 404.183 513.944 403.639 513.944C403.031 513.944 402.471 514.104 401.959 514.424C401.463 514.728 401.071 515.168 400.783 515.744C400.495 516.304 400.351 516.96 400.351 517.712C400.351 518.448 400.495 519.104 400.783 519.68C401.087 520.24 401.487 520.688 401.983 521.024C402.479 521.344 403.031 521.504 403.639 521.504C404.023 521.504 404.383 521.44 404.719 521.312C405.071 521.184 405.383 521.008 405.655 520.784C405.927 520.56 406.127 520.304 406.255 520.016L409.399 520.976C409.111 521.6 408.687 522.16 408.127 522.656C407.583 523.152 406.935 523.544 406.183 523.832C405.447 524.104 404.615 524.24 403.687 524.24ZM418.914 523.352C418.642 523.464 418.314 523.592 417.93 523.736C417.546 523.88 417.13 523.992 416.682 524.072C416.25 524.168 415.81 524.216 415.362 524.216C414.77 524.216 414.226 524.112 413.73 523.904C413.234 523.696 412.834 523.368 412.53 522.92C412.242 522.456 412.098 521.856 412.098 521.12V513.896H410.442V511.424H412.098V507.344H415.314V511.424H417.954V513.896H415.314V520.04C415.33 520.472 415.45 520.784 415.674 520.976C415.898 521.168 416.178 521.264 416.514 521.264C416.85 521.264 417.178 521.208 417.498 521.096C417.818 520.984 418.074 520.888 418.266 520.808L418.914 523.352ZM435.229 506.96V524H431.941V516.728H424.213V524H420.901V506.96H424.213V513.848H431.941V506.96H435.229ZM438.352 519.296V511.424H441.568V518.6C441.568 519.56 441.744 520.288 442.096 520.784C442.448 521.264 442.968 521.504 443.656 521.504C444.072 521.504 444.48 521.424 444.88 521.264C445.296 521.088 445.672 520.832 446.008 520.496C446.36 520.16 446.656 519.736 446.896 519.224V511.424H450.112V520.4C450.112 520.736 450.168 520.976 450.28 521.12C450.408 521.264 450.608 521.352 450.88 521.384V524C450.56 524.048 450.288 524.08 450.064 524.096C449.856 524.128 449.664 524.144 449.488 524.144C448.912 524.144 448.44 524.016 448.072 523.76C447.72 523.488 447.512 523.12 447.448 522.656L447.376 521.648C446.816 522.496 446.096 523.144 445.216 523.592C444.336 524.024 443.368 524.24 442.312 524.24C441.016 524.24 440.032 523.824 439.36 522.992C438.688 522.144 438.352 520.912 438.352 519.296ZM460.46 524.24C459.5 524.24 458.644 524.024 457.892 523.592C457.14 523.16 456.548 522.568 456.116 521.816V524H453.308V506.48H456.524V513.632C456.972 512.88 457.556 512.288 458.276 511.856C459.012 511.424 459.868 511.208 460.844 511.208C461.66 511.208 462.404 511.384 463.076 511.736C463.748 512.072 464.324 512.544 464.804 513.152C465.3 513.76 465.676 514.456 465.932 515.24C466.204 516.024 466.34 516.864 466.34 517.76C466.34 518.656 466.188 519.496 465.884 520.28C465.596 521.064 465.188 521.76 464.66 522.368C464.132 522.96 463.508 523.424 462.788 523.76C462.084 524.08 461.308 524.24 460.46 524.24ZM459.572 521.504C460.084 521.504 460.548 521.408 460.964 521.216C461.396 521.008 461.764 520.736 462.068 520.4C462.388 520.064 462.628 519.672 462.788 519.224C462.964 518.76 463.052 518.28 463.052 517.784C463.052 517.096 462.908 516.464 462.62 515.888C462.348 515.296 461.964 514.824 461.468 514.472C460.988 514.12 460.42 513.944 459.764 513.944C459.3 513.944 458.852 514.056 458.42 514.28C458.004 514.488 457.628 514.776 457.292 515.144C456.972 515.512 456.716 515.928 456.524 516.392V519.392C456.62 519.712 456.772 520 456.98 520.256C457.204 520.512 457.46 520.736 457.748 520.928C458.036 521.104 458.332 521.248 458.636 521.36C458.956 521.456 459.268 521.504 459.572 521.504Z" fill="#FFFAEB"/>
<g filter="url(#filter0_f_57_48)">
<path d="M496.177 351.944C496.032 351.407 495.749 350.903 495.344 350.462C494.939 350.021 494.422 349.653 493.824 349.382C493.226 349.11 492.561 348.94 491.87 348.882C491.179 348.825 490.476 348.881 489.807 349.047L487.965 346.613C488.86 346.004 489.57 345.243 490.039 344.389C490.509 343.536 490.726 342.613 490.673 341.692L494.25 341.019C494.76 341.801 495.585 342.423 496.599 342.787C497.613 343.151 498.759 343.236 499.859 343.031C502.609 342.513 504.356 340.349 503.771 338.185C503.186 336.021 500.494 334.692 497.745 335.21C495.426 335.646 493.826 337.263 493.718 339.05L490.141 339.724C489.266 337.97 487.393 336.707 485.163 336.25L485.57 333.378C485.69 333.37 485.806 333.348 485.922 333.326C488.671 332.808 490.418 330.644 489.833 328.48C489.248 326.316 486.556 324.987 483.807 325.504C481.058 326.022 479.311 328.187 479.896 330.351C480.269 331.733 481.505 332.76 483.053 333.209L482.642 336.067C480.435 336.208 478.297 337.118 476.915 338.638L473.486 337.352C473.651 336.801 473.655 336.238 473.5 335.665C472.915 333.501 470.223 332.172 467.474 332.69C464.725 333.207 462.978 335.372 463.563 337.536C464.148 339.7 466.839 341.029 469.589 340.511C470.715 340.299 471.664 339.819 472.358 339.168L475.787 340.454C475.008 342.463 475.609 344.624 477.327 346.15L474.893 348.54C473.934 348.214 472.83 348.12 471.703 348.332C468.954 348.85 467.207 351.015 467.792 353.179C468.377 355.343 471.069 356.672 473.818 356.154C476.567 355.636 478.314 353.472 477.729 351.308C477.574 350.734 477.281 350.228 476.865 349.785L479.3 347.395C480.278 347.819 481.367 348.063 482.491 348.11C483.614 348.157 484.743 348.005 485.796 347.666L487.637 350.1C486.466 351.046 485.883 352.43 486.256 353.812C486.841 355.976 489.533 357.305 492.282 356.787C495.032 356.269 496.762 354.108 496.177 351.944ZM483.208 329.727C483.014 329.01 483.601 328.283 484.512 328.112C485.423 327.94 486.327 328.386 486.521 329.103C486.715 329.82 486.128 330.547 485.217 330.719C484.306 330.89 483.402 330.444 483.208 329.727ZM466.875 336.912C466.681 336.195 467.268 335.468 468.179 335.297C469.09 335.125 469.994 335.571 470.188 336.288C470.381 337.005 469.795 337.732 468.884 337.904C467.973 338.075 467.069 337.629 466.875 336.912ZM498.449 337.817C499.36 337.645 500.264 338.092 500.458 338.809C500.652 339.526 500.065 340.252 499.154 340.424C498.243 340.595 497.34 340.149 497.146 339.432C496.952 338.715 497.539 337.988 498.449 337.817ZM478.927 342.863C478.694 341.998 478.906 341.087 479.517 340.33C480.128 339.572 481.089 339.031 482.187 338.824C483.285 338.617 484.431 338.762 485.373 339.227C486.314 339.692 486.975 340.439 487.208 341.303C487.442 342.168 487.23 343.079 486.619 343.836C486.007 344.593 485.047 345.135 483.949 345.342C482.851 345.549 481.705 345.404 480.763 344.939C479.821 344.474 479.161 343.727 478.927 342.863ZM474.417 351.931C474.611 352.648 474.024 353.375 473.113 353.547C472.202 353.718 471.298 353.272 471.105 352.555C470.911 351.838 471.497 351.111 472.408 350.94C473.319 350.768 474.223 351.214 474.417 351.931ZM489.552 353.191C489.358 352.474 489.945 351.747 490.856 351.576C491.767 351.404 492.671 351.851 492.865 352.568C493.059 353.285 492.472 354.012 491.561 354.183C490.65 354.355 489.746 353.908 489.552 353.191Z" fill="#FF6F61"/>
</g>
<g filter="url(#filter1_f_57_48)">
<path d="M322.729 328.434C322.584 327.898 322.301 327.393 321.896 326.952C321.491 326.511 320.974 326.144 320.376 325.872C319.778 325.6 319.113 325.43 318.422 325.373C317.731 325.315 317.028 325.371 316.359 325.538L314.517 323.103C315.412 322.494 316.122 321.733 316.591 320.88C317.061 320.026 317.278 319.103 317.225 318.182L320.802 317.509C321.312 318.292 322.137 318.913 323.151 319.277C324.165 319.641 325.311 319.727 326.411 319.521C329.16 319.004 330.908 316.839 330.322 314.675C329.737 312.511 327.046 311.182 324.296 311.7C321.978 312.136 320.378 313.753 320.27 315.54L316.692 316.214C315.818 314.461 313.945 313.197 311.715 312.74L312.122 309.869C312.242 309.86 312.358 309.838 312.474 309.816C315.223 309.299 316.97 307.134 316.385 304.97C315.8 302.806 313.108 301.477 310.359 301.995C307.61 302.512 305.863 304.677 306.448 306.841C306.821 308.223 308.056 309.251 309.605 309.699L309.194 312.557C306.987 312.699 304.848 313.608 303.467 315.129L300.038 313.843C300.202 313.291 300.207 312.729 300.052 312.155C299.467 309.991 296.775 308.662 294.026 309.18C291.277 309.697 289.53 311.862 290.115 314.026C290.7 316.19 293.391 317.519 296.141 317.001C297.267 316.789 298.216 316.309 298.91 315.658L302.339 316.944C301.559 318.954 302.161 321.115 303.879 322.64L301.444 325.03C300.486 324.704 299.382 324.611 298.255 324.823C295.506 325.34 293.759 327.505 294.344 329.669C294.929 331.833 297.621 333.162 300.37 332.644C303.119 332.126 304.866 329.962 304.281 327.798C304.126 327.224 303.833 326.718 303.417 326.276L305.852 323.886C306.829 324.309 307.919 324.554 309.043 324.6C310.166 324.647 311.295 324.495 312.347 324.156L314.189 326.59C313.018 327.537 312.435 328.92 312.808 330.302C313.393 332.466 316.085 333.795 318.834 333.277C321.584 332.76 323.314 330.598 322.729 328.434ZM309.76 306.217C309.566 305.5 310.153 304.773 311.064 304.602C311.975 304.43 312.879 304.877 313.073 305.594C313.266 306.311 312.68 307.038 311.769 307.209C310.858 307.381 309.954 306.934 309.76 306.217ZM293.427 313.402C293.233 312.685 293.82 311.958 294.731 311.787C295.642 311.615 296.546 312.062 296.74 312.779C296.933 313.496 296.347 314.223 295.436 314.394C294.525 314.566 293.621 314.119 293.427 313.402ZM325.001 314.307C325.912 314.136 326.816 314.582 327.01 315.299C327.204 316.016 326.617 316.743 325.706 316.914C324.795 317.086 323.891 316.639 323.698 315.922C323.504 315.206 324.09 314.479 325.001 314.307ZM305.479 319.353C305.245 318.488 305.458 317.577 306.069 316.82C306.68 316.063 307.64 315.521 308.739 315.314C309.837 315.107 310.983 315.252 311.924 315.717C312.866 316.182 313.527 316.929 313.76 317.794C313.994 318.658 313.782 319.569 313.171 320.326C312.559 321.084 311.599 321.625 310.501 321.832C309.403 322.039 308.257 321.894 307.315 321.429C306.373 320.964 305.713 320.217 305.479 319.353ZM300.969 328.422C301.163 329.139 300.576 329.865 299.665 330.037C298.754 330.208 297.85 329.762 297.656 329.045C297.463 328.328 298.049 327.601 298.96 327.43C299.871 327.258 300.775 327.705 300.969 328.422ZM316.104 329.682C315.91 328.965 316.497 328.238 317.408 328.066C318.319 327.895 319.223 328.341 319.417 329.058C319.61 329.775 319.024 330.502 318.113 330.673C317.202 330.845 316.298 330.399 316.104 329.682Z" fill="#FF6F61"/>
</g>
<g filter="url(#filter2_f_57_48)">
<path d="M448.722 302.657C448.65 302.389 448.511 302.136 448.314 301.914C448.118 301.693 447.868 301.507 447.58 301.369C447.292 301.231 446.972 301.144 446.64 301.113C446.309 301.081 445.972 301.106 445.652 301.187L444.756 299.965C445.181 299.665 445.517 299.288 445.738 298.864C445.958 298.44 446.057 297.98 446.026 297.52L447.737 297.198C447.986 297.591 448.385 297.904 448.873 298.09C449.361 298.275 449.911 298.322 450.437 298.224C451.752 297.977 452.577 296.903 452.285 295.821C451.992 294.739 450.695 294.066 449.38 294.314C448.271 294.522 447.513 295.323 447.471 296.214L445.76 296.536C445.331 295.658 444.426 295.02 443.355 294.783L443.534 293.352C443.591 293.348 443.647 293.338 443.702 293.328C445.017 293.08 445.842 292.007 445.55 290.925C445.257 289.843 443.96 289.169 442.645 289.417C441.33 289.664 440.505 290.738 440.797 291.82C440.984 292.511 441.582 293.028 442.327 293.258L442.146 294.682C441.089 294.744 440.069 295.19 439.415 295.943L437.764 295.288C437.84 295.014 437.839 294.733 437.761 294.446C437.469 293.364 436.171 292.691 434.856 292.938C433.542 293.186 432.716 294.259 433.009 295.341C433.301 296.423 434.599 297.096 435.914 296.849C436.452 296.748 436.905 296.512 437.234 296.189L438.884 296.844C438.522 297.844 438.822 298.925 439.654 299.693L438.501 300.876C438.04 300.709 437.51 300.658 436.971 300.76C435.656 301.007 434.831 302.08 435.123 303.162C435.416 304.244 436.714 304.918 438.028 304.67C439.343 304.423 440.169 303.35 439.876 302.268C439.799 301.981 439.655 301.727 439.453 301.505L440.607 300.322C441.078 300.537 441.602 300.663 442.14 300.691C442.679 300.718 443.219 300.647 443.722 300.482L444.618 301.703C444.062 302.171 443.79 302.859 443.977 303.55C444.27 304.632 445.567 305.306 446.882 305.058C448.197 304.811 449.014 303.739 448.722 302.657ZM442.381 291.521C442.285 291.163 442.562 290.802 442.997 290.72C443.433 290.638 443.869 290.865 443.966 291.223C444.063 291.582 443.785 291.942 443.35 292.024C442.914 292.106 442.478 291.88 442.381 291.521ZM434.593 295.043C434.496 294.684 434.773 294.324 435.209 294.242C435.645 294.16 436.08 294.386 436.177 294.744C436.274 295.103 435.997 295.463 435.561 295.545C435.126 295.627 434.69 295.401 434.593 295.043ZM449.732 295.617C450.168 295.535 450.603 295.761 450.7 296.12C450.797 296.478 450.52 296.839 450.084 296.921C449.649 297.003 449.213 296.776 449.116 296.418C449.019 296.06 449.296 295.699 449.732 295.617ZM440.403 298.059C440.286 297.626 440.383 297.173 440.671 296.797C440.96 296.422 441.417 296.155 441.943 296.056C442.468 295.957 443.018 296.034 443.472 296.27C443.926 296.506 444.247 296.881 444.364 297.313C444.48 297.745 444.384 298.199 444.095 298.574C443.806 298.95 443.349 299.216 442.824 299.315C442.299 299.414 441.748 299.337 441.295 299.102C440.841 298.866 440.52 298.491 440.403 298.059ZM438.292 302.566C438.389 302.924 438.112 303.285 437.676 303.367C437.24 303.449 436.805 303.223 436.708 302.864C436.611 302.506 436.888 302.145 437.324 302.063C437.759 301.981 438.195 302.207 438.292 302.566ZM445.553 303.254C445.457 302.895 445.734 302.535 446.169 302.453C446.605 302.371 447.041 302.597 447.138 302.955C447.235 303.314 446.957 303.674 446.522 303.756C446.086 303.838 445.65 303.612 445.553 303.254Z" fill="#00A79D"/>
</g>
<g filter="url(#filter3_f_57_48)">
<path d="M371.313 687.317C371.524 686.85 371.617 686.347 371.584 685.84C371.551 685.333 371.394 684.833 371.122 684.372C370.85 683.91 370.47 683.496 370.004 683.156C369.538 682.816 368.998 682.557 368.416 682.396L368.519 679.766C369.525 679.69 370.486 679.419 371.329 678.976C372.172 678.533 372.872 677.928 373.376 677.21L376.359 678.236C376.266 679.046 376.496 679.87 377.015 680.58C377.533 681.29 378.311 681.846 379.227 682.163C381.519 682.951 384.058 682.066 384.91 680.18C385.763 678.294 384.6 676.135 382.308 675.346C380.375 674.681 378.266 675.216 377.134 676.52L374.152 675.494C374.553 673.794 373.944 672.036 372.602 670.734L374.588 668.739C374.68 668.784 374.777 668.817 374.873 668.85C377.165 669.639 379.704 668.753 380.556 666.867C381.409 664.981 380.247 662.822 377.954 662.034C375.662 661.245 373.124 662.131 372.271 664.017C371.727 665.221 372.014 666.528 372.869 667.531L370.887 669.514C369.209 668.674 367.127 668.444 365.232 669L363.512 666.557C363.956 666.211 364.291 665.788 364.517 665.288C365.369 663.402 364.207 661.243 361.915 660.455C359.623 659.666 357.084 660.552 356.232 662.438C355.379 664.324 356.541 666.483 358.834 667.271C359.773 667.594 360.742 667.639 361.627 667.445L363.347 669.887C361.599 671.072 360.761 672.962 361.103 674.852L357.935 675.614C357.435 674.956 356.691 674.411 355.752 674.088C353.46 673.3 350.922 674.186 350.069 676.072C349.217 677.958 350.379 680.117 352.671 680.905C354.963 681.694 357.502 680.808 358.354 678.922C358.58 678.422 358.667 677.913 358.627 677.401L361.795 676.639C362.252 677.379 362.896 678.031 363.68 678.549C364.465 679.066 365.37 679.435 366.331 679.631L366.227 682.26C364.823 682.473 363.586 683.268 363.041 684.472C362.189 686.358 363.351 688.517 365.643 689.306C367.936 690.094 370.46 689.203 371.313 687.317ZM375.033 664.967C375.315 664.342 376.168 664.045 376.927 664.306C377.687 664.567 378.077 665.292 377.795 665.917C377.512 666.542 376.66 666.839 375.9 666.578C375.141 666.317 374.751 665.592 375.033 664.967ZM358.993 663.388C359.276 662.763 360.128 662.466 360.888 662.727C361.647 662.988 362.038 663.713 361.755 664.338C361.473 664.963 360.62 665.26 359.861 664.999C359.101 664.738 358.711 664.013 358.993 663.388ZM381.281 677.618C382.041 677.88 382.431 678.605 382.148 679.23C381.866 679.854 381.013 680.152 380.254 679.891C379.495 679.63 379.104 678.904 379.387 678.28C379.669 677.655 380.522 677.357 381.281 677.618ZM364.197 673.055C364.538 672.302 365.228 671.704 366.116 671.394C367.004 671.084 368.018 671.087 368.933 671.402C369.849 671.717 370.592 672.318 370.998 673.073C371.405 673.829 371.442 674.676 371.102 675.43C370.761 676.183 370.071 676.78 369.183 677.09C368.295 677.4 367.281 677.398 366.366 677.083C365.45 676.768 364.707 676.166 364.301 675.411C363.894 674.656 363.857 673.808 364.197 673.055ZM355.593 677.972C355.31 678.597 354.458 678.894 353.698 678.633C352.939 678.372 352.549 677.647 352.831 677.022C353.113 676.397 353.966 676.099 354.725 676.361C355.485 676.622 355.875 677.347 355.593 677.972ZM365.789 685.417C366.072 684.793 366.924 684.495 367.684 684.756C368.443 685.018 368.834 685.743 368.551 686.367C368.269 686.992 367.416 687.29 366.657 687.029C365.897 686.767 365.507 686.042 365.789 685.417Z" fill="#00A79D"/>
</g>
<g filter="url(#filter4_f_57_48)">
<path d="M322.667 646.298C322.773 646.064 322.822 645.814 322.81 645.562C322.799 645.31 322.727 645.063 322.6 644.835C322.474 644.607 322.294 644.404 322.073 644.238C321.852 644.072 321.594 643.947 321.315 643.87L321.387 642.563C321.872 642.518 322.337 642.378 322.746 642.152C323.155 641.926 323.497 641.621 323.746 641.261L325.172 641.751C325.121 642.154 325.225 642.562 325.468 642.912C325.712 643.262 326.081 643.533 326.519 643.685C327.615 644.062 328.844 643.605 329.271 642.662C329.697 641.719 329.156 640.653 328.06 640.276C327.135 639.958 326.116 640.238 325.56 640.893L324.134 640.403C324.341 639.555 324.063 638.685 323.428 638.047L324.401 637.042C324.445 637.064 324.491 637.08 324.537 637.096C325.634 637.473 326.863 637.016 327.289 636.073C327.715 635.13 327.174 634.064 326.078 633.687C324.982 633.31 323.753 633.767 323.326 634.71C323.054 635.312 323.181 635.96 323.584 636.453L322.614 637.451C321.813 637.045 320.813 636.944 319.897 637.232L319.09 636.029C319.307 635.854 319.471 635.642 319.584 635.392C320.011 634.449 319.47 633.383 318.373 633.006C317.277 632.629 316.048 633.086 315.622 634.029C315.196 634.972 315.736 636.037 316.833 636.415C317.282 636.569 317.748 636.585 318.176 636.483L318.982 637.686C318.131 638.286 317.712 639.231 317.86 640.168L316.329 640.567C316.094 640.243 315.741 639.977 315.292 639.823C314.196 639.446 312.967 639.903 312.541 640.846C312.114 641.789 312.655 642.854 313.752 643.231C314.848 643.608 316.077 643.152 316.503 642.209C316.616 641.959 316.662 641.705 316.647 641.451L318.178 641.052C318.392 641.417 318.696 641.737 319.069 641.989C319.442 642.241 319.875 642.419 320.335 642.509L320.263 643.817C319.585 643.932 318.983 644.335 318.711 644.937C318.285 645.88 318.826 646.946 319.922 647.323C321.018 647.7 322.241 647.241 322.667 646.298ZM324.647 635.164C324.788 634.852 325.201 634.698 325.564 634.823C325.928 634.948 326.109 635.306 325.968 635.619C325.827 635.931 325.414 636.084 325.051 635.959C324.688 635.834 324.506 635.477 324.647 635.164ZM316.943 634.483C317.084 634.171 317.497 634.017 317.86 634.142C318.223 634.267 318.405 634.625 318.263 634.937C318.122 635.25 317.71 635.403 317.346 635.278C316.983 635.153 316.801 634.796 316.943 634.483ZM327.546 641.412C327.909 641.537 328.091 641.895 327.95 642.208C327.809 642.52 327.396 642.674 327.033 642.549C326.669 642.424 326.488 642.066 326.629 641.753C326.77 641.441 327.183 641.288 327.546 641.412ZM319.364 639.255C319.535 638.878 319.872 638.577 320.302 638.417C320.732 638.257 321.22 638.252 321.657 638.402C322.095 638.553 322.448 638.847 322.637 639.22C322.826 639.593 322.837 640.014 322.667 640.39C322.496 640.767 322.159 641.068 321.729 641.228C321.299 641.388 320.811 641.393 320.374 641.243C319.936 641.092 319.583 640.798 319.394 640.425C319.205 640.052 319.194 639.631 319.364 639.255ZM315.182 641.754C315.041 642.067 314.628 642.22 314.265 642.095C313.902 641.97 313.72 641.612 313.861 641.3C314.003 640.988 314.415 640.834 314.779 640.959C315.142 641.084 315.323 641.442 315.182 641.754ZM320.025 645.389C320.167 645.077 320.579 644.924 320.943 645.049C321.306 645.173 321.487 645.531 321.346 645.844C321.205 646.156 320.792 646.31 320.429 646.185C320.066 646.06 319.884 645.702 320.025 645.389Z" fill="#FF6F61"/>
</g>
<g filter="url(#filter5_f_57_48)">
<path d="M490.902 607.677C491.008 607.444 491.057 607.193 491.045 606.941C491.034 606.69 490.962 606.442 490.835 606.214C490.709 605.987 490.529 605.783 490.308 605.617C490.087 605.451 489.829 605.326 489.55 605.25L489.622 603.942C490.107 603.898 490.572 603.757 490.981 603.531C491.39 603.305 491.732 603 491.981 602.64L493.408 603.131C493.356 603.534 493.46 603.942 493.703 604.291C493.947 604.641 494.316 604.913 494.754 605.064C495.85 605.441 497.079 604.984 497.506 604.041C497.932 603.098 497.391 602.033 496.295 601.656C495.37 601.338 494.351 601.617 493.795 602.273L492.369 601.782C492.576 600.935 492.298 600.064 491.663 599.426L492.636 598.422C492.68 598.443 492.726 598.459 492.772 598.475C493.869 598.852 495.098 598.395 495.524 597.452C495.95 596.509 495.409 595.444 494.313 595.067C493.217 594.689 491.988 595.146 491.562 596.089C491.289 596.691 491.416 597.339 491.819 597.832L490.849 598.831C490.048 598.424 489.049 598.323 488.132 598.612L487.325 597.409C487.542 597.234 487.706 597.021 487.819 596.771C488.246 595.828 487.705 594.763 486.608 594.386C485.512 594.008 484.283 594.465 483.857 595.408C483.431 596.351 483.972 597.417 485.068 597.794C485.517 597.948 485.983 597.964 486.411 597.862L487.218 599.065C486.366 599.665 485.947 600.61 486.095 601.547L484.565 601.946C484.329 601.623 483.976 601.357 483.527 601.202C482.431 600.825 481.202 601.282 480.776 602.225C480.35 603.168 480.89 604.234 481.987 604.611C483.083 604.988 484.312 604.531 484.738 603.588C484.851 603.338 484.897 603.085 484.882 602.83L486.413 602.431C486.627 602.796 486.931 603.116 487.304 603.368C487.677 603.62 488.11 603.798 488.57 603.889L488.498 605.196C487.821 605.311 487.218 605.715 486.946 606.317C486.52 607.26 487.061 608.325 488.157 608.702C489.254 609.08 490.476 608.62 490.902 607.677ZM492.882 596.544C493.024 596.231 493.436 596.078 493.8 596.203C494.163 596.328 494.344 596.685 494.203 596.998C494.062 597.31 493.649 597.464 493.286 597.339C492.923 597.214 492.741 596.856 492.882 596.544ZM485.178 595.863C485.319 595.55 485.732 595.397 486.095 595.522C486.458 595.647 486.64 596.004 486.499 596.317C486.357 596.629 485.945 596.783 485.581 596.658C485.218 596.533 485.037 596.175 485.178 595.863ZM495.781 602.792C496.144 602.917 496.326 603.275 496.185 603.587C496.044 603.9 495.631 604.053 495.268 603.928C494.905 603.803 494.723 603.445 494.864 603.133C495.005 602.82 495.418 602.667 495.781 602.792ZM487.6 600.634C487.77 600.257 488.107 599.956 488.537 599.796C488.967 599.636 489.455 599.631 489.893 599.782C490.33 599.932 490.683 600.226 490.872 600.599C491.061 600.972 491.072 601.393 490.902 601.77C490.731 602.146 490.394 602.448 489.964 602.608C489.534 602.767 489.047 602.773 488.609 602.622C488.171 602.471 487.819 602.177 487.629 601.805C487.44 601.432 487.429 601.011 487.6 600.634ZM483.417 603.134C483.276 603.446 482.863 603.6 482.5 603.475C482.137 603.35 481.955 602.992 482.097 602.679C482.238 602.367 482.651 602.214 483.014 602.338C483.377 602.463 483.559 602.821 483.417 603.134ZM488.261 606.769C488.402 606.456 488.814 606.303 489.178 606.428C489.541 606.553 489.723 606.911 489.581 607.223C489.44 607.536 489.027 607.689 488.664 607.564C488.301 607.439 488.119 607.081 488.261 606.769Z" fill="#00A79D"/>
</g>
<defs>
<filter id="filter0_f_57_48" x="459.45" y="321.393" width="48.4336" height="39.5063" filterUnits="userSpaceOnUse" color-interpolation-filters="sRGB">
<feFlood flood-opacity="0" result="BackgroundImageFix"/>
<feBlend mode="normal" in="SourceGraphic" in2="BackgroundImageFix" result="shape"/>
<feGaussianBlur stdDeviation="2" result="effect1_foregroundBlur_57_48"/>
</filter>
<filter id="filter1_f_57_48" x="286.002" y="297.883" width="48.4336" height="39.5063" filterUnits="userSpaceOnUse" color-interpolation-filters="sRGB">
<feFlood flood-opacity="0" result="BackgroundImageFix"/>
<feBlend mode="normal" in="SourceGraphic" in2="BackgroundImageFix" result="shape"/>
<feGaussianBlur stdDeviation="2" result="effect1_foregroundBlur_57_48"/>
</filter>
<filter id="filter2_f_57_48" x="428.95" y="285.366" width="27.3937" height="23.7437" filterUnits="userSpaceOnUse" color-interpolation-filters="sRGB">
<feFlood flood-opacity="0" result="BackgroundImageFix"/>
<feBlend mode="normal" in="SourceGraphic" in2="BackgroundImageFix" result="shape"/>
<feGaussianBlur stdDeviation="2" result="effect1_foregroundBlur_57_48"/>
</filter>
<filter id="filter3_f_57_48" x="345.79" y="656.167" width="43.3999" height="37.4263" filterUnits="userSpaceOnUse" color-interpolation-filters="sRGB">
<feFlood flood-opacity="0" result="BackgroundImageFix"/>
<feBlend mode="normal" in="SourceGraphic" in2="BackgroundImageFix" result="shape"/>
<feGaussianBlur stdDeviation="2" result="effect1_foregroundBlur_57_48"/>
</filter>
<filter id="filter4_f_57_48" x="308.395" y="628.874" width="25.0212" height="22.5811" filterUnits="userSpaceOnUse" color-interpolation-filters="sRGB">
<feFlood flood-opacity="0" result="BackgroundImageFix"/>
<feBlend mode="normal" in="SourceGraphic" in2="BackgroundImageFix" result="shape"/>
<feGaussianBlur stdDeviation="2" result="effect1_foregroundBlur_57_48"/>
</filter>
<filter id="filter5_f_57_48" x="476.63" y="590.253" width="25.0212" height="22.5811" filterUnits="userSpaceOnUse" color-interpolation-filters="sRGB">
<feFlood flood-opacity="0" result="BackgroundImageFix"/>
<feBlend mode="normal" in="SourceGraphic" in2="BackgroundImageFix" result="shape"/>
<feGaussianBlur stdDeviation="2" result="effect1_foregroundBlur_57_48"/>
</filter>
</defs>
</svg>
