<svg width="375" height="386" viewBox="0 0 375 386" fill="none" xmlns="http://www.w3.org/2000/svg">
<path d="M290.284 190.489C289.001 194.02 288.248 197.75 288.052 201.538H279V201.265C279 201.015 279.054 200.772 279.075 200.529C279.185 199.228 279.386 197.938 279.674 196.669C280.14 194.585 280.813 192.563 281.682 190.636C281.697 190.588 281.727 190.548 281.766 190.521C281.806 190.494 281.853 190.483 281.899 190.489H290.284Z" fill="#EBEBEB"/>
<path d="M290.012 215.18H281.702C281.658 215.186 281.614 215.175 281.577 215.149C281.54 215.124 281.512 215.085 281.498 215.04C280.545 212.877 279.859 210.589 279.456 208.234C279.248 207.098 279.112 205.949 279.048 204.794C279.048 204.75 279.048 204.713 279.048 204.676V204.403H279.184H287.943C288.1 204.403 288.093 204.403 288.106 204.58C288.161 205.368 288.209 206.156 288.277 206.945C288.395 208.183 288.581 209.413 288.835 210.628C289.132 212.129 289.528 213.606 290.019 215.047C289.985 215.121 289.992 215.121 290.012 215.18Z" fill="#EBEBEB"/>
<path d="M324.968 218.067L324.9 218.207C324.195 219.371 323.407 220.474 322.545 221.507C321.504 222.778 320.348 223.933 319.094 224.954C315.704 227.707 311.722 229.482 307.524 230.111L307.184 230.169H306.986L306.796 230.037L307.014 229.867C309.549 228.001 311.767 225.673 313.568 222.988C314.587 221.47 315.484 219.861 316.249 218.178C316.263 218.132 316.291 218.094 316.328 218.068C316.366 218.043 316.41 218.032 316.453 218.038H324.954L324.968 218.067Z" fill="#EBEBEB"/>
<path d="M316.651 201.538H304.979V190.489H314.092C314.132 190.484 314.173 190.494 314.206 190.519C314.24 190.543 314.265 190.58 314.276 190.622C315.114 192.699 315.737 194.87 316.134 197.096C316.341 198.253 316.491 199.421 316.583 200.595C316.603 200.897 316.63 201.214 316.651 201.538Z" fill="#EBEBEB"/>
<path d="M316.583 204.484C316.583 204.742 316.583 205 316.549 205.22C316.501 205.839 316.46 206.458 316.379 207.069C316.27 207.916 316.147 208.756 315.991 209.596C315.645 211.441 315.139 213.246 314.48 214.988C314.47 215.039 314.443 215.083 314.404 215.113C314.364 215.144 314.316 215.157 314.269 215.15H304.91V204.484H316.583Z" fill="#EBEBEB"/>
<path d="M302.345 190.555V201.604H290.945C290.945 201.324 290.945 201.044 290.992 200.772C291.053 200.153 291.101 199.534 291.19 198.923C291.326 197.987 291.475 197.045 291.666 196.116C292.045 194.247 292.597 192.423 293.313 190.673C293.324 190.629 293.35 190.592 293.385 190.567C293.42 190.543 293.462 190.533 293.504 190.54H302.351L302.345 190.555Z" fill="#EBEBEB"/>
<path d="M302.358 204.631C302.358 208.069 302.358 211.533 302.358 215.025V215.179H293.245C293.201 215.186 293.156 215.175 293.12 215.147C293.083 215.12 293.057 215.079 293.048 215.032C292.349 213.24 291.827 211.374 291.489 209.463C291.319 208.476 291.19 207.489 291.074 206.517C290.999 205.869 290.985 205.213 290.945 204.565C290.945 204.565 290.945 204.528 290.945 204.491H302.215C302.331 204.469 302.358 204.506 302.358 204.631Z" fill="#EBEBEB"/>
<path d="M329.038 201.611H319.469C319.274 197.799 318.521 194.045 317.236 190.489H326.159C326.202 190.484 326.246 190.496 326.283 190.521C326.32 190.546 326.348 190.584 326.363 190.629C327.388 192.816 328.13 195.146 328.568 197.553C328.803 198.834 328.96 200.131 329.038 201.435V201.611Z" fill="#EBEBEB"/>
<path d="M329.045 204.396C329.045 204.646 329.045 204.889 329.011 205.133C328.824 208.239 328.132 211.286 326.969 214.134C326.839 214.458 326.697 214.775 326.56 215.091C326.551 215.124 326.532 215.152 326.506 215.17C326.48 215.189 326.449 215.198 326.418 215.194H317.57C317.672 214.863 317.781 214.546 317.883 214.222C318.772 211.365 319.307 208.392 319.475 205.383C319.475 205.088 319.509 204.794 319.523 204.492C319.523 204.418 319.523 204.374 319.625 204.381C319.655 204.385 319.684 204.385 319.714 204.381L329.045 204.396Z" fill="#EBEBEB"/>
<path d="M324.709 187.668V187.712H316.202C316.16 187.717 316.117 187.708 316.081 187.686C316.044 187.663 316.015 187.628 315.998 187.587C314.886 185.18 313.49 182.939 311.846 180.92C310.875 179.757 309.807 178.694 308.654 177.746C308.089 177.267 307.497 176.825 306.911 176.361L306.816 176.287L306.932 176.199C306.932 176.14 306.898 176.081 306.877 176C310.449 176.447 313.89 177.72 316.967 179.733C320.043 181.747 322.684 184.453 324.709 187.668Z" fill="#EBEBEB"/>
<path d="M300.725 230.037C300.645 230.063 300.563 230.078 300.48 230.081C299.562 229.953 298.653 229.761 297.757 229.506C294.146 228.516 290.792 226.647 287.95 224.041C286.867 223.07 285.869 221.992 284.969 220.822C284.297 219.936 283.677 219.006 283.111 218.037L283.077 217.956H291.006C291.048 217.954 291.09 217.966 291.126 217.991C291.162 218.016 291.189 218.053 291.203 218.096C292.015 219.87 292.971 221.561 294.062 223.149C295.075 224.591 296.2 225.937 297.424 227.171C298.429 228.197 299.508 229.136 300.65 229.978L300.725 230.037Z" fill="#EBEBEB"/>
<path d="M300.623 176.273C300.269 176.552 299.847 176.877 299.438 177.208C298.082 178.357 296.821 179.631 295.668 181.016C294.105 182.859 292.771 184.914 291.7 187.13C291.641 187.274 291.575 187.414 291.503 187.55C291.49 187.573 291.472 187.592 291.45 187.606C291.429 187.621 291.405 187.629 291.38 187.631C291.237 187.631 291.094 187.631 290.951 187.631H283.335C285.294 184.509 287.838 181.868 290.801 179.878C293.764 177.888 297.08 176.595 300.534 176.081C300.516 176.116 300.5 176.153 300.487 176.192L300.623 176.273Z" fill="#EBEBEB"/>
<path d="M313.173 218.067C312.097 220.106 310.802 222 309.314 223.709C307.999 225.241 306.521 226.599 304.91 227.753V218.067H313.173Z" fill="#EBEBEB"/>
<path d="M302.345 218.067V227.569C299.048 225.121 296.331 221.865 294.416 218.067H302.345Z" fill="#EBEBEB"/>
<path d="M312.928 187.631H304.979V178.571C306.607 179.718 308.101 181.073 309.43 182.607C310.753 184.146 311.925 185.83 312.928 187.631Z" fill="#EBEBEB"/>
<path d="M302.345 178.858V187.697H294.736C296.596 184.145 299.203 181.117 302.345 178.858Z" fill="#EBEBEB"/>
<path d="M90.7606 92.0228C89.8691 83.3378 83.7001 74.6914 72.8506 74.6914C62.0011 74.6914 55.864 83.3378 54.9486 92.0228C53.5795 105.44 62.9086 117.584 72.8506 128.662C82.8086 117.584 92.1377 105.44 90.7606 92.0228ZM72.8506 101.673C70.9117 101.67 69.0172 101.109 67.4066 100.062C65.796 99.0155 64.5416 97.529 63.8017 95.7908C63.0619 94.0526 62.87 92.1408 63.2502 90.2968C63.6304 88.4529 64.5656 86.7596 65.9378 85.431C67.3099 84.1024 69.0573 83.1981 70.9592 82.8324C72.8611 82.4666 74.8321 82.6559 76.6231 83.3762C78.4141 84.0965 79.9447 85.3156 81.0216 86.8793C82.0985 88.4431 82.6733 90.2813 82.6733 92.1618C82.6733 93.4121 82.4191 94.6501 81.9252 95.8051C81.4314 96.96 80.7076 98.0092 79.7953 98.8926C78.883 99.7759 77.8 100.476 76.6084 100.953C75.4167 101.43 74.1398 101.675 72.8506 101.673Z" fill="#EBEBEB"/>
<path d="M188 350.38C238.328 350.38 279.126 344.449 279.126 337.132C279.126 329.816 238.328 323.885 188 323.885C137.672 323.885 96.8739 329.816 96.8739 337.132C96.8739 344.449 137.672 350.38 188 350.38Z" fill="#EBEBEB"/>
<path d="M264.416 88.9265V326.942C264.444 330.277 263.105 333.487 260.695 335.867C258.285 338.246 255 339.601 251.561 339.634H124.567C121.13 339.599 117.847 338.243 115.44 335.863C113.033 333.484 111.698 330.275 111.727 326.942V88.9265C111.695 85.5925 113.03 82.3826 115.438 80.0027C117.845 77.6227 121.129 76.2675 124.567 76.2349H251.521C253.227 76.245 254.915 76.5815 256.487 77.2251C258.06 77.8688 259.486 78.807 260.683 79.9859C261.881 81.1649 262.828 82.5614 263.468 84.0956C264.109 85.6298 264.431 87.2714 264.416 88.9265Z" fill="#263238"/>
<path d="M256.345 100.877V319.106C256.345 325.776 251.194 331.18 244.842 331.18H131.269C124.901 331.18 119.751 325.776 119.751 319.106V100.877C119.751 87.2824 124.901 84.2793 131.269 84.2793H154.011C155.332 84.2793 156.399 85.7307 156.399 87.5371V88.3091C156.399 92.5397 158.787 92.5551 161.724 92.5551H214.34C217.293 92.5551 219.665 92.5551 219.665 88.3091V87.5371C219.665 85.7307 220.731 84.2793 222.053 84.2793H244.811C251.194 84.2793 256.345 88.4249 256.345 100.877Z" fill="#FFFAEB"/>
<path d="M195.22 87.2821H180.892C180.655 87.2821 180.429 87.191 180.261 87.0289C180.094 86.8667 180 86.6468 180 86.4175C180.002 86.1895 180.097 85.9715 180.264 85.8111C180.431 85.6506 180.657 85.5605 180.892 85.5605H195.22C195.455 85.5605 195.68 85.6506 195.847 85.8111C196.014 85.9715 196.109 86.1895 196.111 86.4175C196.111 86.6468 196.017 86.8667 195.85 87.0289C195.683 87.191 195.456 87.2821 195.22 87.2821Z" fill="white"/>
<path d="M367.957 209.984C367.957 210.314 368.058 210.636 368.247 210.91C368.436 211.185 368.705 211.398 369.019 211.525C369.333 211.651 369.679 211.684 370.012 211.619C370.346 211.555 370.652 211.396 370.892 211.163C371.133 210.93 371.297 210.633 371.363 210.309C371.429 209.986 371.395 209.65 371.265 209.346C371.135 209.041 370.915 208.781 370.632 208.597C370.349 208.414 370.017 208.316 369.677 208.316C369.451 208.316 369.227 208.36 369.019 208.443C368.81 208.527 368.621 208.65 368.461 208.805C368.301 208.96 368.175 209.143 368.088 209.346C368.002 209.548 367.957 209.765 367.957 209.984Z" fill="#263238"/>
<path d="M81.7495 269.982C83.3987 267.56 84.2899 264.708 84.3114 261.786C84.3114 251.404 72.8199 243 58.6557 243C44.4915 243 33 251.404 33 261.786C33 272.168 44.4915 280.584 58.6557 280.584C64.9532 280.685 71.1306 278.869 76.3548 275.381L85.1859 277.604L81.7495 269.982Z" fill="#EBEBEB"/>
<path d="M49.4305 261.786C49.4305 262.308 49.2745 262.818 48.9821 263.252C48.6898 263.686 48.2743 264.024 47.7882 264.224C47.3021 264.423 46.7671 264.476 46.2511 264.374C45.735 264.272 45.261 264.021 44.8889 263.652C44.5168 263.283 44.2635 262.813 44.1608 262.301C44.0581 261.789 44.1108 261.259 44.3122 260.777C44.5136 260.295 44.8545 259.882 45.292 259.593C45.7295 259.303 46.2439 259.148 46.7701 259.148C47.4757 259.148 48.1524 259.426 48.6513 259.921C49.1502 260.415 49.4305 261.087 49.4305 261.786Z" fill="#FFFAEB"/>
<path d="M61.3161 261.786C61.3161 262.308 61.1601 262.818 60.8678 263.252C60.5754 263.686 60.1599 264.024 59.6738 264.224C59.1877 264.423 58.6528 264.476 58.1367 264.374C57.6206 264.272 57.1466 264.021 56.7745 263.652C56.4025 263.283 56.1491 262.813 56.0464 262.301C55.9438 261.789 55.9965 261.259 56.1978 260.777C56.3992 260.295 56.7402 259.882 57.1777 259.593C57.6152 259.303 58.1295 259.148 58.6557 259.148C59.3613 259.148 60.038 259.426 60.5369 259.921C61.0358 260.415 61.3161 261.087 61.3161 261.786Z" fill="#FFFAEB"/>
<path d="M73.2018 261.786C73.2017 262.31 73.0443 262.822 72.7498 263.256C72.4552 263.691 72.0368 264.029 71.5477 264.228C71.0587 264.426 70.5213 264.475 70.0039 264.369C69.4866 264.263 69.0127 264.007 68.6427 263.633C68.2726 263.259 68.0232 262.785 67.9262 262.27C67.8292 261.755 67.8889 261.223 68.0979 260.742C68.3068 260.261 68.6555 259.852 69.0994 259.568C69.5433 259.284 70.0625 259.138 70.5906 259.147C71.2876 259.16 71.9517 259.444 72.4401 259.937C72.9284 260.431 73.2019 261.094 73.2018 261.786Z" fill="#FFFAEB"/>
<path d="M186.333 185.385C186.333 184.531 187.083 183.833 188 183.833C188.917 183.833 189.667 184.531 189.667 185.385C189.667 186.239 188.917 186.937 188 186.937C187.083 186.937 186.333 186.239 186.333 185.385Z" fill="#002855"/>
<path fill-rule="evenodd" clip-rule="evenodd" d="M203 190.817C202.314 190.817 201.635 190.948 201.006 191.203C200.377 191.458 199.811 191.831 199.343 192.298C198.876 192.766 198.517 193.318 198.288 193.92C198.06 194.523 197.968 195.163 198.017 195.8L194.633 196.855C194.097 195.911 193.334 195.094 192.403 194.469C191.472 193.845 190.399 193.429 189.267 193.254V189.902C190.336 189.636 191.281 189.05 191.956 188.233C192.631 187.416 192.998 186.415 193 185.385C193 182.808 190.767 180.729 188 180.729C185.233 180.729 183 182.808 183 185.385C183 187.558 184.6 189.374 186.75 189.902V193.254C184.417 193.611 182.45 194.977 181.383 196.855L177.983 195.8C178 195.691 178 195.583 178 195.474C178 192.897 175.767 190.817 173 190.817C170.233 190.817 168 192.897 168 195.474C168 198.05 170.233 200.13 173 200.13C174.767 200.13 176.3 199.277 177.2 198.004L180.583 199.059C180.25 201.062 180.867 203.188 182.4 204.787L180.05 207.534C179.417 207.255 178.733 207.115 178 207.115C175.233 207.115 173 209.195 173 211.771C173 214.348 175.233 216.428 178 216.428C180.767 216.428 183 214.348 183 211.771C183 210.716 182.633 209.754 182 208.978L184.35 206.23C186.617 207.41 189.383 207.394 191.633 206.23L193.983 208.978C193.367 209.754 193 210.716 193 211.771C193 214.348 195.233 216.428 198 216.428C200.767 216.428 203 214.348 203 211.771C203 209.195 200.767 207.115 198 207.115C197.267 207.115 196.583 207.255 195.95 207.519L193.6 204.771C194.34 204.002 194.886 203.089 195.2 202.098C195.515 201.107 195.589 200.064 195.417 199.044L198.8 197.988C199.683 199.261 201.233 200.115 203 200.115C205.767 200.115 208 198.035 208 195.458C208 192.882 205.767 190.817 203 190.817ZM171.333 195.474C171.333 196.328 172.083 197.026 173 197.026C173.917 197.026 174.667 196.328 174.667 195.474C174.667 194.62 173.917 193.922 173 193.922C172.083 193.922 171.333 194.62 171.333 195.474ZM176.333 211.771C176.333 212.625 177.083 213.324 178 213.324C178.917 213.324 179.667 212.625 179.667 211.771C179.667 210.918 178.917 210.219 178 210.219C177.083 210.219 176.333 210.918 176.333 211.771ZM188 183.833C187.083 183.833 186.333 184.531 186.333 185.385C186.333 186.239 187.083 186.937 188 186.937C188.917 186.937 189.667 186.239 189.667 185.385C189.667 184.531 188.917 183.833 188 183.833ZM185.054 202.874C185.835 203.602 186.895 204.011 188 204.011C189.105 204.011 190.165 203.602 190.946 202.874C191.728 202.147 192.167 201.16 192.167 200.13C192.167 199.101 191.728 198.114 190.946 197.387C190.165 196.659 189.105 196.25 188 196.25C186.895 196.25 185.835 196.659 185.054 197.387C184.272 198.114 183.833 199.101 183.833 200.13C183.833 201.16 184.272 202.147 185.054 202.874ZM199.667 211.771C199.667 210.918 198.917 210.219 198 210.219C197.083 210.219 196.333 210.918 196.333 211.771C196.333 212.625 197.083 213.324 198 213.324C198.917 213.324 199.667 212.625 199.667 211.771ZM201.333 195.474C201.333 196.328 202.083 197.026 203 197.026C203.917 197.026 204.667 196.328 204.667 195.474C204.667 194.62 203.917 193.922 203 193.922C202.083 193.922 201.333 194.62 201.333 195.474Z" fill="#002855"/>
<path d="M173 197.026C172.083 197.026 171.333 196.328 171.333 195.474C171.333 194.62 172.083 193.922 173 193.922C173.917 193.922 174.667 194.62 174.667 195.474C174.667 196.328 173.917 197.026 173 197.026Z" fill="#002855"/>
<path d="M178 213.324C177.083 213.324 176.333 212.625 176.333 211.771C176.333 210.918 177.083 210.219 178 210.219C178.917 210.219 179.667 210.918 179.667 211.771C179.667 212.625 178.917 213.324 178 213.324Z" fill="#002855"/>
<path d="M198 210.219C198.917 210.219 199.667 210.918 199.667 211.771C199.667 212.625 198.917 213.324 198 213.324C197.083 213.324 196.333 212.625 196.333 211.771C196.333 210.918 197.083 210.219 198 210.219Z" fill="#002855"/>
<path d="M203 197.026C202.083 197.026 201.333 196.328 201.333 195.474C201.333 194.62 202.083 193.922 203 193.922C203.917 193.922 204.667 194.62 204.667 195.474C204.667 196.328 203.917 197.026 203 197.026Z" fill="#002855"/>
<path d="M188.921 200.695L188.803 200.805C188.803 200.805 188.523 201.064 187.757 200.356C186.992 199.647 187.273 199.388 187.273 199.388L187.347 199.319C187.53 199.149 187.547 198.877 187.388 198.679L187.061 198.273C186.864 198.027 186.482 197.994 186.255 198.204L185.849 198.58C185.737 198.684 185.662 198.819 185.671 198.969C185.694 199.351 185.88 200.174 186.917 201.134C188.016 202.153 189.048 202.193 189.47 202.156C189.603 202.145 189.719 202.082 189.813 201.995L190.18 201.654C190.429 201.424 190.359 201.03 190.041 200.869L189.546 200.619C189.338 200.513 189.084 200.544 188.921 200.695Z" fill="#002855"/>
<path d="M153.372 230.694C153.372 230.174 153.464 229.666 153.648 229.17C153.84 228.666 154.116 228.21 154.476 227.802C154.836 227.386 155.276 227.058 155.796 226.818C156.316 226.57 156.908 226.446 157.572 226.446C158.356 226.446 159.032 226.618 159.6 226.962C160.176 227.306 160.604 227.754 160.884 228.306L159.612 229.182C159.468 228.862 159.28 228.61 159.048 228.426C158.816 228.234 158.568 228.102 158.304 228.03C158.04 227.95 157.78 227.91 157.524 227.91C157.108 227.91 156.744 227.994 156.432 228.162C156.128 228.33 155.872 228.55 155.664 228.822C155.456 229.094 155.3 229.398 155.196 229.734C155.1 230.07 155.052 230.406 155.052 230.742C155.052 231.118 155.112 231.482 155.232 231.834C155.352 232.178 155.52 232.486 155.736 232.758C155.96 233.022 156.224 233.234 156.528 233.394C156.84 233.546 157.18 233.622 157.548 233.622C157.812 233.622 158.08 233.578 158.352 233.49C158.624 233.402 158.876 233.262 159.108 233.07C159.34 232.878 159.52 232.63 159.648 232.326L161.004 233.106C160.836 233.53 160.56 233.89 160.176 234.186C159.8 234.482 159.376 234.706 158.904 234.858C158.432 235.01 157.964 235.086 157.5 235.086C156.892 235.086 156.336 234.962 155.832 234.714C155.328 234.458 154.892 234.122 154.524 233.706C154.164 233.282 153.88 232.81 153.672 232.29C153.472 231.762 153.372 231.23 153.372 230.694ZM164.839 235.134C164.327 235.134 163.867 235.05 163.459 234.882C163.051 234.706 162.703 234.466 162.415 234.162C162.135 233.858 161.919 233.51 161.767 233.118C161.615 232.726 161.539 232.314 161.539 231.882C161.539 231.442 161.615 231.026 161.767 230.634C161.919 230.242 162.135 229.894 162.415 229.59C162.703 229.286 163.051 229.05 163.459 228.882C163.867 228.706 164.327 228.618 164.839 228.618C165.351 228.618 165.807 228.706 166.207 228.882C166.615 229.05 166.963 229.286 167.251 229.59C167.539 229.894 167.755 230.242 167.899 230.634C168.051 231.026 168.127 231.442 168.127 231.882C168.127 232.314 168.051 232.726 167.899 233.118C167.755 233.51 167.539 233.858 167.251 234.162C166.971 234.466 166.627 234.706 166.219 234.882C165.811 235.05 165.351 235.134 164.839 235.134ZM163.195 231.882C163.195 232.25 163.267 232.578 163.411 232.866C163.555 233.146 163.751 233.366 163.999 233.526C164.247 233.686 164.527 233.766 164.839 233.766C165.143 233.766 165.419 233.686 165.667 233.526C165.915 233.358 166.111 233.134 166.255 232.854C166.407 232.566 166.483 232.238 166.483 231.87C166.483 231.51 166.407 231.186 166.255 230.898C166.111 230.61 165.915 230.386 165.667 230.226C165.419 230.066 165.143 229.986 164.839 229.986C164.527 229.986 164.247 230.07 163.999 230.238C163.751 230.398 163.555 230.622 163.411 230.91C163.267 231.19 163.195 231.514 163.195 231.882ZM175.056 235.014H173.448V231.486C173.448 230.982 173.36 230.614 173.184 230.382C173.008 230.15 172.764 230.034 172.452 230.034C172.236 230.034 172.016 230.09 171.792 230.202C171.576 230.314 171.38 230.47 171.204 230.67C171.028 230.862 170.9 231.086 170.82 231.342V235.014H169.212V228.726H170.664V229.89C170.824 229.618 171.028 229.39 171.276 229.206C171.524 229.014 171.808 228.87 172.128 228.774C172.456 228.67 172.8 228.618 173.16 228.618C173.552 228.618 173.872 228.69 174.12 228.834C174.376 228.97 174.568 229.158 174.696 229.398C174.832 229.63 174.924 229.894 174.972 230.19C175.028 230.486 175.056 230.786 175.056 231.09V235.014ZM180.188 234.69C180.052 234.746 179.888 234.81 179.696 234.882C179.504 234.954 179.296 235.01 179.072 235.05C178.856 235.098 178.636 235.122 178.412 235.122C178.116 235.122 177.844 235.07 177.596 234.966C177.348 234.862 177.148 234.698 176.996 234.474C176.852 234.242 176.78 233.942 176.78 233.574V229.962H175.952V228.726H176.78V226.686H178.388V228.726H179.708V229.962H178.388V233.034C178.396 233.25 178.456 233.406 178.568 233.502C178.68 233.598 178.82 233.646 178.988 233.646C179.156 233.646 179.32 233.618 179.48 233.562C179.64 233.506 179.768 233.458 179.864 233.418L180.188 234.69ZM180.593 233.154C180.593 232.746 180.705 232.39 180.929 232.086C181.161 231.774 181.481 231.534 181.889 231.366C182.297 231.198 182.765 231.114 183.293 231.114C183.557 231.114 183.825 231.134 184.097 231.174C184.369 231.214 184.605 231.278 184.805 231.366V231.03C184.805 230.63 184.685 230.322 184.445 230.106C184.213 229.89 183.865 229.782 183.401 229.782C183.057 229.782 182.729 229.842 182.417 229.962C182.105 230.082 181.777 230.258 181.433 230.49L180.917 229.434C181.333 229.162 181.757 228.958 182.189 228.822C182.629 228.686 183.089 228.618 183.569 228.618C184.465 228.618 185.161 228.842 185.657 229.29C186.161 229.738 186.413 230.378 186.413 231.21V233.214C186.413 233.382 186.441 233.502 186.497 233.574C186.561 233.646 186.661 233.69 186.797 233.706V235.014C186.653 235.038 186.521 235.058 186.401 235.074C186.289 235.09 186.193 235.098 186.113 235.098C185.793 235.098 185.549 235.026 185.381 234.882C185.221 234.738 185.121 234.562 185.081 234.354L185.045 234.03C184.773 234.382 184.433 234.654 184.025 234.846C183.617 235.038 183.201 235.134 182.777 235.134C182.361 235.134 181.985 235.05 181.649 234.882C181.321 234.706 181.061 234.47 180.869 234.174C180.685 233.87 180.593 233.53 180.593 233.154ZM184.505 233.478C184.593 233.382 184.665 233.286 184.721 233.19C184.777 233.094 184.805 233.006 184.805 232.926V232.29C184.613 232.21 184.405 232.15 184.181 232.11C183.957 232.062 183.745 232.038 183.545 232.038C183.129 232.038 182.785 232.13 182.513 232.314C182.249 232.49 182.117 232.726 182.117 233.022C182.117 233.182 182.161 233.334 182.249 233.478C182.337 233.622 182.465 233.738 182.633 233.826C182.801 233.914 183.001 233.958 183.233 233.958C183.473 233.958 183.709 233.914 183.941 233.826C184.173 233.73 184.361 233.614 184.505 233.478ZM190.844 235.134C190.332 235.134 189.872 235.05 189.464 234.882C189.056 234.706 188.708 234.466 188.42 234.162C188.132 233.85 187.908 233.498 187.748 233.106C187.596 232.714 187.52 232.302 187.52 231.87C187.52 231.278 187.652 230.738 187.916 230.25C188.188 229.754 188.572 229.358 189.068 229.062C189.564 228.766 190.152 228.618 190.832 228.618C191.512 228.618 192.096 228.766 192.584 229.062C193.072 229.358 193.436 229.746 193.676 230.226L192.104 230.706C191.968 230.474 191.788 230.298 191.564 230.178C191.34 230.05 191.092 229.986 190.82 229.986C190.516 229.986 190.236 230.066 189.98 230.226C189.732 230.378 189.536 230.598 189.392 230.886C189.248 231.166 189.176 231.494 189.176 231.87C189.176 232.238 189.248 232.566 189.392 232.854C189.544 233.134 189.744 233.358 189.992 233.526C190.24 233.686 190.516 233.766 190.82 233.766C191.012 233.766 191.192 233.734 191.36 233.67C191.536 233.606 191.692 233.518 191.828 233.406C191.964 233.294 192.064 233.166 192.128 233.022L193.7 233.502C193.556 233.814 193.344 234.094 193.064 234.342C192.792 234.59 192.468 234.786 192.092 234.93C191.724 235.066 191.308 235.134 190.844 235.134ZM198.457 234.69C198.321 234.746 198.157 234.81 197.965 234.882C197.773 234.954 197.565 235.01 197.341 235.05C197.125 235.098 196.905 235.122 196.681 235.122C196.385 235.122 196.113 235.07 195.865 234.966C195.617 234.862 195.417 234.698 195.265 234.474C195.121 234.242 195.049 233.942 195.049 233.574V229.962H194.221V228.726H195.049V226.686H196.657V228.726H197.977V229.962H196.657V233.034C196.665 233.25 196.725 233.406 196.837 233.502C196.949 233.598 197.089 233.646 197.257 233.646C197.425 233.646 197.589 233.618 197.749 233.562C197.909 233.506 198.037 233.458 198.133 233.418L198.457 234.69ZM206.615 226.494V235.014H204.971V231.378H201.107V235.014H199.451V226.494H201.107V229.938H204.971V226.494H206.615ZM208.176 232.662V228.726H209.784V232.314C209.784 232.794 209.872 233.158 210.048 233.406C210.224 233.646 210.484 233.766 210.828 233.766C211.036 233.766 211.24 233.726 211.44 233.646C211.648 233.558 211.836 233.43 212.004 233.262C212.18 233.094 212.328 232.882 212.448 232.626V228.726H214.056V233.214C214.056 233.382 214.084 233.502 214.14 233.574C214.204 233.646 214.304 233.69 214.44 233.706V235.014C214.28 235.038 214.144 235.054 214.032 235.062C213.928 235.078 213.832 235.086 213.744 235.086C213.456 235.086 213.22 235.022 213.036 234.894C212.86 234.758 212.756 234.574 212.724 234.342L212.688 233.838C212.408 234.262 212.048 234.586 211.608 234.81C211.168 235.026 210.684 235.134 210.156 235.134C209.508 235.134 209.016 234.926 208.68 234.51C208.344 234.086 208.176 233.47 208.176 232.662ZM219.23 235.134C218.75 235.134 218.322 235.026 217.946 234.81C217.57 234.594 217.274 234.298 217.058 233.922V235.014H215.654V226.254H217.262V229.83C217.486 229.454 217.778 229.158 218.138 228.942C218.506 228.726 218.934 228.618 219.422 228.618C219.83 228.618 220.202 228.706 220.538 228.882C220.874 229.05 221.162 229.286 221.402 229.59C221.65 229.894 221.838 230.242 221.966 230.634C222.102 231.026 222.17 231.446 222.17 231.894C222.17 232.342 222.094 232.762 221.942 233.154C221.798 233.546 221.594 233.894 221.33 234.198C221.066 234.494 220.754 234.726 220.394 234.894C220.042 235.054 219.654 235.134 219.23 235.134ZM218.786 233.766C219.042 233.766 219.274 233.718 219.482 233.622C219.698 233.518 219.882 233.382 220.034 233.214C220.194 233.046 220.314 232.85 220.394 232.626C220.482 232.394 220.526 232.154 220.526 231.906C220.526 231.562 220.454 231.246 220.31 230.958C220.174 230.662 219.982 230.426 219.734 230.25C219.494 230.074 219.21 229.986 218.882 229.986C218.65 229.986 218.426 230.042 218.21 230.154C218.002 230.258 217.814 230.402 217.646 230.586C217.486 230.77 217.358 230.978 217.262 231.21V232.71C217.31 232.87 217.386 233.014 217.49 233.142C217.602 233.27 217.73 233.382 217.874 233.478C218.018 233.566 218.166 233.638 218.318 233.694C218.478 233.742 218.634 233.766 218.786 233.766Z" fill="#002855"/>
<g filter="url(#filter0_f_43_393)">
<path d="M237.089 157.053C237.016 156.813 236.874 156.588 236.672 156.391C236.47 156.195 236.211 156.03 235.912 155.909C235.613 155.788 235.281 155.712 234.935 155.686C234.589 155.661 234.238 155.686 233.903 155.76L232.983 154.674C233.43 154.402 233.785 154.062 234.02 153.681C234.255 153.3 234.363 152.888 234.336 152.478L236.125 152.177C236.38 152.526 236.793 152.804 237.3 152.966C237.807 153.129 238.38 153.167 238.93 153.075C240.304 152.844 241.178 151.878 240.885 150.913C240.593 149.947 239.247 149.354 237.872 149.585C236.713 149.78 235.913 150.501 235.859 151.299L234.07 151.599C233.633 150.817 232.696 150.253 231.582 150.049L231.785 148.768C231.845 148.764 231.903 148.754 231.961 148.744C233.336 148.513 234.209 147.547 233.917 146.582C233.624 145.616 232.278 145.023 230.904 145.254C229.529 145.485 228.655 146.451 228.948 147.417C229.135 148.033 229.752 148.492 230.526 148.692L230.321 149.967C229.218 150.031 228.148 150.437 227.457 151.115L225.743 150.541C225.825 150.295 225.828 150.044 225.75 149.788C225.458 148.822 224.112 148.229 222.737 148.46C221.362 148.691 220.489 149.657 220.781 150.623C221.074 151.589 222.42 152.182 223.794 151.951C224.357 151.856 224.832 151.642 225.179 151.351L226.893 151.925C226.504 152.822 226.805 153.786 227.664 154.467L226.446 155.534C225.967 155.388 225.415 155.346 224.852 155.441C223.477 155.672 222.604 156.638 222.896 157.604C223.189 158.569 224.534 159.162 225.909 158.931C227.284 158.7 228.157 157.734 227.865 156.769C227.787 156.513 227.64 156.287 227.433 156.089L228.65 155.023C229.139 155.212 229.684 155.321 230.245 155.342C230.807 155.363 231.372 155.295 231.898 155.143L232.819 156.23C232.233 156.652 231.941 157.27 232.128 157.886C232.421 158.852 233.767 159.445 235.141 159.214C236.516 158.983 237.381 158.018 237.089 157.053ZM230.604 147.138C230.507 146.818 230.801 146.494 231.256 146.418C231.711 146.341 232.163 146.54 232.26 146.86C232.357 147.18 232.064 147.504 231.608 147.581C231.153 147.658 230.701 147.458 230.604 147.138ZM222.438 150.345C222.341 150.025 222.634 149.7 223.089 149.624C223.545 149.547 223.997 149.746 224.094 150.066C224.191 150.386 223.897 150.711 223.442 150.787C222.986 150.864 222.535 150.665 222.438 150.345ZM238.225 150.748C238.68 150.672 239.132 150.871 239.229 151.191C239.326 151.511 239.033 151.835 238.577 151.912C238.122 151.988 237.67 151.789 237.573 151.469C237.476 151.149 237.769 150.825 238.225 150.748ZM228.464 153C228.347 152.614 228.453 152.208 228.758 151.87C229.064 151.532 229.544 151.29 230.093 151.198C230.642 151.106 231.215 151.17 231.686 151.378C232.157 151.585 232.487 151.919 232.604 152.304C232.721 152.69 232.615 153.096 232.309 153.434C232.004 153.772 231.524 154.014 230.974 154.106C230.425 154.199 229.852 154.134 229.382 153.926C228.911 153.719 228.58 153.386 228.464 153ZM226.208 157.047C226.305 157.367 226.012 157.691 225.557 157.768C225.101 157.844 224.649 157.645 224.552 157.325C224.455 157.005 224.749 156.681 225.204 156.604C225.66 156.528 226.112 156.727 226.208 157.047ZM233.776 157.609C233.679 157.289 233.973 156.965 234.428 156.888C234.883 156.812 235.335 157.011 235.432 157.331C235.529 157.651 235.236 157.975 234.78 158.052C234.325 158.128 233.873 157.929 233.776 157.609Z" fill="#FF6F61"/>
</g>
<g filter="url(#filter1_f_43_393)">
<path d="M150.365 146.561C150.292 146.322 150.15 146.097 149.948 145.9C149.745 145.703 149.487 145.539 149.188 145.418C148.889 145.297 148.556 145.221 148.211 145.195C147.865 145.169 147.514 145.195 147.179 145.269L146.259 144.182C146.706 143.911 147.061 143.571 147.296 143.19C147.53 142.809 147.639 142.397 147.612 141.987L149.401 141.686C149.656 142.035 150.069 142.313 150.576 142.475C151.083 142.637 151.656 142.676 152.206 142.584C153.58 142.353 154.454 141.387 154.161 140.421C153.869 139.456 152.523 138.863 151.148 139.094C149.989 139.289 149.189 140.01 149.135 140.808L147.346 141.108C146.909 140.326 145.972 139.762 144.858 139.558L145.061 138.277C145.121 138.273 145.179 138.263 145.237 138.253C146.612 138.022 147.485 137.056 147.193 136.091C146.9 135.125 145.554 134.532 144.179 134.763C142.805 134.994 141.931 135.96 142.224 136.926C142.411 137.542 143.028 138.001 143.802 138.201L143.597 139.476C142.494 139.539 141.424 139.945 140.733 140.624L139.019 140.05C139.101 139.804 139.104 139.553 139.026 139.297C138.733 138.331 137.388 137.738 136.013 137.969C134.638 138.2 133.765 139.166 134.057 140.132C134.35 141.097 135.696 141.69 137.07 141.459C137.633 141.365 138.108 141.151 138.455 140.86L140.169 141.434C139.78 142.331 140.081 143.295 140.94 143.976L139.722 145.042C139.243 144.897 138.691 144.855 138.128 144.95C136.753 145.181 135.879 146.147 136.172 147.112C136.465 148.078 137.81 148.671 139.185 148.44C140.56 148.209 141.433 147.243 141.141 146.277C141.063 146.021 140.916 145.795 140.709 145.598L141.926 144.532C142.415 144.721 142.96 144.83 143.521 144.85C144.083 144.871 144.647 144.804 145.174 144.652L146.095 145.738C145.509 146.161 145.217 146.778 145.404 147.395C145.697 148.361 147.042 148.954 148.417 148.723C149.792 148.492 150.657 147.527 150.365 146.561ZM143.88 136.647C143.783 136.327 144.076 136.003 144.532 135.926C144.987 135.85 145.439 136.049 145.536 136.369C145.633 136.689 145.34 137.013 144.884 137.09C144.429 137.166 143.977 136.967 143.88 136.647ZM135.714 139.853C135.617 139.534 135.91 139.209 136.365 139.133C136.821 139.056 137.273 139.255 137.37 139.575C137.467 139.895 137.173 140.219 136.718 140.296C136.262 140.373 135.81 140.173 135.714 139.853ZM151.501 140.257C151.956 140.181 152.408 140.38 152.505 140.7C152.602 141.02 152.309 141.344 151.853 141.421C151.398 141.497 150.946 141.298 150.849 140.978C150.752 140.658 151.045 140.334 151.501 140.257ZM141.74 142.509C141.623 142.123 141.729 141.717 142.034 141.379C142.34 141.041 142.82 140.799 143.369 140.707C143.918 140.614 144.491 140.679 144.962 140.887C145.433 141.094 145.763 141.427 145.88 141.813C145.997 142.199 145.891 142.605 145.585 142.943C145.28 143.281 144.799 143.523 144.25 143.615C143.701 143.707 143.128 143.643 142.657 143.435C142.187 143.228 141.856 142.894 141.74 142.509ZM139.484 146.556C139.581 146.876 139.288 147.2 138.833 147.277C138.377 147.353 137.925 147.154 137.828 146.834C137.731 146.514 138.025 146.19 138.48 146.113C138.936 146.037 139.388 146.236 139.484 146.556ZM147.052 147.118C146.955 146.798 147.248 146.474 147.704 146.397C148.159 146.321 148.611 146.52 148.708 146.84C148.805 147.16 148.512 147.484 148.056 147.561C147.601 147.637 147.149 147.438 147.052 147.118Z" fill="#FF6F61"/>
</g>
<g filter="url(#filter2_f_43_393)">
<path d="M213.361 135.059C213.325 134.939 213.255 134.826 213.157 134.727C213.059 134.628 212.934 134.546 212.79 134.484C212.646 134.422 212.486 134.383 212.32 134.369C212.154 134.355 211.986 134.367 211.826 134.403L211.378 133.857C211.591 133.723 211.759 133.555 211.869 133.366C211.979 133.177 212.028 132.971 212.013 132.766L212.869 132.623C212.993 132.798 213.193 132.938 213.437 133.02C213.681 133.103 213.955 133.124 214.218 133.081C214.876 132.97 215.289 132.491 215.142 132.008C214.996 131.526 214.347 131.225 213.69 131.335C213.135 131.429 212.757 131.786 212.736 132.184L211.88 132.327C211.666 131.935 211.213 131.651 210.677 131.545L210.767 130.907C210.796 130.905 210.823 130.9 210.851 130.895C211.509 130.785 211.921 130.306 211.775 129.823C211.629 129.34 210.98 129.04 210.322 129.15C209.665 129.261 209.252 129.74 209.399 130.223C209.492 130.531 209.791 130.762 210.163 130.864L210.073 131.5C209.544 131.528 209.034 131.726 208.707 132.063L207.882 131.77C207.92 131.648 207.919 131.523 207.881 131.395C207.734 130.912 207.086 130.611 206.428 130.722C205.771 130.832 205.358 131.311 205.504 131.794C205.651 132.277 206.299 132.577 206.957 132.467C207.226 132.422 207.452 132.316 207.617 132.173L208.442 132.465C208.261 132.911 208.411 133.393 208.827 133.736L208.25 134.264C208.02 134.189 207.755 134.167 207.486 134.212C206.828 134.322 206.415 134.801 206.562 135.284C206.708 135.767 207.357 136.068 208.014 135.957C208.672 135.847 209.084 135.368 208.938 134.885C208.899 134.757 208.828 134.644 208.727 134.544L209.303 134.017C209.539 134.113 209.801 134.169 210.07 134.181C210.34 134.194 210.61 134.162 210.861 134.088L211.309 134.633C211.031 134.842 210.895 135.149 210.989 135.457C211.135 135.94 211.784 136.241 212.441 136.13C213.099 136.02 213.507 135.541 213.361 135.059ZM210.191 130.089C210.142 129.929 210.281 129.769 210.499 129.732C210.716 129.695 210.934 129.796 210.983 129.956C211.031 130.116 210.893 130.277 210.675 130.314C210.457 130.35 210.239 130.249 210.191 130.089ZM206.296 131.661C206.248 131.501 206.387 131.34 206.604 131.303C206.822 131.267 207.04 131.368 207.089 131.528C207.137 131.688 206.998 131.849 206.781 131.885C206.563 131.922 206.345 131.821 206.296 131.661ZM213.866 131.917C214.084 131.881 214.302 131.981 214.35 132.141C214.399 132.301 214.26 132.462 214.042 132.499C213.824 132.535 213.607 132.435 213.558 132.275C213.51 132.115 213.648 131.954 213.866 131.917ZM209.201 133.007C209.143 132.814 209.191 132.611 209.336 132.444C209.48 132.276 209.709 132.157 209.971 132.113C210.234 132.069 210.509 132.103 210.736 132.208C210.963 132.314 211.123 132.481 211.182 132.674C211.24 132.867 211.192 133.069 211.048 133.237C210.903 133.404 210.675 133.523 210.412 133.567C210.149 133.612 209.874 133.577 209.647 133.472C209.42 133.367 209.26 133.199 209.201 133.007ZM208.146 135.018C208.194 135.178 208.056 135.339 207.838 135.375C207.62 135.412 207.402 135.311 207.354 135.151C207.305 134.991 207.444 134.83 207.662 134.794C207.88 134.757 208.097 134.858 208.146 135.018ZM211.777 135.325C211.728 135.165 211.867 135.004 212.085 134.967C212.303 134.931 212.52 135.032 212.569 135.192C212.617 135.352 212.479 135.513 212.261 135.549C212.043 135.586 211.825 135.485 211.777 135.325Z" fill="#00A79D"/>
</g>
<g filter="url(#filter3_f_43_393)">
<path d="M174.656 306.711C174.762 306.502 174.808 306.278 174.792 306.051C174.776 305.825 174.697 305.602 174.561 305.396C174.425 305.19 174.235 305.005 174.002 304.854C173.769 304.702 173.499 304.586 173.208 304.514L173.26 303.341C173.762 303.307 174.243 303.186 174.665 302.988C175.086 302.79 175.436 302.521 175.688 302.2L177.179 302.658C177.133 303.019 177.248 303.387 177.507 303.704C177.767 304.021 178.155 304.269 178.613 304.41C179.76 304.762 181.029 304.367 181.455 303.525C181.881 302.684 181.3 301.72 180.154 301.368C179.187 301.072 178.133 301.31 177.567 301.892L176.076 301.435C176.277 300.676 175.972 299.891 175.301 299.31L176.294 298.42C176.34 298.44 176.388 298.455 176.437 298.47C177.583 298.822 178.852 298.426 179.278 297.585C179.704 296.743 179.123 295.78 177.977 295.428C176.831 295.076 175.562 295.471 175.136 296.313C174.863 296.85 175.007 297.433 175.434 297.881L174.444 298.766C173.604 298.391 172.564 298.288 171.616 298.536L170.756 297.446C170.978 297.292 171.145 297.103 171.258 296.88C171.685 296.038 171.104 295.075 169.957 294.723C168.811 294.371 167.542 294.767 167.116 295.608C166.69 296.45 167.271 297.413 168.417 297.765C168.886 297.909 169.371 297.929 169.814 297.843L170.674 298.933C169.8 299.461 169.38 300.305 169.552 301.148L167.968 301.488C167.717 301.194 167.346 300.951 166.876 300.807C165.73 300.455 164.461 300.851 164.035 301.692C163.608 302.534 164.19 303.497 165.336 303.849C166.482 304.201 167.751 303.806 168.177 302.964C168.29 302.741 168.333 302.514 168.314 302.285L169.898 301.946C170.126 302.276 170.448 302.567 170.84 302.798C171.232 303.028 171.685 303.193 172.165 303.28L172.114 304.454C171.411 304.549 170.793 304.904 170.521 305.441C170.095 306.283 170.676 307.246 171.822 307.598C172.968 307.95 174.23 307.552 174.656 306.711ZM176.516 296.737C176.658 296.458 177.084 296.325 177.464 296.442C177.843 296.558 178.039 296.882 177.897 297.161C177.756 297.44 177.33 297.572 176.95 297.456C176.57 297.339 176.375 297.016 176.516 296.737ZM168.497 296.032C168.638 295.753 169.064 295.621 169.444 295.737C169.824 295.854 170.019 296.177 169.878 296.456C169.736 296.735 169.31 296.868 168.93 296.751C168.551 296.635 168.355 296.311 168.497 296.032ZM179.641 302.382C180.02 302.499 180.215 302.823 180.074 303.101C179.933 303.38 179.507 303.513 179.127 303.396C178.747 303.28 178.552 302.956 178.693 302.677C178.835 302.399 179.261 302.266 179.641 302.382ZM171.099 300.346C171.269 300.01 171.614 299.743 172.058 299.605C172.502 299.467 173.009 299.468 173.467 299.608C173.924 299.749 174.296 300.017 174.499 300.354C174.702 300.691 174.721 301.07 174.551 301.406C174.381 301.742 174.035 302.008 173.591 302.147C173.147 302.285 172.641 302.284 172.183 302.143C171.725 302.003 171.354 301.734 171.15 301.397C170.947 301.06 170.928 300.682 171.099 300.346ZM166.796 302.54C166.655 302.819 166.229 302.952 165.849 302.835C165.469 302.719 165.274 302.395 165.416 302.116C165.557 301.837 165.983 301.705 166.363 301.821C166.742 301.938 166.938 302.261 166.796 302.54ZM171.895 305.863C172.036 305.584 172.462 305.451 172.842 305.568C173.222 305.684 173.417 306.008 173.276 306.287C173.134 306.565 172.708 306.698 172.328 306.582C171.949 306.465 171.753 306.142 171.895 305.863Z" fill="#00A79D"/>
</g>
<g filter="url(#filter4_f_43_393)">
<path d="M150.334 288.406C150.386 288.301 150.411 288.19 150.405 288.077C150.399 287.965 150.364 287.855 150.3 287.753C150.237 287.651 150.147 287.561 150.036 287.486C149.926 287.412 149.797 287.357 149.657 287.322L149.694 286.739C149.936 286.719 150.168 286.656 150.373 286.555C150.577 286.455 150.749 286.319 150.873 286.158L151.586 286.377C151.56 286.557 151.612 286.739 151.734 286.895C151.856 287.051 152.04 287.172 152.26 287.24C152.808 287.408 153.422 287.204 153.635 286.783C153.848 286.362 153.578 285.887 153.03 285.719C152.568 285.577 152.058 285.701 151.78 285.994L151.067 285.775C151.171 285.397 151.032 285.008 150.714 284.724L151.201 284.275C151.222 284.285 151.246 284.292 151.269 284.299C151.817 284.467 152.431 284.264 152.644 283.843C152.858 283.422 152.587 282.946 152.039 282.778C151.491 282.61 150.876 282.814 150.663 283.235C150.527 283.503 150.591 283.792 150.792 284.012L150.307 284.458C149.907 284.276 149.407 284.231 148.949 284.36L148.545 283.823C148.653 283.745 148.736 283.65 148.792 283.539C149.005 283.118 148.735 282.643 148.187 282.474C147.639 282.306 147.024 282.51 146.811 282.931C146.598 283.351 146.868 283.827 147.416 283.995C147.641 284.064 147.874 284.071 148.088 284.026L148.491 284.562C148.066 284.83 147.856 285.252 147.93 285.67L147.165 285.848C147.047 285.704 146.871 285.585 146.646 285.516C146.098 285.348 145.483 285.552 145.27 285.973C145.057 286.393 145.328 286.869 145.876 287.037C146.424 287.205 147.038 287.002 147.252 286.581C147.308 286.469 147.331 286.356 147.324 286.243L148.089 286.065C148.196 286.227 148.348 286.37 148.535 286.483C148.721 286.595 148.937 286.675 149.168 286.715L149.132 287.299C148.793 287.35 148.492 287.53 148.356 287.799C148.142 288.219 148.413 288.695 148.961 288.863C149.509 289.031 150.12 288.827 150.334 288.406ZM151.324 283.437C151.394 283.298 151.601 283.229 151.782 283.285C151.964 283.341 152.055 283.501 151.984 283.64C151.913 283.779 151.707 283.848 151.525 283.792C151.344 283.736 151.253 283.577 151.324 283.437ZM147.471 283.133C147.542 282.994 147.748 282.926 147.93 282.981C148.112 283.037 148.202 283.197 148.132 283.336C148.061 283.476 147.855 283.544 147.673 283.488C147.492 283.433 147.401 283.273 147.471 283.133ZM152.773 286.226C152.955 286.281 153.046 286.441 152.975 286.58C152.904 286.72 152.698 286.788 152.516 286.733C152.335 286.677 152.244 286.517 152.314 286.378C152.385 286.238 152.591 286.17 152.773 286.226ZM148.682 285.263C148.767 285.095 148.936 284.96 149.151 284.889C149.366 284.817 149.61 284.815 149.829 284.882C150.048 284.95 150.224 285.081 150.318 285.247C150.413 285.413 150.418 285.601 150.333 285.769C150.248 285.938 150.08 286.072 149.865 286.143C149.65 286.215 149.406 286.217 149.187 286.15C148.968 286.083 148.792 285.951 148.697 285.785C148.602 285.619 148.597 285.431 148.682 285.263ZM146.591 286.378C146.521 286.518 146.314 286.586 146.133 286.53C145.951 286.474 145.86 286.315 145.931 286.175C146.001 286.036 146.208 285.967 146.389 286.023C146.571 286.079 146.662 286.239 146.591 286.378ZM149.013 288C149.083 287.861 149.29 287.792 149.471 287.848C149.653 287.904 149.744 288.064 149.673 288.203C149.603 288.342 149.396 288.411 149.215 288.355C149.033 288.299 148.942 288.14 149.013 288Z" fill="#FF6F61"/>
</g>
<g filter="url(#filter5_f_43_393)">
<path d="M234.451 271.172C234.504 271.068 234.528 270.956 234.523 270.843C234.517 270.731 234.481 270.621 234.418 270.519C234.354 270.417 234.264 270.327 234.154 270.253C234.043 270.179 233.914 270.123 233.775 270.088L233.811 269.505C234.053 269.485 234.286 269.422 234.49 269.322C234.695 269.221 234.866 269.085 234.991 268.924L235.704 269.143C235.678 269.323 235.73 269.505 235.852 269.661C235.973 269.817 236.158 269.938 236.377 270.006C236.925 270.174 237.54 269.97 237.753 269.549C237.966 269.128 237.696 268.653 237.147 268.485C236.685 268.343 236.176 268.468 235.898 268.76L235.184 268.541C235.288 268.163 235.149 267.775 234.832 267.49L235.318 267.041C235.34 267.051 235.363 267.058 235.386 267.065C235.934 267.234 236.549 267.03 236.762 266.609C236.975 266.188 236.705 265.713 236.157 265.544C235.608 265.376 234.994 265.58 234.781 266.001C234.645 266.269 234.708 266.558 234.91 266.778L234.424 267.224C234.024 267.043 233.524 266.997 233.066 267.126L232.663 266.589C232.771 266.511 232.853 266.417 232.91 266.305C233.123 265.884 232.852 265.409 232.304 265.24C231.756 265.072 231.142 265.276 230.928 265.697C230.715 266.118 230.986 266.593 231.534 266.761C231.758 266.83 231.991 266.837 232.205 266.792L232.609 267.329C232.183 267.596 231.973 268.018 232.048 268.436L231.282 268.614C231.165 268.47 230.988 268.351 230.764 268.282C230.215 268.114 229.601 268.318 229.388 268.739C229.175 269.16 229.445 269.635 229.993 269.803C230.541 269.972 231.156 269.768 231.369 269.347C231.426 269.235 231.449 269.122 231.441 269.009L232.207 268.831C232.313 268.994 232.466 269.136 232.652 269.249C232.839 269.361 233.055 269.441 233.285 269.481L233.249 270.065C232.91 270.116 232.609 270.296 232.473 270.565C232.26 270.985 232.53 271.461 233.079 271.629C233.627 271.798 234.238 271.593 234.451 271.172ZM235.441 266.203C235.512 266.064 235.718 265.996 235.9 266.051C236.081 266.107 236.172 266.267 236.102 266.406C236.031 266.546 235.825 266.614 235.643 266.558C235.461 266.503 235.371 266.343 235.441 266.203ZM231.589 265.9C231.659 265.76 231.866 265.692 232.047 265.747C232.229 265.803 232.32 265.963 232.249 266.102C232.179 266.242 231.972 266.31 231.791 266.254C231.609 266.199 231.518 266.039 231.589 265.9ZM236.891 268.992C237.072 269.047 237.163 269.207 237.092 269.347C237.022 269.486 236.815 269.554 236.634 269.499C236.452 269.443 236.361 269.283 236.432 269.144C236.503 269.004 236.709 268.936 236.891 268.992ZM232.8 268.029C232.885 267.861 233.054 267.726 233.269 267.655C233.484 267.583 233.727 267.581 233.946 267.648C234.165 267.716 234.341 267.847 234.436 268.013C234.531 268.18 234.536 268.367 234.451 268.536C234.366 268.704 234.197 268.838 233.982 268.909C233.767 268.981 233.523 268.983 233.304 268.916C233.085 268.849 232.909 268.717 232.815 268.551C232.72 268.385 232.715 268.197 232.8 268.029ZM230.709 269.144C230.638 269.284 230.432 269.352 230.25 269.296C230.068 269.241 229.978 269.081 230.048 268.941C230.119 268.802 230.325 268.734 230.507 268.789C230.688 268.845 230.779 269.005 230.709 269.144ZM233.13 270.766C233.201 270.627 233.407 270.558 233.589 270.614C233.77 270.67 233.861 270.83 233.791 270.969C233.72 271.109 233.514 271.177 233.332 271.121C233.15 271.065 233.06 270.906 233.13 270.766Z" fill="#00A79D"/>
</g>
<defs>
<filter id="filter0_f_43_393" x="216.725" y="141.204" width="28.2168" height="22.0596" filterUnits="userSpaceOnUse" color-interpolation-filters="sRGB">
<feFlood flood-opacity="0" result="BackgroundImageFix"/>
<feBlend mode="normal" in="SourceGraphic" in2="BackgroundImageFix" result="shape"/>
<feGaussianBlur stdDeviation="2" result="effect1_foregroundBlur_43_393"/>
</filter>
<filter id="filter1_f_43_393" x="130.001" y="130.713" width="28.2168" height="22.0596" filterUnits="userSpaceOnUse" color-interpolation-filters="sRGB">
<feFlood flood-opacity="0" result="BackgroundImageFix"/>
<feBlend mode="normal" in="SourceGraphic" in2="BackgroundImageFix" result="shape"/>
<feGaussianBlur stdDeviation="2" result="effect1_foregroundBlur_43_393"/>
</filter>
<filter id="filter2_f_43_393" x="201.475" y="125.127" width="17.6968" height="15.0254" filterUnits="userSpaceOnUse" color-interpolation-filters="sRGB">
<feFlood flood-opacity="0" result="BackgroundImageFix"/>
<feBlend mode="normal" in="SourceGraphic" in2="BackgroundImageFix" result="shape"/>
<feGaussianBlur stdDeviation="2" result="effect1_foregroundBlur_43_393"/>
</filter>
<filter id="filter3_f_43_393" x="159.895" y="290.595" width="25.7" height="21.1313" filterUnits="userSpaceOnUse" color-interpolation-filters="sRGB">
<feFlood flood-opacity="0" result="BackgroundImageFix"/>
<feBlend mode="normal" in="SourceGraphic" in2="BackgroundImageFix" result="shape"/>
<feGaussianBlur stdDeviation="2" result="effect1_foregroundBlur_43_393"/>
</filter>
<filter id="filter4_f_43_393" x="141.198" y="278.415" width="16.5106" height="14.5068" filterUnits="userSpaceOnUse" color-interpolation-filters="sRGB">
<feFlood flood-opacity="0" result="BackgroundImageFix"/>
<feBlend mode="normal" in="SourceGraphic" in2="BackgroundImageFix" result="shape"/>
<feGaussianBlur stdDeviation="2" result="effect1_foregroundBlur_43_393"/>
</filter>
<filter id="filter5_f_43_393" x="225.315" y="261.181" width="16.5106" height="14.5068" filterUnits="userSpaceOnUse" color-interpolation-filters="sRGB">
<feFlood flood-opacity="0" result="BackgroundImageFix"/>
<feBlend mode="normal" in="SourceGraphic" in2="BackgroundImageFix" result="shape"/>
<feGaussianBlur stdDeviation="2" result="effect1_foregroundBlur_43_393"/>
</filter>
</defs>
</svg>
