<svg width="48" height="48" viewBox="0 0 48 48" fill="none" xmlns="http://www.w3.org/2000/svg">
<path d="M15.2972 41.8197C15.2372 41.8197 15.1572 41.8597 15.0972 41.8597C11.2172 39.9397 8.05719 36.7597 6.11719 32.8797C6.11719 32.8197 6.15719 32.7397 6.15719 32.6797C8.59719 33.3997 11.1172 33.9397 13.6172 34.3597C14.0572 36.8797 14.5772 39.3797 15.2972 41.8197Z" fill="#00A79D"/>
<path d="M41.8782 32.8997C39.8982 36.8797 36.5982 40.0997 32.5782 42.0397C33.3382 39.4997 33.9782 36.9397 34.3982 34.3597C36.9182 33.9397 39.3982 33.3997 41.8382 32.6797C41.8182 32.7597 41.8782 32.8397 41.8782 32.8997Z" fill="#00A79D"/>
<path d="M42.0382 15.4209C39.5182 14.6609 36.9782 14.0409 34.3982 13.6009C33.9782 11.0209 33.3582 8.46094 32.5782 5.96094C36.7182 7.94094 40.0582 11.2809 42.0382 15.4209Z" fill="#00A79D"/>
<path d="M15.3009 6.17719C14.5809 8.61719 14.0609 11.0972 13.6409 13.6172C11.0609 14.0172 8.50094 14.6572 5.96094 15.4172C7.90094 11.3972 11.1209 8.09719 15.1009 6.11719C15.1609 6.11719 15.2409 6.17719 15.3009 6.17719Z" fill="#00A79D"/>
<path d="M30.9834 13.18C26.3434 12.66 21.6634 12.66 17.0234 13.18C17.5234 10.44 18.1634 7.7 19.0634 5.06C19.1034 4.9 19.0834 4.78 19.1034 4.62C20.6834 4.24 22.3034 4 24.0034 4C25.6834 4 27.3234 4.24 28.8834 4.62C28.9034 4.78 28.9034 4.9 28.9434 5.06C29.8434 7.72 30.4834 10.44 30.9834 13.18Z" fill="#00A79D"/>
<path d="M13.18 30.9834C10.42 30.4834 7.7 29.8434 5.06 28.9434C4.9 28.9034 4.78 28.9234 4.62 28.9034C4.24 27.3234 4 25.7034 4 24.0034C4 22.3234 4.24 20.6834 4.62 19.1234C4.78 19.1034 4.9 19.1034 5.06 19.0634C7.72 18.1834 10.42 17.5234 13.18 17.0234C12.68 21.6634 12.68 26.3434 13.18 30.9834Z" fill="#00A79D"/>
<path d="M44.0004 24.0034C44.0004 25.7034 43.7604 27.3234 43.3804 28.9034C43.2204 28.9234 43.1004 28.9034 42.9404 28.9434C40.2804 29.8234 37.5604 30.4834 34.8204 30.9834C35.3404 26.3434 35.3404 21.6634 34.8204 17.0234C37.5604 17.5234 40.3004 18.1634 42.9404 19.0634C43.1004 19.1034 43.2204 19.1234 43.3804 19.1234C43.7604 20.7034 44.0004 22.3234 44.0004 24.0034Z" fill="#00A79D"/>
<path d="M30.9834 34.8203C30.4834 37.5803 29.8434 40.3003 28.9434 42.9403C28.9034 43.1003 28.9034 43.2203 28.8834 43.3803C27.3234 43.7603 25.6834 44.0003 24.0034 44.0003C22.3034 44.0003 20.6834 43.7603 19.1034 43.3803C19.0834 43.2203 19.1034 43.1003 19.0634 42.9403C18.1834 40.2803 17.5234 37.5803 17.0234 34.8203C19.3434 35.0803 21.6634 35.2603 24.0034 35.2603C26.3434 35.2603 28.6834 35.0803 30.9834 34.8203Z" fill="#00A79D"/>
<path d="M31.5266 31.5266C26.5244 32.1578 21.4756 32.1578 16.4733 31.5266C15.8422 26.5244 15.8422 21.4756 16.4733 16.4733C21.4756 15.8422 26.5244 15.8422 31.5266 16.4733C32.1578 21.4756 32.1578 26.5244 31.5266 31.5266Z" fill="#00A79D"/>
</svg>
