<svg width="36" height="36" viewBox="0 0 36 36" fill="none" xmlns="http://www.w3.org/2000/svg">
<g id="Group 31">
<g id="Vector">
<path d="M16.5 4.69565C16.5 3.83478 17.175 3.13043 18 3.13043C18.825 3.13043 19.5 3.83478 19.5 4.69565C19.5 5.55652 18.825 6.26087 18 6.26087C17.175 6.26087 16.5 5.55652 16.5 4.69565Z" fill="#FFFAEB"/>
<path fill-rule="evenodd" clip-rule="evenodd" d="M31.5 10.1739C30.8826 10.1736 30.2717 10.306 29.7055 10.5629C29.1393 10.8198 28.6299 11.1956 28.2091 11.6671C27.7883 12.1385 27.4651 12.6954 27.2596 13.3029C27.0542 13.9104 26.9709 14.5556 27.015 15.1983L23.97 16.2626C23.4874 15.31 22.8004 14.4865 21.9626 13.8566C21.1248 13.2267 20.1588 12.8074 19.14 12.6313V9.25043C20.1022 8.98256 20.9529 8.39111 21.5603 7.56767C22.1677 6.74424 22.498 5.73478 22.5 4.69565C22.5 2.09739 20.49 0 18 0C15.51 0 13.5 2.09739 13.5 4.69565C13.5 6.88696 14.94 8.71826 16.875 9.25043V12.6313C14.775 12.9913 13.005 14.3687 12.045 16.2626L8.985 15.1983C9 15.0887 9 14.9791 9 14.8696C9 12.2713 6.99 10.1739 4.5 10.1739C2.01 10.1739 0 12.2713 0 14.8696C0 17.4678 2.01 19.5652 4.5 19.5652C6.09 19.5652 7.47 18.7043 8.28 17.4209L11.325 18.4852C11.025 20.5043 11.58 22.6487 12.96 24.2609L10.845 27.0313C10.275 26.7496 9.66 26.6087 9 26.6087C6.51 26.6087 4.5 28.7061 4.5 31.3043C4.5 33.9026 6.51 36 9 36C11.49 36 13.5 33.9026 13.5 31.3043C13.5 30.24 13.17 29.2696 12.6 28.487L14.715 25.7165C16.755 26.9061 19.245 26.8904 21.27 25.7165L23.385 28.487C22.83 29.2696 22.5 30.24 22.5 31.3043C22.5 33.9026 24.51 36 27 36C29.49 36 31.5 33.9026 31.5 31.3043C31.5 28.7061 29.49 26.6087 27 26.6087C26.34 26.6087 25.725 26.7496 25.155 27.0157L23.04 24.2452C23.7057 23.4691 24.1977 22.5483 24.4804 21.5494C24.7632 20.5505 24.8297 19.4985 24.675 18.4696L27.72 17.4052C28.515 18.6887 29.91 19.5496 31.5 19.5496C33.99 19.5496 36 17.4522 36 14.8539C36 12.2557 33.99 10.1739 31.5 10.1739ZM3 14.8696C3 15.7304 3.675 16.4348 4.5 16.4348C5.325 16.4348 6 15.7304 6 14.8696C6 14.0087 5.325 13.3043 4.5 13.3043C3.675 13.3043 3 14.0087 3 14.8696ZM7.5 31.3043C7.5 32.1652 8.175 32.8696 9 32.8696C9.825 32.8696 10.5 32.1652 10.5 31.3043C10.5 30.4435 9.825 29.7391 9 29.7391C8.175 29.7391 7.5 30.4435 7.5 31.3043ZM18 3.13043C17.175 3.13043 16.5 3.83478 16.5 4.69565C16.5 5.55652 17.175 6.26087 18 6.26087C18.825 6.26087 19.5 5.55652 19.5 4.69565C19.5 3.83478 18.825 3.13043 18 3.13043ZM15.3483 22.3322C16.0516 23.066 17.0054 23.4783 18 23.4783C18.9946 23.4783 19.9484 23.066 20.6517 22.3322C21.3549 21.5983 21.75 20.603 21.75 19.5652C21.75 18.5274 21.3549 17.5321 20.6517 16.7983C19.9484 16.0644 18.9946 15.6522 18 15.6522C17.0054 15.6522 16.0516 16.0644 15.3483 16.7983C14.6451 17.5321 14.25 18.5274 14.25 19.5652C14.25 20.603 14.6451 21.5983 15.3483 22.3322ZM28.5 31.3043C28.5 30.4435 27.825 29.7391 27 29.7391C26.175 29.7391 25.5 30.4435 25.5 31.3043C25.5 32.1652 26.175 32.8696 27 32.8696C27.825 32.8696 28.5 32.1652 28.5 31.3043ZM30 14.8696C30 15.7304 30.675 16.4348 31.5 16.4348C32.325 16.4348 33 15.7304 33 14.8696C33 14.0087 32.325 13.3043 31.5 13.3043C30.675 13.3043 30 14.0087 30 14.8696Z" fill="#FFFAEB"/>
<path d="M4.5 16.4348C3.675 16.4348 3 15.7304 3 14.8696C3 14.0087 3.675 13.3043 4.5 13.3043C5.325 13.3043 6 14.0087 6 14.8696C6 15.7304 5.325 16.4348 4.5 16.4348Z" fill="#FFFAEB"/>
<path d="M9 32.8696C8.175 32.8696 7.5 32.1652 7.5 31.3043C7.5 30.4435 8.175 29.7391 9 29.7391C9.825 29.7391 10.5 30.4435 10.5 31.3043C10.5 32.1652 9.825 32.8696 9 32.8696Z" fill="#FFFAEB"/>
<path d="M27 29.7391C27.825 29.7391 28.5 30.4435 28.5 31.3043C28.5 32.1652 27.825 32.8696 27 32.8696C26.175 32.8696 25.5 32.1652 25.5 31.3043C25.5 30.4435 26.175 29.7391 27 29.7391Z" fill="#FFFAEB"/>
<path d="M31.5 16.4348C30.675 16.4348 30 15.7304 30 14.8696C30 14.0087 30.675 13.3043 31.5 13.3043C32.325 13.3043 33 14.0087 33 14.8696C33 15.7304 32.325 16.4348 31.5 16.4348Z" fill="#FFFAEB"/>
</g>
<g id="SVGRepo_iconCarrier">
<path id="Vector_2" d="M18.8286 20.135L18.7225 20.2451C18.7225 20.2451 18.4702 20.5069 17.7817 19.7924C17.0932 19.0779 17.3454 18.8161 17.3454 18.8161L17.4122 18.7468C17.5769 18.5759 17.5924 18.3017 17.4488 18.1014L17.1549 17.6918C16.9772 17.444 16.6336 17.4112 16.4299 17.6227L16.0641 18.0022C15.9631 18.1071 15.8954 18.243 15.9036 18.3937C15.9246 18.7795 16.0918 19.6094 17.0249 20.5777C18.0145 21.6045 18.943 21.6453 19.3226 21.6084C19.4427 21.5967 19.5472 21.5329 19.6313 21.4456L19.9623 21.1021C20.1858 20.8702 20.1228 20.4727 19.8369 20.3106L19.3917 20.058C19.204 19.9515 18.9753 19.9828 18.8286 20.135Z" fill="#FFFAEB"/>
</g>
</g>
</svg>
