<svg width="208" height="60" viewBox="0 0 208 60" fill="none" xmlns="http://www.w3.org/2000/svg">
<path d="M12.744 29.36C12.744 28.32 12.928 27.304 13.296 26.312C13.68 25.304 14.232 24.392 14.952 23.576C15.672 22.744 16.552 22.088 17.592 21.608C18.632 21.112 19.816 20.864 21.144 20.864C22.712 20.864 24.064 21.208 25.2 21.896C26.352 22.584 27.208 23.48 27.768 24.584L25.224 26.336C24.936 25.696 24.56 25.192 24.096 24.824C23.632 24.44 23.136 24.176 22.608 24.032C22.08 23.872 21.56 23.792 21.048 23.792C20.216 23.792 19.488 23.96 18.864 24.296C18.256 24.632 17.744 25.072 17.328 25.616C16.912 26.16 16.6 26.768 16.392 27.44C16.2 28.112 16.104 28.784 16.104 29.456C16.104 30.208 16.224 30.936 16.464 31.64C16.704 32.328 17.04 32.944 17.472 33.488C17.92 34.016 18.448 34.44 19.056 34.76C19.68 35.064 20.36 35.216 21.096 35.216C21.624 35.216 22.16 35.128 22.704 34.952C23.248 34.776 23.752 34.496 24.216 34.112C24.68 33.728 25.04 33.232 25.296 32.624L28.008 34.184C27.672 35.032 27.12 35.752 26.352 36.344C25.6 36.936 24.752 37.384 23.808 37.688C22.864 37.992 21.928 38.144 21 38.144C19.784 38.144 18.672 37.896 17.664 37.4C16.656 36.888 15.784 36.216 15.048 35.384C14.328 34.536 13.76 33.592 13.344 32.552C12.944 31.496 12.744 30.432 12.744 29.36ZM35.6783 38.24C34.6543 38.24 33.7343 38.072 32.9183 37.736C32.1023 37.384 31.4063 36.904 30.8303 36.296C30.2703 35.688 29.8383 34.992 29.5343 34.208C29.2303 33.424 29.0783 32.6 29.0783 31.736C29.0783 30.856 29.2303 30.024 29.5343 29.24C29.8383 28.456 30.2703 27.76 30.8303 27.152C31.4063 26.544 32.1023 26.072 32.9183 25.736C33.7343 25.384 34.6543 25.208 35.6783 25.208C36.7023 25.208 37.6143 25.384 38.4143 25.736C39.2303 26.072 39.9263 26.544 40.5023 27.152C41.0783 27.76 41.5103 28.456 41.7983 29.24C42.1023 30.024 42.2543 30.856 42.2543 31.736C42.2543 32.6 42.1023 33.424 41.7983 34.208C41.5103 34.992 41.0783 35.688 40.5023 36.296C39.9423 36.904 39.2543 37.384 38.4383 37.736C37.6223 38.072 36.7023 38.24 35.6783 38.24ZM32.3903 31.736C32.3903 32.472 32.5343 33.128 32.8223 33.704C33.1103 34.264 33.5023 34.704 33.9983 35.024C34.4943 35.344 35.0543 35.504 35.6783 35.504C36.2863 35.504 36.8383 35.344 37.3343 35.024C37.8303 34.688 38.2223 34.24 38.5103 33.68C38.8143 33.104 38.9663 32.448 38.9663 31.712C38.9663 30.992 38.8143 30.344 38.5103 29.768C38.2223 29.192 37.8303 28.744 37.3343 28.424C36.8383 28.104 36.2863 27.944 35.6783 27.944C35.0543 27.944 34.4943 28.112 33.9983 28.448C33.5023 28.768 33.1103 29.216 32.8223 29.792C32.5343 30.352 32.3903 31 32.3903 31.736ZM56.1129 38H52.8969V30.944C52.8969 29.936 52.7209 29.2 52.3689 28.736C52.0169 28.272 51.5289 28.04 50.9049 28.04C50.4729 28.04 50.0329 28.152 49.5849 28.376C49.1529 28.6 48.7609 28.912 48.4089 29.312C48.0569 29.696 47.8009 30.144 47.6409 30.656V38H44.4249V25.424H47.3289V27.752C47.6489 27.208 48.0569 26.752 48.5529 26.384C49.0489 26 49.6169 25.712 50.2569 25.52C50.9129 25.312 51.6009 25.208 52.3209 25.208C53.1049 25.208 53.7449 25.352 54.2409 25.64C54.7529 25.912 55.1369 26.288 55.3929 26.768C55.6649 27.232 55.8489 27.76 55.9449 28.352C56.0569 28.944 56.1129 29.544 56.1129 30.152V38ZM66.375 37.352C66.103 37.464 65.775 37.592 65.391 37.736C65.007 37.88 64.591 37.992 64.143 38.072C63.711 38.168 63.271 38.216 62.823 38.216C62.231 38.216 61.687 38.112 61.191 37.904C60.695 37.696 60.295 37.368 59.991 36.92C59.703 36.456 59.559 35.856 59.559 35.12V27.896H57.903V25.424H59.559V21.344H62.775V25.424H65.415V27.896H62.775V34.04C62.791 34.472 62.911 34.784 63.135 34.976C63.359 35.168 63.639 35.264 63.975 35.264C64.311 35.264 64.639 35.208 64.959 35.096C65.279 34.984 65.535 34.888 65.727 34.808L66.375 37.352ZM67.1859 34.28C67.1859 33.464 67.4099 32.752 67.8579 32.144C68.3219 31.52 68.9619 31.04 69.7779 30.704C70.5939 30.368 71.5299 30.2 72.5859 30.2C73.1139 30.2 73.6499 30.24 74.1939 30.32C74.7379 30.4 75.2099 30.528 75.6099 30.704V30.032C75.6099 29.232 75.3699 28.616 74.8899 28.184C74.4259 27.752 73.7299 27.536 72.8019 27.536C72.1139 27.536 71.4579 27.656 70.8339 27.896C70.2099 28.136 69.5539 28.488 68.8659 28.952L67.8339 26.84C68.6659 26.296 69.5139 25.888 70.3779 25.616C71.2579 25.344 72.1779 25.208 73.1379 25.208C74.9299 25.208 76.3219 25.656 77.3139 26.552C78.3219 27.448 78.8259 28.728 78.8259 30.392V34.4C78.8259 34.736 78.8819 34.976 78.9939 35.12C79.1219 35.264 79.3219 35.352 79.5939 35.384V38C79.3059 38.048 79.0419 38.088 78.8019 38.12C78.5779 38.152 78.3859 38.168 78.2259 38.168C77.5859 38.168 77.0979 38.024 76.7619 37.736C76.4419 37.448 76.2419 37.096 76.1619 36.68L76.0899 36.032C75.5459 36.736 74.8659 37.28 74.0499 37.664C73.2339 38.048 72.4019 38.24 71.5539 38.24C70.7219 38.24 69.9699 38.072 69.2979 37.736C68.6419 37.384 68.1219 36.912 67.7379 36.32C67.3699 35.712 67.1859 35.032 67.1859 34.28ZM75.0099 34.928C75.1859 34.736 75.3299 34.544 75.4419 34.352C75.5539 34.16 75.6099 33.984 75.6099 33.824V32.552C75.2259 32.392 74.8099 32.272 74.3619 32.192C73.9139 32.096 73.4899 32.048 73.0899 32.048C72.2579 32.048 71.5699 32.232 71.0259 32.6C70.4979 32.952 70.2339 33.424 70.2339 34.016C70.2339 34.336 70.3219 34.64 70.4979 34.928C70.6739 35.216 70.9299 35.448 71.2659 35.624C71.6019 35.8 72.0019 35.888 72.4659 35.888C72.9459 35.888 73.4179 35.8 73.8819 35.624C74.3459 35.432 74.7219 35.2 75.0099 34.928ZM87.6872 38.24C86.6632 38.24 85.7432 38.072 84.9272 37.736C84.1112 37.384 83.4152 36.904 82.8392 36.296C82.2632 35.672 81.8152 34.968 81.4952 34.184C81.1912 33.4 81.0392 32.576 81.0392 31.712C81.0392 30.528 81.3032 29.448 81.8312 28.472C82.3752 27.48 83.1432 26.688 84.1352 26.096C85.1272 25.504 86.3032 25.208 87.6632 25.208C89.0232 25.208 90.1912 25.504 91.1672 26.096C92.1432 26.688 92.8712 27.464 93.3512 28.424L90.2072 29.384C89.9352 28.92 89.5752 28.568 89.1272 28.328C88.6792 28.072 88.1832 27.944 87.6392 27.944C87.0312 27.944 86.4712 28.104 85.9592 28.424C85.4632 28.728 85.0712 29.168 84.7832 29.744C84.4952 30.304 84.3512 30.96 84.3512 31.712C84.3512 32.448 84.4952 33.104 84.7832 33.68C85.0872 34.24 85.4872 34.688 85.9832 35.024C86.4792 35.344 87.0312 35.504 87.6392 35.504C88.0232 35.504 88.3832 35.44 88.7192 35.312C89.0712 35.184 89.3832 35.008 89.6552 34.784C89.9272 34.56 90.1272 34.304 90.2552 34.016L93.3992 34.976C93.1112 35.6 92.6872 36.16 92.1272 36.656C91.5832 37.152 90.9352 37.544 90.1832 37.832C89.4472 38.104 88.6152 38.24 87.6872 38.24ZM102.914 37.352C102.642 37.464 102.314 37.592 101.93 37.736C101.546 37.88 101.13 37.992 100.682 38.072C100.25 38.168 99.8101 38.216 99.3621 38.216C98.7701 38.216 98.2261 38.112 97.7301 37.904C97.2341 37.696 96.8341 37.368 96.5301 36.92C96.2421 36.456 96.0981 35.856 96.0981 35.12V27.896H94.4421V25.424H96.0981V21.344H99.3141V25.424H101.954V27.896H99.3141V34.04C99.3301 34.472 99.4501 34.784 99.6741 34.976C99.8981 35.168 100.178 35.264 100.514 35.264C100.85 35.264 101.178 35.208 101.498 35.096C101.818 34.984 102.074 34.888 102.266 34.808L102.914 37.352ZM119.229 20.96V38H115.941V30.728H108.213V38H104.901V20.96H108.213V27.848H115.941V20.96H119.229ZM122.352 33.296V25.424H125.568V32.6C125.568 33.56 125.744 34.288 126.096 34.784C126.448 35.264 126.968 35.504 127.656 35.504C128.072 35.504 128.48 35.424 128.88 35.264C129.296 35.088 129.672 34.832 130.008 34.496C130.36 34.16 130.656 33.736 130.896 33.224V25.424H134.112V34.4C134.112 34.736 134.168 34.976 134.28 35.12C134.408 35.264 134.608 35.352 134.88 35.384V38C134.56 38.048 134.288 38.08 134.064 38.096C133.856 38.128 133.664 38.144 133.488 38.144C132.912 38.144 132.44 38.016 132.072 37.76C131.72 37.488 131.512 37.12 131.448 36.656L131.376 35.648C130.816 36.496 130.096 37.144 129.216 37.592C128.336 38.024 127.368 38.24 126.312 38.24C125.016 38.24 124.032 37.824 123.36 36.992C122.688 36.144 122.352 34.912 122.352 33.296ZM144.46 38.24C143.5 38.24 142.644 38.024 141.892 37.592C141.14 37.16 140.548 36.568 140.116 35.816V38H137.308V20.48H140.524V27.632C140.972 26.88 141.556 26.288 142.276 25.856C143.012 25.424 143.868 25.208 144.844 25.208C145.66 25.208 146.404 25.384 147.076 25.736C147.748 26.072 148.324 26.544 148.804 27.152C149.3 27.76 149.676 28.456 149.932 29.24C150.204 30.024 150.34 30.864 150.34 31.76C150.34 32.656 150.188 33.496 149.884 34.28C149.596 35.064 149.188 35.76 148.66 36.368C148.132 36.96 147.508 37.424 146.788 37.76C146.084 38.08 145.308 38.24 144.46 38.24ZM143.572 35.504C144.084 35.504 144.548 35.408 144.964 35.216C145.396 35.008 145.764 34.736 146.068 34.4C146.388 34.064 146.628 33.672 146.788 33.224C146.964 32.76 147.052 32.28 147.052 31.784C147.052 31.096 146.908 30.464 146.62 29.888C146.348 29.296 145.964 28.824 145.468 28.472C144.988 28.12 144.42 27.944 143.764 27.944C143.3 27.944 142.852 28.056 142.42 28.28C142.004 28.488 141.628 28.776 141.292 29.144C140.972 29.512 140.716 29.928 140.524 30.392V33.392C140.62 33.712 140.772 34 140.98 34.256C141.204 34.512 141.46 34.736 141.748 34.928C142.036 35.104 142.332 35.248 142.636 35.36C142.956 35.456 143.268 35.504 143.572 35.504Z" fill="#FFFAEB"/>
<path d="M176.5 16.6957C176.5 15.8348 177.175 15.1304 178 15.1304C178.825 15.1304 179.5 15.8348 179.5 16.6957C179.5 17.5565 178.825 18.2609 178 18.2609C177.175 18.2609 176.5 17.5565 176.5 16.6957Z" fill="#FFFAEB"/>
<path fill-rule="evenodd" clip-rule="evenodd" d="M191.5 22.1739C190.883 22.1736 190.272 22.306 189.706 22.5629C189.139 22.8198 188.63 23.1956 188.209 23.6671C187.788 24.1385 187.465 24.6954 187.26 25.3029C187.054 25.9104 186.971 26.5556 187.015 27.1983L183.97 28.2626C183.487 27.31 182.8 26.4865 181.963 25.8566C181.125 25.2267 180.159 24.8074 179.14 24.6313V21.2504C180.102 20.9826 180.953 20.3911 181.56 19.5677C182.168 18.7442 182.498 17.7348 182.5 16.6957C182.5 14.0974 180.49 12 178 12C175.51 12 173.5 14.0974 173.5 16.6957C173.5 18.887 174.94 20.7183 176.875 21.2504V24.6313C174.775 24.9913 173.005 26.3687 172.045 28.2626L168.985 27.1983C169 27.0887 169 26.9791 169 26.8696C169 24.2713 166.99 22.1739 164.5 22.1739C162.01 22.1739 160 24.2713 160 26.8696C160 29.4678 162.01 31.5652 164.5 31.5652C166.09 31.5652 167.47 30.7043 168.28 29.4209L171.325 30.4852C171.025 32.5043 171.58 34.6487 172.96 36.2609L170.845 39.0313C170.275 38.7496 169.66 38.6087 169 38.6087C166.51 38.6087 164.5 40.7061 164.5 43.3043C164.5 45.9026 166.51 48 169 48C171.49 48 173.5 45.9026 173.5 43.3043C173.5 42.24 173.17 41.2696 172.6 40.487L174.715 37.7165C176.755 38.9061 179.245 38.8904 181.27 37.7165L183.385 40.487C182.83 41.2696 182.5 42.24 182.5 43.3043C182.5 45.9026 184.51 48 187 48C189.49 48 191.5 45.9026 191.5 43.3043C191.5 40.7061 189.49 38.6087 187 38.6087C186.34 38.6087 185.725 38.7496 185.155 39.0157L183.04 36.2452C183.706 35.4691 184.198 34.5483 184.48 33.5494C184.763 32.5505 184.83 31.4985 184.675 30.4696L187.72 29.4052C188.515 30.6887 189.91 31.5496 191.5 31.5496C193.99 31.5496 196 29.4522 196 26.8539C196 24.2557 193.99 22.1739 191.5 22.1739ZM163 26.8696C163 27.7304 163.675 28.4348 164.5 28.4348C165.325 28.4348 166 27.7304 166 26.8696C166 26.0087 165.325 25.3043 164.5 25.3043C163.675 25.3043 163 26.0087 163 26.8696ZM167.5 43.3043C167.5 44.1652 168.175 44.8696 169 44.8696C169.825 44.8696 170.5 44.1652 170.5 43.3043C170.5 42.4435 169.825 41.7391 169 41.7391C168.175 41.7391 167.5 42.4435 167.5 43.3043ZM178 15.1304C177.175 15.1304 176.5 15.8348 176.5 16.6957C176.5 17.5565 177.175 18.2609 178 18.2609C178.825 18.2609 179.5 17.5565 179.5 16.6957C179.5 15.8348 178.825 15.1304 178 15.1304ZM175.348 34.3322C176.052 35.066 177.005 35.4783 178 35.4783C178.995 35.4783 179.948 35.066 180.652 34.3322C181.355 33.5983 181.75 32.603 181.75 31.5652C181.75 30.5274 181.355 29.5321 180.652 28.7983C179.948 28.0644 178.995 27.6522 178 27.6522C177.005 27.6522 176.052 28.0644 175.348 28.7983C174.645 29.5321 174.25 30.5274 174.25 31.5652C174.25 32.603 174.645 33.5983 175.348 34.3322ZM188.5 43.3043C188.5 42.4435 187.825 41.7391 187 41.7391C186.175 41.7391 185.5 42.4435 185.5 43.3043C185.5 44.1652 186.175 44.8696 187 44.8696C187.825 44.8696 188.5 44.1652 188.5 43.3043ZM190 26.8696C190 27.7304 190.675 28.4348 191.5 28.4348C192.325 28.4348 193 27.7304 193 26.8696C193 26.0087 192.325 25.3043 191.5 25.3043C190.675 25.3043 190 26.0087 190 26.8696Z" fill="#FFFAEB"/>
<path d="M164.5 28.4348C163.675 28.4348 163 27.7304 163 26.8696C163 26.0087 163.675 25.3043 164.5 25.3043C165.325 25.3043 166 26.0087 166 26.8696C166 27.7304 165.325 28.4348 164.5 28.4348Z" fill="#FFFAEB"/>
<path d="M169 44.8696C168.175 44.8696 167.5 44.1652 167.5 43.3043C167.5 42.4435 168.175 41.7391 169 41.7391C169.825 41.7391 170.5 42.4435 170.5 43.3043C170.5 44.1652 169.825 44.8696 169 44.8696Z" fill="#FFFAEB"/>
<path d="M187 41.7391C187.825 41.7391 188.5 42.4435 188.5 43.3043C188.5 44.1652 187.825 44.8696 187 44.8696C186.175 44.8696 185.5 44.1652 185.5 43.3043C185.5 42.4435 186.175 41.7391 187 41.7391Z" fill="#FFFAEB"/>
<path d="M191.5 28.4348C190.675 28.4348 190 27.7304 190 26.8696C190 26.0087 190.675 25.3043 191.5 25.3043C192.325 25.3043 193 26.0087 193 26.8696C193 27.7304 192.325 28.4348 191.5 28.4348Z" fill="#FFFAEB"/>
<path d="M178.829 32.135L178.723 32.2451C178.723 32.2451 178.47 32.5069 177.782 31.7924C177.093 31.0779 177.345 30.8161 177.345 30.8161L177.412 30.7468C177.577 30.5759 177.592 30.3017 177.449 30.1014L177.155 29.6918C176.977 29.444 176.634 29.4112 176.43 29.6227L176.064 30.0022C175.963 30.1071 175.895 30.243 175.904 30.3937C175.925 30.7795 176.092 31.6094 177.025 32.5777C178.014 33.6045 178.943 33.6453 179.323 33.6084C179.443 33.5967 179.547 33.5329 179.631 33.4456L179.962 33.1021C180.186 32.8702 180.123 32.4727 179.837 32.3106L179.392 32.058C179.204 31.9515 178.975 31.9828 178.829 32.135Z" fill="#FFFAEB"/>
</svg>
