<svg width="175" height="36" viewBox="0 0 175 36" fill="none" xmlns="http://www.w3.org/2000/svg">
<path d="M0.744 20.36C0.744 19.32 0.928 18.304 1.296 17.312C1.68 16.304 2.232 15.392 2.952 14.576C3.672 13.744 4.552 13.088 5.592 12.608C6.632 12.112 7.816 11.864 9.144 11.864C10.712 11.864 12.064 12.208 13.2 12.896C14.352 13.584 15.208 14.48 15.768 15.584L13.224 17.336C12.936 16.696 12.56 16.192 12.096 15.824C11.632 15.44 11.136 15.176 10.608 15.032C10.08 14.872 9.56 14.792 9.048 14.792C8.216 14.792 7.488 14.96 6.864 15.296C6.256 15.632 5.744 16.072 5.328 16.616C4.912 17.16 4.6 17.768 4.392 18.44C4.2 19.112 4.104 19.784 4.104 20.456C4.104 21.208 4.224 21.936 4.464 22.64C4.704 23.328 5.04 23.944 5.472 24.488C5.92 25.016 6.448 25.44 7.056 25.76C7.68 26.064 8.36 26.216 9.096 26.216C9.624 26.216 10.16 26.128 10.704 25.952C11.248 25.776 11.752 25.496 12.216 25.112C12.68 24.728 13.04 24.232 13.296 23.624L16.008 25.184C15.672 26.032 15.12 26.752 14.352 27.344C13.6 27.936 12.752 28.384 11.808 28.688C10.864 28.992 9.928 29.144 9 29.144C7.784 29.144 6.672 28.896 5.664 28.4C4.656 27.888 3.784 27.216 3.048 26.384C2.328 25.536 1.76 24.592 1.344 23.552C0.944 22.496 0.744 21.432 0.744 20.36ZM23.6783 29.24C22.6543 29.24 21.7343 29.072 20.9183 28.736C20.1023 28.384 19.4063 27.904 18.8303 27.296C18.2703 26.688 17.8383 25.992 17.5343 25.208C17.2303 24.424 17.0783 23.6 17.0783 22.736C17.0783 21.856 17.2303 21.024 17.5343 20.24C17.8383 19.456 18.2703 18.76 18.8303 18.152C19.4063 17.544 20.1023 17.072 20.9183 16.736C21.7343 16.384 22.6543 16.208 23.6783 16.208C24.7023 16.208 25.6143 16.384 26.4143 16.736C27.2303 17.072 27.9263 17.544 28.5023 18.152C29.0783 18.76 29.5103 19.456 29.7983 20.24C30.1023 21.024 30.2543 21.856 30.2543 22.736C30.2543 23.6 30.1023 24.424 29.7983 25.208C29.5103 25.992 29.0783 26.688 28.5023 27.296C27.9423 27.904 27.2543 28.384 26.4383 28.736C25.6223 29.072 24.7023 29.24 23.6783 29.24ZM20.3903 22.736C20.3903 23.472 20.5343 24.128 20.8223 24.704C21.1103 25.264 21.5023 25.704 21.9983 26.024C22.4943 26.344 23.0543 26.504 23.6783 26.504C24.2863 26.504 24.8383 26.344 25.3343 26.024C25.8303 25.688 26.2223 25.24 26.5103 24.68C26.8143 24.104 26.9663 23.448 26.9663 22.712C26.9663 21.992 26.8143 21.344 26.5103 20.768C26.2223 20.192 25.8303 19.744 25.3343 19.424C24.8383 19.104 24.2863 18.944 23.6783 18.944C23.0543 18.944 22.4943 19.112 21.9983 19.448C21.5023 19.768 21.1103 20.216 20.8223 20.792C20.5343 21.352 20.3903 22 20.3903 22.736ZM44.1129 29H40.8969V21.944C40.8969 20.936 40.7209 20.2 40.3689 19.736C40.0169 19.272 39.5289 19.04 38.9049 19.04C38.4729 19.04 38.0329 19.152 37.5849 19.376C37.1529 19.6 36.7609 19.912 36.4089 20.312C36.0569 20.696 35.8009 21.144 35.6409 21.656V29H32.4249V16.424H35.3289V18.752C35.6489 18.208 36.0569 17.752 36.5529 17.384C37.0489 17 37.6169 16.712 38.2569 16.52C38.9129 16.312 39.6009 16.208 40.3209 16.208C41.1049 16.208 41.7449 16.352 42.2409 16.64C42.7529 16.912 43.1369 17.288 43.3929 17.768C43.6649 18.232 43.8489 18.76 43.9449 19.352C44.0569 19.944 44.1129 20.544 44.1129 21.152V29ZM54.375 28.352C54.103 28.464 53.775 28.592 53.391 28.736C53.007 28.88 52.591 28.992 52.143 29.072C51.711 29.168 51.271 29.216 50.823 29.216C50.231 29.216 49.687 29.112 49.191 28.904C48.695 28.696 48.295 28.368 47.991 27.92C47.703 27.456 47.559 26.856 47.559 26.12V18.896H45.903V16.424H47.559V12.344H50.775V16.424H53.415V18.896H50.775V25.04C50.791 25.472 50.911 25.784 51.135 25.976C51.359 26.168 51.639 26.264 51.975 26.264C52.311 26.264 52.639 26.208 52.959 26.096C53.279 25.984 53.535 25.888 53.727 25.808L54.375 28.352ZM55.1859 25.28C55.1859 24.464 55.4099 23.752 55.8579 23.144C56.3219 22.52 56.9619 22.04 57.7779 21.704C58.5939 21.368 59.5299 21.2 60.5859 21.2C61.1139 21.2 61.6499 21.24 62.1939 21.32C62.7379 21.4 63.2099 21.528 63.6099 21.704V21.032C63.6099 20.232 63.3699 19.616 62.8899 19.184C62.4259 18.752 61.7299 18.536 60.8019 18.536C60.1139 18.536 59.4579 18.656 58.8339 18.896C58.2099 19.136 57.5539 19.488 56.8659 19.952L55.8339 17.84C56.6659 17.296 57.5139 16.888 58.3779 16.616C59.2579 16.344 60.1779 16.208 61.1379 16.208C62.9299 16.208 64.3219 16.656 65.3139 17.552C66.3219 18.448 66.8259 19.728 66.8259 21.392V25.4C66.8259 25.736 66.8819 25.976 66.9939 26.12C67.1219 26.264 67.3219 26.352 67.5939 26.384V29C67.3059 29.048 67.0419 29.088 66.8019 29.12C66.5779 29.152 66.3859 29.168 66.2259 29.168C65.5859 29.168 65.0979 29.024 64.7619 28.736C64.4419 28.448 64.2419 28.096 64.1619 27.68L64.0899 27.032C63.5459 27.736 62.8659 28.28 62.0499 28.664C61.2339 29.048 60.4019 29.24 59.5539 29.24C58.7219 29.24 57.9699 29.072 57.2979 28.736C56.6419 28.384 56.1219 27.912 55.7379 27.32C55.3699 26.712 55.1859 26.032 55.1859 25.28ZM63.0099 25.928C63.1859 25.736 63.3299 25.544 63.4419 25.352C63.5539 25.16 63.6099 24.984 63.6099 24.824V23.552C63.2259 23.392 62.8099 23.272 62.3619 23.192C61.9139 23.096 61.4899 23.048 61.0899 23.048C60.2579 23.048 59.5699 23.232 59.0259 23.6C58.4979 23.952 58.2339 24.424 58.2339 25.016C58.2339 25.336 58.3219 25.64 58.4979 25.928C58.6739 26.216 58.9299 26.448 59.2659 26.624C59.6019 26.8 60.0019 26.888 60.4659 26.888C60.9459 26.888 61.4179 26.8 61.8819 26.624C62.3459 26.432 62.7219 26.2 63.0099 25.928ZM75.6872 29.24C74.6632 29.24 73.7432 29.072 72.9272 28.736C72.1112 28.384 71.4152 27.904 70.8392 27.296C70.2632 26.672 69.8152 25.968 69.4952 25.184C69.1912 24.4 69.0392 23.576 69.0392 22.712C69.0392 21.528 69.3032 20.448 69.8312 19.472C70.3752 18.48 71.1432 17.688 72.1352 17.096C73.1272 16.504 74.3032 16.208 75.6632 16.208C77.0232 16.208 78.1912 16.504 79.1672 17.096C80.1432 17.688 80.8712 18.464 81.3512 19.424L78.2072 20.384C77.9352 19.92 77.5752 19.568 77.1272 19.328C76.6792 19.072 76.1832 18.944 75.6392 18.944C75.0312 18.944 74.4712 19.104 73.9592 19.424C73.4632 19.728 73.0712 20.168 72.7832 20.744C72.4952 21.304 72.3512 21.96 72.3512 22.712C72.3512 23.448 72.4952 24.104 72.7832 24.68C73.0872 25.24 73.4872 25.688 73.9832 26.024C74.4792 26.344 75.0312 26.504 75.6392 26.504C76.0232 26.504 76.3832 26.44 76.7192 26.312C77.0712 26.184 77.3832 26.008 77.6552 25.784C77.9272 25.56 78.1272 25.304 78.2552 25.016L81.3992 25.976C81.1112 26.6 80.6872 27.16 80.1272 27.656C79.5832 28.152 78.9352 28.544 78.1832 28.832C77.4472 29.104 76.6152 29.24 75.6872 29.24ZM90.9141 28.352C90.6421 28.464 90.3141 28.592 89.9301 28.736C89.5461 28.88 89.1301 28.992 88.6821 29.072C88.2501 29.168 87.8101 29.216 87.3621 29.216C86.7701 29.216 86.2261 29.112 85.7301 28.904C85.2341 28.696 84.8341 28.368 84.5301 27.92C84.2421 27.456 84.0981 26.856 84.0981 26.12V18.896H82.4421V16.424H84.0981V12.344H87.3141V16.424H89.9541V18.896H87.3141V25.04C87.3301 25.472 87.4501 25.784 87.6741 25.976C87.8981 26.168 88.1781 26.264 88.5141 26.264C88.8501 26.264 89.1781 26.208 89.4981 26.096C89.8181 25.984 90.0741 25.888 90.2661 25.808L90.9141 28.352ZM107.229 11.96V29H103.941V21.728H96.213V29H92.901V11.96H96.213V18.848H103.941V11.96H107.229ZM110.352 24.296V16.424H113.568V23.6C113.568 24.56 113.744 25.288 114.096 25.784C114.448 26.264 114.968 26.504 115.656 26.504C116.072 26.504 116.48 26.424 116.88 26.264C117.296 26.088 117.672 25.832 118.008 25.496C118.36 25.16 118.656 24.736 118.896 24.224V16.424H122.112V25.4C122.112 25.736 122.168 25.976 122.28 26.12C122.408 26.264 122.608 26.352 122.88 26.384V29C122.56 29.048 122.288 29.08 122.064 29.096C121.856 29.128 121.664 29.144 121.488 29.144C120.912 29.144 120.44 29.016 120.072 28.76C119.72 28.488 119.512 28.12 119.448 27.656L119.376 26.648C118.816 27.496 118.096 28.144 117.216 28.592C116.336 29.024 115.368 29.24 114.312 29.24C113.016 29.24 112.032 28.824 111.36 27.992C110.688 27.144 110.352 25.912 110.352 24.296ZM132.46 29.24C131.5 29.24 130.644 29.024 129.892 28.592C129.14 28.16 128.548 27.568 128.116 26.816V29H125.308V11.48H128.524V18.632C128.972 17.88 129.556 17.288 130.276 16.856C131.012 16.424 131.868 16.208 132.844 16.208C133.66 16.208 134.404 16.384 135.076 16.736C135.748 17.072 136.324 17.544 136.804 18.152C137.3 18.76 137.676 19.456 137.932 20.24C138.204 21.024 138.34 21.864 138.34 22.76C138.34 23.656 138.188 24.496 137.884 25.28C137.596 26.064 137.188 26.76 136.66 27.368C136.132 27.96 135.508 28.424 134.788 28.76C134.084 29.08 133.308 29.24 132.46 29.24ZM131.572 26.504C132.084 26.504 132.548 26.408 132.964 26.216C133.396 26.008 133.764 25.736 134.068 25.4C134.388 25.064 134.628 24.672 134.788 24.224C134.964 23.76 135.052 23.28 135.052 22.784C135.052 22.096 134.908 21.464 134.62 20.888C134.348 20.296 133.964 19.824 133.468 19.472C132.988 19.12 132.42 18.944 131.764 18.944C131.3 18.944 130.852 19.056 130.42 19.28C130.004 19.488 129.628 19.776 129.292 20.144C128.972 20.512 128.716 20.928 128.524 21.392V24.392C128.62 24.712 128.772 25 128.98 25.256C129.204 25.512 129.46 25.736 129.748 25.928C130.036 26.104 130.332 26.248 130.636 26.36C130.956 26.456 131.268 26.504 131.572 26.504Z" fill="#FFFAEB"/>
<path d="M155.5 4.69565C155.5 3.83478 156.175 3.13043 157 3.13043C157.825 3.13043 158.5 3.83478 158.5 4.69565C158.5 5.55652 157.825 6.26087 157 6.26087C156.175 6.26087 155.5 5.55652 155.5 4.69565Z" fill="#FFFAEB"/>
<path fill-rule="evenodd" clip-rule="evenodd" d="M170.5 10.1739C169.883 10.1736 169.272 10.306 168.706 10.5629C168.139 10.8198 167.63 11.1956 167.209 11.6671C166.788 12.1385 166.465 12.6954 166.26 13.3029C166.054 13.9104 165.971 14.5556 166.015 15.1983L162.97 16.2626C162.487 15.31 161.8 14.4865 160.963 13.8566C160.125 13.2267 159.159 12.8074 158.14 12.6313V9.25043C159.102 8.98256 159.953 8.39111 160.56 7.56767C161.168 6.74424 161.498 5.73478 161.5 4.69565C161.5 2.09739 159.49 0 157 0C154.51 0 152.5 2.09739 152.5 4.69565C152.5 6.88696 153.94 8.71826 155.875 9.25043V12.6313C153.775 12.9913 152.005 14.3687 151.045 16.2626L147.985 15.1983C148 15.0887 148 14.9791 148 14.8696C148 12.2713 145.99 10.1739 143.5 10.1739C141.01 10.1739 139 12.2713 139 14.8696C139 17.4678 141.01 19.5652 143.5 19.5652C145.09 19.5652 146.47 18.7043 147.28 17.4209L150.325 18.4852C150.025 20.5043 150.58 22.6487 151.96 24.2609L149.845 27.0313C149.275 26.7496 148.66 26.6087 148 26.6087C145.51 26.6087 143.5 28.7061 143.5 31.3043C143.5 33.9026 145.51 36 148 36C150.49 36 152.5 33.9026 152.5 31.3043C152.5 30.24 152.17 29.2696 151.6 28.487L153.715 25.7165C155.755 26.9061 158.245 26.8904 160.27 25.7165L162.385 28.487C161.83 29.2696 161.5 30.24 161.5 31.3043C161.5 33.9026 163.51 36 166 36C168.49 36 170.5 33.9026 170.5 31.3043C170.5 28.7061 168.49 26.6087 166 26.6087C165.34 26.6087 164.725 26.7496 164.155 27.0157L162.04 24.2452C162.706 23.4691 163.198 22.5483 163.48 21.5494C163.763 20.5505 163.83 19.4985 163.675 18.4696L166.72 17.4052C167.515 18.6887 168.91 19.5496 170.5 19.5496C172.99 19.5496 175 17.4522 175 14.8539C175 12.2557 172.99 10.1739 170.5 10.1739ZM142 14.8696C142 15.7304 142.675 16.4348 143.5 16.4348C144.325 16.4348 145 15.7304 145 14.8696C145 14.0087 144.325 13.3043 143.5 13.3043C142.675 13.3043 142 14.0087 142 14.8696ZM146.5 31.3043C146.5 32.1652 147.175 32.8696 148 32.8696C148.825 32.8696 149.5 32.1652 149.5 31.3043C149.5 30.4435 148.825 29.7391 148 29.7391C147.175 29.7391 146.5 30.4435 146.5 31.3043ZM157 3.13043C156.175 3.13043 155.5 3.83478 155.5 4.69565C155.5 5.55652 156.175 6.26087 157 6.26087C157.825 6.26087 158.5 5.55652 158.5 4.69565C158.5 3.83478 157.825 3.13043 157 3.13043ZM154.348 22.3322C155.052 23.066 156.005 23.4783 157 23.4783C157.995 23.4783 158.948 23.066 159.652 22.3322C160.355 21.5983 160.75 20.603 160.75 19.5652C160.75 18.5274 160.355 17.5321 159.652 16.7983C158.948 16.0644 157.995 15.6522 157 15.6522C156.005 15.6522 155.052 16.0644 154.348 16.7983C153.645 17.5321 153.25 18.5274 153.25 19.5652C153.25 20.603 153.645 21.5983 154.348 22.3322ZM167.5 31.3043C167.5 30.4435 166.825 29.7391 166 29.7391C165.175 29.7391 164.5 30.4435 164.5 31.3043C164.5 32.1652 165.175 32.8696 166 32.8696C166.825 32.8696 167.5 32.1652 167.5 31.3043ZM169 14.8696C169 15.7304 169.675 16.4348 170.5 16.4348C171.325 16.4348 172 15.7304 172 14.8696C172 14.0087 171.325 13.3043 170.5 13.3043C169.675 13.3043 169 14.0087 169 14.8696Z" fill="#FFFAEB"/>
<path d="M143.5 16.4348C142.675 16.4348 142 15.7304 142 14.8696C142 14.0087 142.675 13.3043 143.5 13.3043C144.325 13.3043 145 14.0087 145 14.8696C145 15.7304 144.325 16.4348 143.5 16.4348Z" fill="#FFFAEB"/>
<path d="M148 32.8696C147.175 32.8696 146.5 32.1652 146.5 31.3043C146.5 30.4435 147.175 29.7391 148 29.7391C148.825 29.7391 149.5 30.4435 149.5 31.3043C149.5 32.1652 148.825 32.8696 148 32.8696Z" fill="#FFFAEB"/>
<path d="M166 29.7391C166.825 29.7391 167.5 30.4435 167.5 31.3043C167.5 32.1652 166.825 32.8696 166 32.8696C165.175 32.8696 164.5 32.1652 164.5 31.3043C164.5 30.4435 165.175 29.7391 166 29.7391Z" fill="#FFFAEB"/>
<path d="M170.5 16.4348C169.675 16.4348 169 15.7304 169 14.8696C169 14.0087 169.675 13.3043 170.5 13.3043C171.325 13.3043 172 14.0087 172 14.8696C172 15.7304 171.325 16.4348 170.5 16.4348Z" fill="#FFFAEB"/>
<path d="M157.829 20.135L157.723 20.2451C157.723 20.2451 157.47 20.5069 156.782 19.7924C156.093 19.0779 156.345 18.8161 156.345 18.8161L156.412 18.7468C156.577 18.5759 156.592 18.3017 156.449 18.1014L156.155 17.6918C155.977 17.444 155.634 17.4112 155.43 17.6227L155.064 18.0022C154.963 18.1071 154.895 18.243 154.904 18.3937C154.925 18.7795 155.092 19.6094 156.025 20.5777C157.014 21.6045 157.943 21.6453 158.323 21.6084C158.443 21.5967 158.547 21.5329 158.631 21.4456L158.962 21.1021C159.186 20.8702 159.123 20.4727 158.837 20.3106L158.392 20.058C158.204 19.9515 157.975 19.9828 157.829 20.135Z" fill="#FFFAEB"/>
</svg>
